<svg xmlns="http://www.w3.org/2000/svg">
<defs>
<font id="GTAmerica-ExpandedBold" horiz-adv-x="803">
<font-face font-family="GT America Expanded Bold" font-stretch="ultra-expanded" font-weight="700" ascent="785" bbox="-591 -246 1716 978" cap-height="710" descent="-215" panose-1="0 0 8 7 0 0 0 0 0 0" underline-position="-100" underline-thickness="50" unicode-range="U+000D-FB02" units-per-em="1000" x-height="500"/>

<glyph d="M581 379h-220v-379h-193v379h-153v121h153v19q0 110 71 163t217 53q62 0 125 -12v-129q-49 10 -108 10q-62 0 -87 -19.5t-25 -67.5v-17h220v-121zM678 500h192v-500h-192v500zM673 727h203v-154h-203v154z" glyph-name="fi" horiz-adv-x="952" unicode="fi"/>
<glyph d="M581 379h-220v-379h-193v379h-153v121h153v19q0 110 71 163t217 53q62 0 125 -12v-129q-49 10 -108 10q-62 0 -87 -19.5t-25 -67.5v-17h220v-121zM875 0h-192v725h192v-725z" glyph-name="fl" horiz-adv-x="962" unicode="fl"/>
<glyph d="M648 568.5q42 24.5 106 24.5q34 0 49 -4v-120q-19 6 -61 6q-46 0 -71 -13q65 -45 65 -115q0 -83 -88.5 -130t-246.5 -47q-97 0 -168 18q-29 -9 -29 -30q0 -34 61 -34h304q107 0 158.5 -37.5t51.5 -112.5q0 -97 -98.5 -142.5t-309.5 -45.5q-173 0 -255 29t-82 92 q0 33 22.5 54.5t70.5 33.5q-40 13 -61.5 37.5t-21.5 58.5q0 44 33.5 74t94.5 43q-52 24 -79 59t-27 80q0 82 87.5 127.5t247.5 45.5q113 0 191 -23q14 47 56 71.5zM1549 475q-46 0 -71 -13q65 -45 65 -115q0 -54 -41 -94t-117 -61.5t-177 -21.5q-89 0 -160 17 q-24 -9 -24 -29q0 -17 15 -25t47 -9h298q107 -1 158 -38t51 -112q0 -97 -101 -142.5t-306 -45.5q-169 0 -250.5 29t-81.5 92q0 32 21 53t65 33q-36 14 -56 39t-20 59q0 43 31.5 72.5t89.5 43.5q-55 23 -84 58.5t-29 81.5q0 83 88 128t248 45q113 0 191 -23q13 47 55.5 71.5 t107.5 24.5q33 0 48 -4v-120q-19 6 -61 6zM503.5 283.5q36.5 22.5 36.5 63.5q0 40 -36 61t-103 21t-103 -21t-36 -61q0 -41 36.5 -63.5t102.5 -22.5t102.5 22.5zM1310.5 283.5q36.5 22.5 36.5 63.5q0 40 -36 61t-103 21q-68 0 -104 -21t-36 -61q0 -41 36.5 -63.5 t103.5 -22.5q66 0 102.5 22.5zM212 -18h-14q-26 -16 -26 -42q0 -37 56.5 -53t171.5 -16q77 0 121 5.5t64 19t20 36.5q0 24 -17.5 35t-56.5 11zM1033 -22q-13 0 -20 1q-21 -17 -21 -39q0 -37 56 -53t166 -16q77 0 121 5.5t64 19t20 36.5q0 24 -17.5 35t-56.5 11h-312z" glyph-name="g_g.liga" horiz-adv-x="1637" unicode="gg"/>
<glyph d="M446 663v-47h552v-48h-552v-47h552v-48h-552v-47h552v-47h-552v-48h552v-47h-978v426h978v-47h-552zM80 676h-16l-5 15l-4 -15h-16l13 -9l-5 -15l12 9l13 -9l-5 15zM126 676l13 -9l-5 -15l12 10l13 -10l-5 15l12 9h-15l-5 15l-4 -15h-16zM213 676l13 -9l-5 -15l12 10 l13 -10l-5 15l12 9h-15l-5 15l-4 -15h-16zM300 676l13 -9l-5 -15l12 10l13 -10l-5 15l12 9h-15l-5 15l-5 -15h-15zM427 676h-15l-5 15l-5 -15h-15l12 -9l-4 -15l12 10l13 -10l-5 15zM83 632l12 -9l-4 -14l12 9l12 -9l-4 14l12 9h-15l-5 15l-5 -15h-15zM384 632h-16l-4 15 l-5 -15h-15l12 -9l-5 -14l13 9l12 -9l-5 14zM273 457h94v80h-94v94h-80v-94h-93v-80h93v-93h80v93zM80 589h-16l-5 14l-4 -14h-16l13 -9l-5 -15l12 9l13 -9l-5 15zM126 589l13 -9l-5 -15l12 9l13 -9l-5 15l12 9h-15l-5 14l-4 -14h-16zM300 589l13 -9l-5 -15l12 9l13 -9 l-5 15l12 9h-15l-5 14l-5 -14h-15zM427 589h-15l-5 14l-5 -14h-15l12 -9l-4 -15l12 9l13 -9l-5 15zM80 502h-16l-5 14l-4 -14h-16l13 -10l-5 -14l12 9l13 -9l-5 14zM427 502h-15l-5 14l-5 -14h-15l12 -10l-4 -14l12 9l13 -9l-5 14zM80 414h-16l-5 15l-4 -15h-16l13 -9 l-5 -14l12 9l13 -9l-5 14zM166 414h-15l-5 15l-4 -15h-16l13 -9l-5 -14l12 9l13 -9l-5 14zM340 414h-15l-5 15l-5 -15h-15l13 -9l-5 -14l12 9l13 -9l-5 14zM427 414h-15l-5 15l-5 -15h-15l12 -9l-4 -14l12 9l13 -9l-5 14zM111 362l12 9h-15l-5 14l-5 -14h-15l12 -9l-4 -15 l12 9l12 -9zM371 362l13 9h-16l-4 14l-5 -14h-15l12 -9l-5 -15l13 9l12 -9zM67 318l13 9h-16l-5 15l-4 -15h-16l13 -9l-5 -15l12 9l13 -9zM154 318l12 9h-15l-5 15l-4 -15h-16l13 -9l-5 -15l12 9l13 -9zM241 318l12 9h-15l-5 15l-4 -15h-16l13 -9l-5 -15l12 9l13 -9z M328 318l12 9h-15l-5 15l-5 -15h-15l13 -9l-5 -15l12 9l13 -9zM415 318l12 9h-15l-5 15l-5 -15h-15l12 -9l-4 -15l12 9l13 -9zM20 237h977v-48h-977v48zM20 142h978v-47h-978v47zM20 47h978v-47h-978v47z" glyph-name=".notdef" horiz-adv-x="1018"/>
<glyph glyph-name=".null" horiz-adv-x="0"/>
<glyph glyph-name=".null" horiz-adv-x="0"/>
<glyph glyph-name="nonmarkingreturn" horiz-adv-x="0" unicode=""/>
<glyph glyph-name="space" horiz-adv-x="406" unicode=" "/>
<glyph d="M95 725h219l-27 -488h-165zM314 0h-219v156h219v-156z" glyph-name="exclam" horiz-adv-x="409" unicode="!"/>
<glyph d="M317 710h196l-31 -345h-134zM66 710h196l-31 -345h-134z" glyph-name="quotedbl" horiz-adv-x="579" unicode='"'/>
<glyph d="M671 411l-25 -128h150v-112h-171l-33 -171h-143l33 171h-186l-33 -171h-143l33 171h-134v112h155l24 128h-139v111h161l32 170h144l-33 -170h186l33 170h143l-33 -170h138v-111h-159zM528 411h-186l-25 -128h186z" glyph-name="numbersign" horiz-adv-x="849" unicode="#"/>
<glyph d="M803 93q-44 -51 -127.5 -80t-197.5 -32v-86h-73v86q-144 5 -250.5 47.5t-154.5 114.5l143 91q76 -106 262 -120v176l-102 9q-126 13 -188 61t-62 135q0 99 92.5 157t259.5 63v83h73v-84q245 -9 361 -131l-127 -99q-29 43 -88.5 68.5t-145.5 31.5v-162l109 -10 q135 -14 197.5 -60.5t62.5 -138.5q0 -69 -44 -120zM405 429v157q-164 -3 -164 -77q0 -35 29 -52.5t98 -24.5zM658 198q0 36 -28 54t-90 25l-62 6v-171q180 5 180 86z" glyph-name="dollar" horiz-adv-x="879" unicode="$"/>
<glyph d="M894 726h151l-750 -743h-150zM146.5 356q-59.5 24 -92 68t-32.5 103q0 57 32.5 100.5t91.5 67.5t137 24q76 0 135.5 -24.5t92.5 -68.5t33 -102q0 -57 -33 -100.5t-92 -67.5t-135 -24q-78 0 -137.5 24zM363 457q30 25 30 67q0 44 -30 69.5t-80 25.5q-51 0 -81.5 -25 t-30.5 -67q0 -44 30.5 -69.5t82.5 -25.5q49 0 79 25zM762.5 6q-59.5 24 -92 68t-32.5 103q0 57 32.5 100.5t92 67.5t136.5 24q76 0 135.5 -24.5t92.5 -68.5t33 -102q0 -57 -33 -100.5t-92 -67.5t-135 -24q-78 0 -137.5 24zM979.5 106.5q29.5 24.5 29.5 67.5q0 44 -30 69.5 t-80 25.5q-51 0 -81.5 -25t-30.5 -67q0 -44 30.5 -69.5t82.5 -25.5q50 0 79.5 24.5z" glyph-name="percent" horiz-adv-x="1182" unicode="%"/>
<glyph d="M899 124v-124q-43 -18 -85 -18q-86 0 -180 68q-120 -74 -289 -74q-110 0 -184.5 27.5t-111 73.5t-36.5 103q0 68 45 115t139 80q-58 46 -84.5 84.5t-26.5 89.5q0 60 37 102t98.5 63t136.5 21q120 0 192 -47.5t72 -131.5q0 -61 -47.5 -112.5t-114.5 -74.5l-22 -8l185 -137 q62 79 82 187l142 -24q-29 -147 -108 -243q28 -15 51 -22t49 -7q31 0 60 9zM286 612.5q-26 -21.5 -26 -61.5q0 -30 19 -58t71 -66l19 6q44 15 65.5 47.5t21.5 72.5q0 38 -25.5 59.5t-73.5 21.5q-45 0 -71 -21.5zM518 136l-229 170q-81 -38 -81 -104q0 -47 44.5 -75.5 t114.5 -28.5q81 0 151 38z" glyph-name="ampersand" horiz-adv-x="917" unicode="&amp;"/>
<glyph d="M66 710h196l-31 -345h-134z" glyph-name="quotesingle" horiz-adv-x="328" unicode="'"/>
<glyph d="M117.5 76q-58.5 124 -58.5 248t59.5 249.5t162.5 213.5l140 -61q-181 -174 -181 -405q0 -221 183 -403l-145 -61q-102 95 -160.5 219z" glyph-name="parenleft" horiz-adv-x="426" unicode="("/>
<glyph d="M3 -82q183 180 183 403q0 231 -181 405l140 61q103 -88 162.5 -213.5t59.5 -249.5t-58 -248.5t-161 -218.5z" glyph-name="parenright" horiz-adv-x="426" unicode=")"/>
<glyph d="M276 522l121 -96l-114 -79l-63 143l-62 -143l-114 79l121 96l-146 10l41 128l127 -80l-40 136h146l-40 -136l128 80l41 -128z" glyph-name="asterisk" horiz-adv-x="440" unicode="*"/>
<glyph d="M663 270h-245v-195h-128v195h-244v117h244v185h128v-185h245v-117z" glyph-name="plus" horiz-adv-x="709" unicode="+"/>
<glyph d="M80 -90q46 9 66.5 30t20.5 55v5h-101v180h197v-167q0 -71 -39 -118.5t-124 -58.5z" glyph-name="comma" horiz-adv-x="328" unicode=","/>
<glyph d="M568 346v-136h-522v136h522z" glyph-name="hyphen" horiz-adv-x="614" unicode="-"/>
<glyph d="M275 0h-209v164h209v-164z" glyph-name="period" horiz-adv-x="341" unicode="."/>
<glyph d="M42 -117l465 877h183l-465 -877h-183z" glyph-name="slash" horiz-adv-x="732" unicode="/"/>
<glyph d="M235.5 21q-92.5 45 -144.5 129t-52 199q0 114 52 197.5t144.5 128t211.5 44.5t211.5 -44.5t144.5 -128t52 -197.5q0 -115 -52 -199t-144.5 -129t-211.5 -45t-211.5 45zM596.5 174.5q56.5 59.5 56.5 174.5q0 113 -56.5 172t-149.5 59t-149.5 -59t-56.5 -172 q0 -115 56.5 -174.5t149.5 -59.5t149.5 59.5z" glyph-name="zero" horiz-adv-x="894" unicode="0"/>
<glyph d="M238 464q-24 -27 -68.5 -41.5t-98.5 -14.5h-49v162h28q80 0 135.5 32.5t79.5 92.5h168v-695h-195v464z" glyph-name="one" horiz-adv-x="545" unicode="1"/>
<glyph d="M36 132q122 43 231 90t183 88q68 38 95 73t27 81q0 48 -41 79.5t-119 31.5t-122.5 -34.5t-44.5 -96.5q0 -12 3 -29l-201 18q-3 12 -3 37q0 74 48 129.5t133 85.5t193 30q170 0 265.5 -62t95.5 -174q0 -75 -39 -126.5t-118 -94.5q-117 -63 -294 -111h466v-147h-758v132z " glyph-name="two" horiz-adv-x="844" unicode="2"/>
<glyph d="M139.5 44.5q-100.5 64.5 -108.5 179.5l200 17q6 -63 54 -94.5t133 -31.5q84 0 130 24t46 69q0 48 -40.5 68.5t-123.5 20.5h-83v112h81q152 0 152 85q0 41 -42.5 63.5t-124.5 22.5q-84 0 -130 -31.5t-49 -93.5l-197 19q3 70 46.5 124.5t127.5 85.5t201 31 q177 0 273.5 -54.5t96.5 -150.5q0 -70 -49.5 -107t-126.5 -44q93 -10 143.5 -51.5t50.5 -114.5q0 -63 -45.5 -111t-132.5 -75t-207 -27q-175 0 -275.5 64.5z" glyph-name="three" horiz-adv-x="841" unicode="3"/>
<glyph d="M707 149v-149h-192v149h-496v121l470 425h218v-416h155v-130h-155zM520 564h-4q-18 -33 -74 -84l-144 -136q-44 -42 -80 -65h298v191q0 67 4 94z" glyph-name="four" horiz-adv-x="874" unicode="4"/>
<glyph d="M226 6q-79 26 -128 74.5t-60 113.5l193 23q11 -47 58.5 -74.5t119.5 -27.5q83 0 128 32t45 91q0 57 -44 87.5t-123 30.5q-128 0 -174 -88l-176 15l46 412h620v-138h-467l-21 -162q30 41 92.5 64t145.5 23q142 0 222.5 -64t80.5 -178q0 -79 -46.5 -138t-131.5 -90.5 t-200 -31.5q-101 0 -180 26z" glyph-name="five" horiz-adv-x="821" unicode="5"/>
<glyph d="M726.5 413.5q84.5 -63.5 84.5 -179.5q0 -76 -46.5 -133.5t-132 -89t-197.5 -31.5q-190 0 -293 93.5t-103 265.5q0 179 106 277.5t299 98.5q143 0 238.5 -50.5t120.5 -140.5l-200 -26q-33 83 -166 83q-96 0 -149 -49.5t-58 -144.5q42 44 107 67t148 23q157 0 241.5 -63.5z M562 147q48 33 48 86q0 57 -43 87.5t-124 30.5q-71 0 -123 -27.5t-78 -77.5q38 -132 193 -132q79 0 127 33z" glyph-name="six" horiz-adv-x="848" unicode="6"/>
<glyph d="M193 18q0 155 84 290.5t245 239.5h-508v147h704v-138q-145 -96 -228 -224.5t-83 -292.5v-40h-214v18z" glyph-name="seven" horiz-adv-x="736" unicode="7"/>
<glyph d="M774.5 312q42.5 -46 42.5 -118q0 -67 -46 -115t-133 -73.5t-208 -25.5q-122 0 -210.5 23.5t-135 68.5t-46.5 107q0 64 47 106.5t133 58.5q-82 26 -120 68t-38 107q0 60 45 104t128 68t195 24q111 0 194 -23t128 -65t45 -99q0 -54 -41 -91t-115 -52q93 -27 135.5 -73z M305.5 575q-44.5 -21 -44.5 -58q0 -35 35 -56t115 -33l93 -15q3 0 4 -1q45 18 65.5 41.5t20.5 55.5q0 42 -43 64.5t-123 22.5q-78 0 -122.5 -21zM565 132q49 25 49 68q0 40 -39 62.5t-134 37.5l-89 15q-111 -33 -111 -110q0 -47 49.5 -72.5t140.5 -25.5q85 0 134 25z" glyph-name="eight" horiz-adv-x="854" unicode="8"/>
<glyph d="M704 623.5q104 -91.5 104 -260.5q0 -186 -103 -284.5t-295 -98.5q-144 0 -242 55t-124 152l200 27q17 -47 60 -71.5t107 -24.5q101 0 153.5 52t54.5 155q-40 -39 -104 -60.5t-152 -21.5q-156 0 -241.5 60t-85.5 173q0 73 46 127t129.5 83t194.5 29q194 0 298 -91.5z M533 395q52 25 75 69q-18 58 -67.5 90.5t-128.5 32.5q-81 0 -127.5 -29t-46.5 -81q0 -51 44 -79t122 -28q77 0 129 25z" glyph-name="nine" horiz-adv-x="848" unicode="9"/>
<glyph d="M275 336h-209v164h209v-164zM275 0h-209v164h209v-164z" glyph-name="colon" horiz-adv-x="341" unicode=":"/>
<glyph d="M275 336h-209v164h209v-164zM92 -90q46 9 66.5 30t20.5 55v5h-101v180h197v-167q0 -71 -39 -118.5t-124 -58.5z" glyph-name="semicolon" horiz-adv-x="341" unicode=";"/>
<glyph d="M99 271v110l565 205v-125l-421 -134l421 -134v-127z" glyph-name="less" unicode="&lt;"/>
<glyph d="M46 479h598v-108h-598v108zM46 287h598v-108h-598v108z" glyph-name="equal" horiz-adv-x="691" unicode="="/>
<glyph d="M139 193l422 134l-422 134v125l565 -205v-110l-565 -205v127z" glyph-name="greater" unicode="&gt;"/>
<glyph d="M295 232q0 51 22.5 85.5t77.5 55.5l94 38q45 18 65.5 39.5t20.5 58.5q0 41 -43.5 69t-124.5 28q-85 0 -135.5 -32t-50.5 -91q0 -28 6 -46l-199 17q-6 23 -6 47q0 70 47 123t134.5 81.5t203.5 28.5q111 0 193.5 -25.5t127.5 -73.5t45 -114q0 -69 -36.5 -111t-104.5 -70 l-91 -38q-36 -15 -49.5 -33.5t-13.5 -45.5v-21h-183v30zM281 156h215v-156h-215v156z" glyph-name="question" horiz-adv-x="802" unicode="?"/>
<glyph d="M237 -58.5q-105 45.5 -160.5 131.5t-55.5 204q0 113 61.5 200.5t172.5 136t255 48.5q143 0 251 -45t166.5 -127.5t58.5 -192.5q0 -107 -57 -169.5t-155 -62.5q-125 0 -152 92q-32 -48 -89 -73.5t-130 -25.5q-89 0 -137.5 33t-48.5 93q0 62 46.5 94t151.5 43l201 18v6 q0 40 -29 61t-83 21q-49 0 -78.5 -18t-32.5 -49h-163q4 47 41 84t98 57t137 20q129 0 196.5 -48.5t67.5 -142.5v-115q0 -35 14 -51t45 -16q38 0 59.5 39t21.5 108q0 94 -48 161.5t-138 103t-215 35.5t-217 -38.5t-141.5 -110.5t-49.5 -169q0 -96 48 -166.5t137.5 -108 t211.5 -37.5q56 0 118.5 11.5t105.5 29.5l28 -62q-105 -48 -264 -48q-144 0 -249 45.5zM574 181.5q42 29.5 42 75.5v21l-161 -16q-40 -5 -58.5 -18.5t-18.5 -38.5q0 -24 24.5 -38.5t65.5 -14.5q64 0 106 29.5z" glyph-name="at" horiz-adv-x="1007" unicode="@"/>
<glyph d="M689 143h-396l-66 -143h-217l355 710h252l354 -710h-216zM629 272l-91 195q-10 24 -23 57.5t-23 64.5h-2q-10 -31 -23 -64.5t-23 -57.5l-91 -195h276z" glyph-name="A" horiz-adv-x="982" unicode="A"/>
<glyph d="M867.5 317q39.5 -44 39.5 -115q0 -87 -65 -144.5t-202 -57.5h-548v710h544q126 0 189.5 -49.5t63.5 -130.5q0 -57 -35.5 -100t-104.5 -57q79 -12 118.5 -56zM294 578v-155h286q100 0 100 82q0 31 -22.5 52t-77.5 21h-286zM671 155.5q27 23.5 27 62.5q0 38 -27 60.5 t-81 22.5h-296v-169h295q55 0 82 23.5z" glyph-name="B" horiz-adv-x="950" unicode="B"/>
<glyph d="M240 22.5q-105 46.5 -162 131.5t-57 198q0 111 60 198t167.5 135.5t245.5 48.5q115 0 207 -32t153.5 -92t84.5 -142l-209 -37q-20 73 -81 111.5t-157 38.5q-120 0 -189.5 -61t-69.5 -165q0 -68 32 -119t91 -79t138 -28q94 0 154.5 36.5t83.5 107.5l206 -44 q-44 -121 -161.5 -187t-290.5 -66q-141 0 -246 46.5z" glyph-name="C" horiz-adv-x="966" unicode="C"/>
<glyph d="M92 710h451q131 0 227.5 -39.5t148.5 -117t52 -186.5t-54.5 -192.5t-152.5 -129t-224 -45.5h-448v710zM514 137q114 0 179.5 60t65.5 167q0 101 -67 155t-180 54h-218v-436h220z" glyph-name="D" horiz-adv-x="992" unicode="D"/>
<glyph d="M816 141v-141h-724v710h717v-141h-515v-143h498v-132h-498v-153h522z" glyph-name="E" horiz-adv-x="880" unicode="E"/>
<glyph d="M294 565v-146h498v-142h-498v-277h-202v710h717v-145h-515z" glyph-name="F" horiz-adv-x="846" unicode="F"/>
<glyph d="M216.5 23.5q-94.5 47.5 -145 132t-50.5 191.5q0 111 57.5 199t164.5 138t250 50q111 0 202 -28t151 -80.5t82 -123.5l-218 -36q-21 55 -78 88.5t-145 33.5q-120 0 -187.5 -64.5t-67.5 -174.5q0 -69 30.5 -121.5t88.5 -81.5t138 -29q74 0 129.5 21t86.5 55.5t34 74.5v3 h-268v125h456v-396h-154l-9 122q-38 -63 -119.5 -104.5t-206.5 -41.5q-127 0 -221.5 47.5z" glyph-name="G" horiz-adv-x="984" unicode="G"/>
<glyph d="M923 0h-202v290h-427v-290h-202v710h202v-280h427v280h202v-710z" glyph-name="H" horiz-adv-x="1015" unicode="H"/>
<glyph d="M92 0v710h202v-710h-202z" glyph-name="I" horiz-adv-x="385" unicode="I"/>
<glyph d="M371.5 49q-81.5 -64 -221.5 -64q-80 0 -136 12v155q47 -7 89 -7q71 0 109.5 32t38.5 114v419h202v-453q0 -144 -81.5 -208z" glyph-name="J" horiz-adv-x="517" unicode="J"/>
<glyph d="M455 323l-161 -143v-180h-202v710h202v-330l379 330h249l-315 -272l333 -438h-235z" glyph-name="K" horiz-adv-x="956" unicode="K"/>
<glyph d="M92 710h202v-552h481v-158h-683v710z" glyph-name="L" horiz-adv-x="802" unicode="L"/>
<glyph d="M92 710h301l184 -430q3 -9 12 -34t12 -43h2q4 22 25 78l182 429h308v-710h-184v452q0 64 9 121h-4q-4 -15 -16.5 -49.5t-25.5 -63.5l-206 -460h-189l-199 459q-18 46 -38 114h-4q7 -41 7 -121v-452h-176v710z" glyph-name="M" horiz-adv-x="1210" unicode="M"/>
<glyph d="M92 710h215l371 -403q34 -38 56 -81h4v102v382h183v-710h-201l-385 408q-16 17 -32.5 40.5t-23.5 40.5h-4v-99v-390h-183v710z" glyph-name="N" horiz-adv-x="1012" unicode="N"/>
<glyph d="M246 23q-108 47 -166.5 132.5t-58.5 199.5t58.5 200t166.5 132.5t251 46.5t250.5 -47t166.5 -132.5t59 -199.5t-59 -199.5t-166.5 -132.5t-250.5 -47t-251 47zM635 154.5q60 28.5 93 80.5t33 120t-33 120t-93 80.5t-138 28.5t-138 -28.5t-93 -80.5t-33 -120t33 -120 t93 -80.5t138 -28.5t138 28.5z" glyph-name="O" horiz-adv-x="994" unicode="O"/>
<glyph d="M792.5 647q78.5 -63 78.5 -173q0 -75 -37 -131.5t-105 -87t-159 -30.5h-276v-225h-202v710h483q139 0 217.5 -63zM624 388.5q35 28.5 35 80.5q0 51 -34.5 78.5t-98.5 27.5h-232v-215h231q64 0 99 28.5z" glyph-name="P" horiz-adv-x="888" unicode="P"/>
<glyph d="M870 -27q43 0 79 4v-153q-44 -6 -75 -6q-108 0 -186 41t-121 120q-33 -3 -70 -3q-143 0 -251 47t-166.5 132.5t-58.5 199.5t58.5 200t166.5 132.5t251 46.5t250.5 -47t166.5 -132.5t59 -199.5q0 -123 -69 -213.5t-192 -132.5q62 -36 158 -36zM266 235q33 -52 93 -80.5 t138 -28.5t138 28.5t93 80.5t33 120t-33 120t-93 80.5t-138 28.5t-138 -28.5t-93 -80.5t-33 -120t33 -120z" glyph-name="Q" horiz-adv-x="994" unicode="Q"/>
<glyph d="M501 251h-207v-251h-202v710h484q157 0 225.5 -65t68.5 -160q0 -67 -38.5 -125.5t-121.5 -84.5l186 -275h-227zM294 380h236q68 0 97.5 28t29.5 71q0 42 -29.5 69t-96.5 27h-237v-195z" glyph-name="R" horiz-adv-x="926" unicode="R"/>
<glyph d="M173.5 24q-118.5 48 -173.5 133l144 101q46 -64 127 -101.5t187 -37.5q97 0 143 20t46 62q0 33 -25.5 48.5t-89.5 22.5l-218 24q-132 14 -194.5 65.5t-62.5 148.5q0 106 99 165t281 59q278 0 408 -146l-127 -107q-40 53 -115.5 83t-175.5 30q-83 0 -126.5 -19t-43.5 -55 q0 -33 26 -48t95 -23l196 -19q99 -10 159.5 -34.5t89 -67t28.5 -108.5q0 -117 -105 -180.5t-298 -63.5q-156 0 -274.5 48z" glyph-name="S" horiz-adv-x="883" unicode="S"/>
<glyph d="M803 553h-296v-553h-202v553h-295v157h793v-157z" glyph-name="T" horiz-adv-x="813" unicode="T"/>
<glyph d="M265 710v-371q0 -92 56.5 -148.5t159.5 -56.5q67 0 115.5 26t74 72.5t25.5 106.5v371h202v-392q0 -102 -49 -179.5t-142.5 -120t-225.5 -42.5t-226 43t-143 120.5t-49 180.5v390h202z" glyph-name="U" horiz-adv-x="961" unicode="U"/>
<glyph d="M-3 710h224l223 -478q15 -33 24 -71h3q7 32 24 71l223 478h224l-351 -710h-242z" glyph-name="V" horiz-adv-x="939" unicode="V"/>
<glyph d="M18 710h205l142 -459q1 -5 7 -27t7 -41h4q3 21 20 68l170 459h210l170 -459q17 -47 20 -68h3q1 17 7 38.5t8 29.5l142 459h205l-246 -710h-230l-166 454q-13 32 -16 62h-4q-3 -30 -16 -62l-166 -454h-230z" glyph-name="W" horiz-adv-x="1356" unicode="W"/>
<glyph d="M348 364l-331 346h243l181 -201q26 -28 36 -45h3q12 18 37 45l180 201h243l-329 -346l343 -364h-247l-185 207q-36 41 -43 53h-2q-11 -18 -43 -53l-187 -207h-243z" glyph-name="X" horiz-adv-x="958" unicode="X"/>
<glyph d="M345 241l-354 469h229l205 -289q20 -27 24 -39h2q4 15 23 39l213 289h217l-357 -469v-241h-202v241z" glyph-name="Y" horiz-adv-x="895" unicode="Y"/>
<glyph d="M556 571h-488v139h756v-131l-504 -440h523v-139h-791v131z" glyph-name="Z" horiz-adv-x="880" unicode="Z"/>
<glyph d="M92 763h333v-120h-161v-643h161v-120h-333v883z" glyph-name="bracketleft" horiz-adv-x="436" unicode="["/>
<glyph d="M42 760h183l465 -877h-183z" glyph-name="backslash" horiz-adv-x="732" unicode="\"/>
<glyph d="M11 -120v120h161v643h-161v120h333v-883h-333z" glyph-name="bracketright" horiz-adv-x="436" unicode="]"/>
<glyph d="M373 708l192 -267h-157l-115 166l-116 -166h-157l193 267h160z" glyph-name="asciicircum" horiz-adv-x="585" unicode="^"/>
<glyph d="M675 -79v-103h-675v103h675z" glyph-name="underscore" horiz-adv-x="675" unicode="_"/>
<glyph d="M189 573l-198 157h196l164 -157h-162z" glyph-name="grave" horiz-adv-x="600" unicode="`"/>
<glyph d="M110.5 22q-65.5 41 -65.5 116t63 114q30 19 75.5 30t120.5 15l262 15v12q0 41 -37.5 62.5t-105.5 21.5t-109.5 -20.5t-49.5 -58.5h-205q10 57 58 100t127 66.5t179 23.5q173 0 255 -56t82 -169v-138q0 -96 9 -156h-192q-5 30 -7 92q-30 -53 -101 -82t-174 -29 q-119 0 -184.5 41zM512.5 121.5q55.5 33.5 55.5 90.5v17l-201 -14q-68 -5 -95.5 -19.5t-27.5 -44.5q0 -31 32 -47t91 -16q90 0 145.5 33.5z" glyph-name="a" horiz-adv-x="834" unicode="a"/>
<glyph d="M380 9q-67 28 -106 77l-14 -86h-173v725h192v-307q43 49 111.5 75t153.5 26q92 0 163 -33t110 -93t39 -138q0 -81 -40.5 -143t-114.5 -96.5t-169 -34.5q-85 0 -152 28zM604.5 145q51.5 41 51.5 109q0 65 -50.5 104t-135.5 39q-57 0 -102.5 -17.5t-70.5 -48.5t-25 -71v-12 q0 -65 53.5 -104.5t141.5 -39.5q86 0 137.5 41z" glyph-name="b" horiz-adv-x="880" unicode="b"/>
<glyph d="M204.5 14q-86.5 33 -133.5 94.5t-47 143.5t46.5 142.5t133.5 92.5t206 32q152 0 248.5 -50.5t121.5 -143.5l-203 -27q-15 45 -59.5 69t-113.5 24q-84 0 -132 -37t-48 -101t49.5 -103.5t130.5 -39.5q71 0 115 24t59 70l202 -30q-24 -89 -124 -141t-248 -52 q-117 0 -203.5 33z" glyph-name="c" horiz-adv-x="807" unicode="c"/>
<glyph d="M175.5 15q-71.5 34 -111.5 96t-40 142q0 78 40.5 138.5t113.5 94t168 33.5q85 0 147.5 -23t107.5 -70v299h192v-725h-187v98q-41 -56 -109 -86.5t-158 -30.5q-92 0 -163.5 34zM511 122q44 18 69 50t25 73v12q0 41 -25 73t-70.5 49.5t-102.5 17.5q-85 0 -134 -38.5 t-49 -106.5t50.5 -108t136.5 -40q56 0 100 18z" glyph-name="d" horiz-adv-x="880" unicode="d"/>
<glyph d="M767 209h-558q11 -51 62.5 -79t136.5 -28q63 0 114.5 19.5t79.5 54.5l146 -64q-52 -64 -140 -97.5t-208 -33.5q-117 0 -201.5 31.5t-129.5 91.5t-45 143q0 85 46 146t129.5 93.5t195.5 32.5q117 0 200.5 -34t127.5 -97.5t44 -151.5v-27zM576 308q-2 47 -52.5 77 t-129.5 30t-128 -29t-58 -79h368v1z" glyph-name="e" horiz-adv-x="795" unicode="e"/>
<glyph d="M581 379h-220v-379h-193v379h-153v121h153v19q0 110 71 163t217 53q62 0 125 -12v-129q-49 10 -108 10q-62 0 -87 -19.5t-25 -67.5v-17h220v-121z" glyph-name="f" horiz-adv-x="596" unicode="f"/>
<glyph d="M743 475q-46 0 -72 -14q65 -43 65 -114q0 -83 -88.5 -130t-246.5 -47q-97 0 -168 18q-29 -9 -29 -30q0 -34 61 -34l320 -1q111 -1 163 -37t52 -111q0 -98 -100 -143.5t-319 -45.5q-179 0 -263 29.5t-84 91.5q0 33 22 54.5t69 32.5q-38 15 -59.5 40t-21.5 57q0 44 33.5 74 t94.5 44q-52 23 -79 58t-27 80q0 82 87.5 127t247.5 45q113 0 191 -23q13 48 55.5 72.5t107.5 24.5q25 0 48 -4v-120q-27 6 -60 6zM503.5 283.5q36.5 22.5 36.5 63.5q0 40 -35.5 60.5t-103.5 20.5q-67 0 -103 -20.5t-36 -60.5q0 -41 36.5 -63.5t102.5 -22.5t102.5 22.5z M225 -22q-18 0 -26 1q-21 -17 -21 -39q0 -38 52 -53.5t167 -15.5q95 0 147 6t73 19.5t21 38.5q0 22 -17.5 32.5t-55.5 10.5h-340z" glyph-name="g" horiz-adv-x="830" unicode="g"/>
<glyph d="M87 725h192v-332q35 60 102.5 93t156.5 33q137 0 210.5 -76.5t73.5 -218.5v-224h-192v204q0 88 -43.5 134t-127.5 46t-132 -46t-48 -128v-210h-192v725z" glyph-name="h" horiz-adv-x="887" unicode="h"/>
<glyph d="M82 500h192v-500h-192v500zM77 727h203v-154h-203v154z" glyph-name="i" horiz-adv-x="356" unicode="i"/>
<glyph d="M-38 -202v137q23 -4 61 -4q36 0 53.5 23.5t17.5 77.5v468h192v-493q0 -109 -55 -163.5t-183 -54.5q-58 0 -86 9zM85 727h203v-154h-203v154z" glyph-name="j" horiz-adv-x="368" unicode="j"/>
<glyph d="M428 232l-149 -104v-128h-192v725h192v-433l282 208h254l-240 -177l250 -323h-220z" glyph-name="k" horiz-adv-x="845" unicode="k"/>
<glyph d="M279 0h-192v725h192v-725z" glyph-name="l" horiz-adv-x="366" unicode="l"/>
<glyph d="M271 500v-111q28 63 86 96.5t139 33.5t138 -33t85 -97q36 63 99 96.5t145 33.5q122 0 186.5 -68.5t64.5 -198.5v-252h-192v227q0 74 -34 113t-99 39q-68 0 -106.5 -41t-38.5 -113v-225h-192v226q0 153 -133 153q-68 0 -106.5 -41.5t-38.5 -116.5v-221h-192v500h189z" glyph-name="m" horiz-adv-x="1279" unicode="m"/>
<glyph d="M82 500h189v-116q35 65 103 100t163 35q137 0 208.5 -72t71.5 -210v-237h-192v208q0 88 -41 130.5t-125 42.5q-88 0 -136.5 -45.5t-48.5 -128.5v-207h-192v500z" glyph-name="n" horiz-adv-x="882" unicode="n"/>
<glyph d="M208 14q-88 33 -136 94t-48 142t48 142t135.5 94t203.5 33t203.5 -33t136 -94t48.5 -142t-48.5 -141.5t-136 -94t-203.5 -33.5q-115 0 -203 33zM547.5 143.5q51.5 39.5 51.5 106.5t-51.5 106.5t-136.5 39.5t-136.5 -39.5t-51.5 -106.5t51.5 -106.5t136.5 -39.5 t136.5 39.5z" glyph-name="o" horiz-adv-x="822" unicode="o"/>
<glyph d="M82 500h189v-87q41 52 110.5 79t154.5 27q94 0 165.5 -33.5t110.5 -93.5t39 -139q0 -80 -41 -142t-114 -96t-166 -34q-83 0 -149.5 26.5t-106.5 71.5v-274h-192v695zM600.5 144.5q50.5 40.5 50.5 109.5q0 66 -49 104.5t-136 38.5q-57 0 -101.5 -17.5t-69.5 -49t-25 -71.5 v-10q0 -65 53.5 -105t139.5 -40q87 0 137.5 40.5z" glyph-name="p" horiz-adv-x="875" unicode="p"/>
<glyph d="M601 81q-40 -45 -105.5 -72.5t-150.5 -27.5q-94 0 -167 34.5t-113.5 96.5t-40.5 142q0 79 39.5 139t111 93t165.5 33q86 0 155 -27t110 -78l4 86h184v-695h-192v276zM549.5 144.5q49.5 40.5 49.5 105.5v11q0 60 -51 98t-140 38q-87 0 -138.5 -37t-51.5 -104v-1 q0 -70 53 -110.5t141 -40.5t137.5 40.5z" glyph-name="q" horiz-adv-x="875" unicode="q"/>
<glyph d="M332.5 471q60.5 44 146.5 44q32 0 65 -5v-164q-42 8 -80 8q-90 0 -138 -45q-52 -49 -52 -147v-162h-192v500h169v-148q21 75 81.5 119z" glyph-name="r" horiz-adv-x="561" unicode="r"/>
<glyph d="M175 9q-95 28 -155 85l93 88q48 -44 122.5 -65.5t186.5 -21.5q67 0 96.5 11t29.5 36q0 19 -14.5 27t-52.5 12l-218 19q-108 11 -159.5 48t-51.5 106q0 82 81.5 123.5t241.5 41.5q223 0 340 -86l-78 -92q-51 35 -117 50.5t-162 15.5q-68 0 -98.5 -10t-30.5 -33 q0 -18 16 -26.5t53 -12.5l222 -19q110 -10 157.5 -44t47.5 -103q0 -87 -79.5 -132.5t-241.5 -45.5q-134 0 -229 28z" glyph-name="s" horiz-adv-x="758" unicode="s"/>
<glyph d="M4 500h147v117l192 68v-185h226v-121h-226v-145q0 -54 30 -78.5t93 -24.5q55 0 103 12v-135q-52 -22 -152 -22q-132 0 -199 51.5t-67 158.5v183h-147v121z" glyph-name="t" horiz-adv-x="607" unicode="t"/>
<glyph d="M135 45q-71 64 -71 184v271h193v-225q0 -84 41.5 -122t112.5 -38q91 0 138.5 49.5t47.5 122.5v213h192v-500h-189v117q-33 -66 -103.5 -101t-161.5 -35q-129 0 -200 64z" glyph-name="u" horiz-adv-x="871" unicode="u"/>
<glyph d="M-6 500h210l162 -298q15 -30 26 -56h5q11 26 26 56l162 298h210l-292 -500h-217z" glyph-name="v" horiz-adv-x="789" unicode="v"/>
<glyph d="M12 500h193l110 -305q8 -27 13 -54h2q3 23 15 54l127 305h195l126 -305q12 -31 15 -54h2q5 27 13 54l110 305h193l-207 -500h-209l-122 288q-14 34 -17 61h-4q-3 -27 -17 -61l-121 -288h-210z" glyph-name="w" horiz-adv-x="1138" unicode="w"/>
<glyph d="M266 255l-253 245h236l115 -115q23 -25 35 -47h2q12 22 35 47l116 115h224l-249 -241l266 -259h-239l-128 122q-23 23 -37 46h-1q-15 -25 -38 -46l-127 -122h-219z" glyph-name="x" horiz-adv-x="797" unicode="x"/>
<glyph d="M49 -203v143q54 -10 95 -10q44 0 87.5 16.5t64.5 44.5l2 6l-304 503h215l158 -299q17 -34 25 -57h4q5 13 24 54l152 302h207l-291 -524q-54 -101 -128.5 -145.5t-191.5 -44.5q-64 0 -119 11z" glyph-name="y" horiz-adv-x="773" unicode="y"/>
<glyph d="M442 382h-382v118h630v-118l-395 -264h411v-118h-661v121z" glyph-name="z" horiz-adv-x="740" unicode="z"/>
<glyph d="M159.5 -84q-46.5 36 -46.5 120v148q0 31 -6 49.5t-27 30t-65 12.5v106q44 1 65 11t26.5 27t5.5 50v135q0 77 50 118t146 41h111v-121h-55q-41 0 -60 -18t-19 -60v-93q0 -56 -22 -92t-80 -50q58 -16 80 -54.5t22 -94.5v-111q0 -41 19 -55.5t60 -14.5h55v-120h-108 q-105 0 -151.5 36z" glyph-name="braceleft" horiz-adv-x="430" unicode="{"/>
<glyph d="M87 760h113v-877h-113v877z" glyph-name="bar" horiz-adv-x="287" unicode="|"/>
<glyph d="M11 -120v120h55q41 0 60 14.5t19 55.5v111q0 56 22 94.5t80 54.5q-58 14 -80 50t-22 92v93q0 42 -19 60t-60 18h-55v121h111q96 0 146 -41t50 -118v-135q0 -33 5.5 -50t26.5 -27t65 -11v-106q-44 -1 -65 -12.5t-27 -30t-6 -49.5v-148q0 -84 -46.5 -120t-151.5 -36h-108z " glyph-name="braceright" horiz-adv-x="430" unicode="}"/>
<glyph d="M448.5 228q-28.5 10 -61.5 28q-28 15 -46 22t-40 7q-35 0 -56 -17t-26 -50l-115 28q12 72 61.5 109t122.5 37q40 0 69 -10t66 -29q27 -15 44.5 -21.5t38.5 -6.5q65 0 78 71l114 -21q-11 -80 -62 -118.5t-121 -38.5q-38 0 -66.5 10z" glyph-name="asciitilde" unicode="~"/>
<glyph glyph-name="uni00A0" horiz-adv-x="406" unicode=" "/>
<glyph d="M95 424v156h219v-156h-219zM287 343l27 -488h-219l27 488h165z" glyph-name="exclamdown" horiz-adv-x="409" unicode="¡"/>
<glyph d="M602 204l184 -30q-23 -83 -112.5 -134t-224.5 -58v-86h-72v86q-108 4 -188 38t-122.5 93.5t-42.5 137.5t42.5 136.5t122 92t188.5 38.5v75h72v-75q138 -6 225.5 -56t112.5 -138l-186 -25q-14 44 -52.5 70t-99.5 32v-298q125 12 153 101zM252 148.5q46 -39.5 125 -46.5 v300q-80 -7 -125.5 -47t-45.5 -104q0 -63 46 -102.5z" glyph-name="cent" horiz-adv-x="813" unicode="¢"/>
<glyph d="M846 190q-17 -98 -88 -154t-179 -56q-50 0 -134 10q-92 12 -162 12q-110 0 -238 -19l-32 93q146 39 146 164q0 34 -7 71h-108v91h86q-8 35 -8 73q0 74 41 128t117.5 83t181.5 29q148 0 235 -48t110 -142l-186 -34q-12 45 -52 69t-104 24q-152 0 -152 -109q0 -33 9 -73 h249v-91h-227q4 -32 4 -51q0 -97 -96 -135q50 10 98 10q24 0 97 -5q50 -5 95 -5q49 0 79.5 22.5t37.5 65.5z" glyph-name="sterling" horiz-adv-x="853" unicode="£"/>
<glyph d="M602 157l64 -56l-71 -68l-77 66q-70 -32 -166 -32q-102 0 -180 38l-76 -67l-72 68l69 61q-47 58 -47 136q0 80 48 137l-70 61l72 68l78 -67q74 37 178 37q99 0 172 -34l77 65l72 -68l-67 -58q51 -59 51 -141q0 -85 -55 -146zM470.5 214q43.5 33 43.5 89q0 54 -43.5 86.5 t-118.5 32.5t-119 -32.5t-44 -86.5q0 -56 44 -89t119 -33t118.5 33z" glyph-name="currency" horiz-adv-x="696" unicode="¤"/>
<glyph d="M586 303h264v-70h-289v-58h289v-71h-289v-104h-199v104h-282v71h282v58h-282v70h257l-346 392h225l180 -211q30 -36 67 -89h3q37 54 68 89l184 211h214z" glyph-name="yen" horiz-adv-x="923" unicode="¥"/>
<glyph d="M199 385h-112v375h112v-375zM199 -117h-112v381h112v-381z" glyph-name="brokenbar" horiz-adv-x="286" unicode="¦"/>
<glyph d="M676 78q0 -62 -41.5 -107.5t-119 -69.5t-184.5 -24q-115 0 -200 28.5t-131 84.5l99 84q39 -40 103.5 -60t151.5 -20q72 0 105 15.5t33 47.5q0 26 -17.5 39t-60.5 18l-193 22q-107 13 -155.5 48.5t-48.5 102.5q0 78 85 120q-33 19 -48.5 48t-15.5 71q0 58 40 100.5 t113.5 65.5t173.5 23q99 0 179 -23.5t128 -67.5l-93 -86q-87 63 -230 63q-66 0 -97.5 -13.5t-31.5 -42.5q0 -25 16 -36.5t58 -16.5l199 -22q108 -11 155 -47t47 -106q0 -77 -74 -122q55 -38 55 -117zM486 236h4q29 16 29 49q0 29 -21 42.5t-76 20.5l-184 22q-24 -9 -35 -22 t-11 -32q0 -25 21.5 -37.5t76.5 -20.5z" glyph-name="section" horiz-adv-x="728" unicode="§"/>
<glyph d="M44 722h181v-143h-181v143zM375 722h181v-143h-181v143z" glyph-name="dieresis" horiz-adv-x="600" unicode="¨"/>
<glyph d="M230.5 21.5q-100.5 45.5 -155 131t-54.5 202.5t54.5 202.5t155 131t234.5 45.5t234.5 -45.5t155 -131t54.5 -202.5t-54.5 -202.5t-155 -131t-234.5 -45.5t-234.5 45.5zM660.5 77q84.5 38 131 109.5t46.5 168.5t-46.5 168.5t-131 109.5t-195.5 38q-110 0 -194.5 -38 t-131.5 -109.5t-47 -168.5t47 -168.5t131.5 -109.5t194.5 -38q111 0 195.5 38zM278 198.5q-70 58.5 -70 156.5t69.5 156.5t196.5 58.5q108 0 174 -41t79 -110l-142 -20q-7 33 -36.5 53t-76.5 20q-56 0 -90.5 -32t-34.5 -85q0 -52 34 -83.5t91 -31.5q47 0 76.5 19.5 t36.5 52.5l143 -20q-15 -68 -80 -110t-173 -42q-127 0 -197 58.5z" glyph-name="copyright" horiz-adv-x="930" unicode="©"/>
<glyph d="M90 326q-48 30 -48 86q0 60 50 85t139 30l181 11v9q0 60 -88 60q-41 0 -67 -13t-32 -38h-173q12 62 86 98t186 36q133 0 193.5 -42t60.5 -128v-104q0 -56 6 -106h-163q-3 22 -5 65q-17 -36 -68 -57.5t-121 -21.5q-89 0 -137 30zM379.5 402.5q35.5 22.5 35.5 59.5v16 l-129 -10q-43 -3 -62 -13.5t-19 -29.5q0 -21 22.5 -33t60.5 -12q56 0 91.5 22.5z" glyph-name="ordfeminine" horiz-adv-x="642" unicode="ª"/>
<glyph d="M24 276l247 206h182l-244 -205l241 -210h-184zM343 276l247 206h182l-244 -205l241 -210h-184z" glyph-name="guillemotleft" horiz-adv-x="789" unicode="«"/>
<glyph d="M685 387v-265h-118v154h-451v111h569z" glyph-name="logicalnot" unicode="¬"/>
<glyph d="M699.5 688.5q100.5 -45.5 155 -131t54.5 -202.5t-54.5 -202.5t-155 -131t-234.5 -45.5t-234.5 45.5t-155 131t-54.5 202.5t54.5 202.5t155 131t234.5 45.5t234.5 -45.5zM660.5 77q84.5 38 131 109.5t46.5 168.5t-46.5 168.5t-131 109.5t-195.5 38q-110 0 -194.5 -38 t-131.5 -109.5t-47 -168.5t47 -168.5t131.5 -109.5t194.5 -38q111 0 195.5 38zM695.5 352q-25.5 -32 -73.5 -46l101 -150h-149l-83 136h-101v-136h-131v406h300q78 0 120 -34t42 -97q0 -47 -25.5 -79zM390 374h128q67 0 67 54q0 24 -16.5 37t-49.5 13h-129v-104z" glyph-name="registered" horiz-adv-x="930" unicode="®"/>
<glyph d="M56 697h497v-104h-497v104z" glyph-name="macron" horiz-adv-x="600" unicode="¯"/>
<glyph d="M137 297q-54 28 -84.5 78.5t-30.5 117.5t30.5 118t84.5 78.5t120 27.5q67 0 120.5 -27.5t84.5 -78.5t31 -118t-31 -117.5t-84.5 -78.5t-120.5 -28q-66 0 -120 28zM349.5 401.5q35.5 34.5 35.5 91.5t-35.5 91.5t-92.5 34.5q-56 0 -91.5 -34.5t-35.5 -91.5t35.5 -91.5 t91.5 -34.5q57 0 92.5 34.5z" glyph-name="degree" horiz-adv-x="515" unicode="°"/>
<glyph d="M710 409v-117h-246v-152h-127v152h-244v117h244v153h127v-153h246zM93 107h617v-107h-617v107z" glyph-name="plusminus" unicode="±"/>
<glyph d="M207 730h196l-198 -157h-161z" glyph-name="acute" horiz-adv-x="600" unicode="´"/>
<glyph d="M807 500v-500h-189v117q-34 -67 -104 -101.5t-162 -34.5q-49 0 -95 11v-187h-175v695h192v-225q0 -84 42 -122t112 -38q92 0 139 49t47 123v213h193z" glyph-name="uni00B5" horiz-adv-x="889" unicode="µ"/>
<glyph d="M131 370.5q-76 47.5 -76 149.5q0 98 82 149t246 51h458v-90h-123v-730h-100v730h-155v-730h-101v423q-155 0 -231 47.5z" glyph-name="paragraph" horiz-adv-x="891" unicode="¶"/>
<glyph d="M275 255h-209v164h209v-164z" glyph-name="periodcentered" horiz-adv-x="341" unicode="·"/>
<glyph d="M235 3l-48 -60q31 16 77 16q62 0 96.5 -24.5t34.5 -67.5q0 -46 -46 -71t-128 -25q-113 0 -156 57l92 28q21 -24 65 -24q25 0 38.5 9t13.5 26t-13 26t-37 9q-35 0 -52 -16l-94 18l67 99h90z" glyph-name="cedilla" horiz-adv-x="600" unicode="¸"/>
<glyph d="M163.5 320q-66.5 24 -102.5 68.5t-36 104.5q0 59 36.5 104t102.5 69t154 24t153.5 -24t101.5 -69t36 -104q0 -60 -36 -104.5t-101.5 -68.5t-153.5 -24t-154.5 24zM406 421q34 27 34 72q0 44 -34 71t-88 27q-56 0 -89.5 -27t-33.5 -71q0 -45 33.5 -72t89.5 -27q54 0 88 27 z" glyph-name="ordmasculine" horiz-adv-x="634" unicode="º"/>
<glyph d="M20 67l241 210l-244 205h182l246 -206l-241 -209h-184zM339 67l241 210l-244 205h182l247 -206l-242 -209h-184z" glyph-name="guillemotright" horiz-adv-x="789" unicode="»"/>
<glyph d="M155 568q-16 -12 -43.5 -18.5t-58.5 -6.5h-30v99h17q97 0 131 68h101v-393h-117v251zM696 727h159l-585 -744h-159zM994 82v-82h-116v82h-302v74l282 237h136v-231h89v-80h-89zM701 162h177v152z" glyph-name="onequarter" horiz-adv-x="1099" unicode="¼"/>
<glyph d="M155 568q-16 -12 -43.5 -18.5t-58.5 -6.5h-30v99h17q97 0 131 68h101v-393h-117v251zM696 727h159l-585 -744h-159zM644 83q122 37 184.5 59.5t105.5 51.5t43 64q0 29 -27 46t-73 17t-75 -19t-29 -55q0 -11 3 -20l-123 12q-3 12 -3 22q0 44 30 77t81.5 51t115.5 18 q104 0 165 -36.5t61 -104.5q0 -66 -65.5 -107t-167.5 -67h242v-92h-468v83z" glyph-name="onehalf" horiz-adv-x="1151" unicode="½"/>
<glyph d="M95.5 340q-61.5 37 -67.5 104l119 11q7 -35 35.5 -51t81.5 -16q110 0 110 47q0 23 -22 32.5t-77 9.5h-60v76h62q44 0 65.5 9.5t21.5 30.5q0 47 -99 47q-55 0 -83 -17t-32 -52l-118 13q5 66 66 103t168 37q101 0 161 -31t60 -88q0 -38 -28.5 -60t-76.5 -26q60 -7 88 -29 t28 -62q0 -58 -64 -91.5t-170 -33.5q-107 0 -168.5 37zM878 727h159l-585 -744h-159zM1175 82v-82h-116v82h-302v74l282 237h136v-231h89v-80h-89zM882 162h177v152z" glyph-name="threequarters" horiz-adv-x="1281" unicode="¾"/>
<glyph d="M522 424h-215v156h215v-156zM507 348q0 -51 -22 -85.5t-77 -55.5l-95 -38q-45 -18 -65.5 -39.5t-20.5 -58.5q0 -41 43.5 -69t124.5 -28q85 0 135.5 32t50.5 91q0 27 -5 46l198 -17q6 -18 6 -47q0 -70 -47 -123t-134 -81.5t-204 -28.5q-111 0 -193.5 25.5t-127.5 73.5 t-45 114q0 69 36.5 111t104.5 70l91 38q36 15 49.5 33.5t13.5 45.5v21h183v-30z" glyph-name="questiondown" horiz-adv-x="802" unicode="¿"/>
<glyph d="M403 760l-180 118h196l151 -118h-167zM689 143h-396l-66 -143h-217l355 710h252l354 -710h-216zM629 272l-91 195q-10 24 -23 57.5t-23 64.5h-2q-10 -31 -23 -64.5t-23 -57.5l-91 -195h276z" glyph-name="Agrave" horiz-adv-x="982" unicode="À"/>
<glyph d="M574 760h-167l151 118h196zM689 143h-396l-66 -143h-217l355 710h252l354 -710h-216zM629 272l-91 195q-10 24 -23 57.5t-23 64.5h-2q-10 -31 -23 -64.5t-23 -57.5l-91 -195h276z" glyph-name="Aacute" horiz-adv-x="982" unicode="Á"/>
<glyph d="M402 760h-164l152 118h201l153 -118h-165l-88 65zM689 143h-396l-66 -143h-217l355 710h252l354 -710h-216zM629 272l-91 195q-10 24 -23 57.5t-23 64.5h-2q-10 -31 -23 -64.5t-23 -57.5l-91 -195h276z" glyph-name="Acircumflex" horiz-adv-x="982" unicode="Â"/>
<glyph d="M332 751l-99 40q17 58 56.5 86t104.5 28q35 0 60.5 -7t56.5 -21q25 -11 40.5 -16t34.5 -5q27 0 43.5 12.5t23.5 40.5l99 -41q-17 -57 -56.5 -85t-104.5 -28q-35 0 -61 7.5t-57 21.5q-28 11 -42 15.5t-32 4.5q-53 0 -67 -53zM689 143h-396l-66 -143h-217l355 710h252 l354 -710h-216zM629 272l-91 195q-10 24 -23 57.5t-23 64.5h-2q-10 -31 -23 -64.5t-23 -57.5l-91 -195h276z" glyph-name="Atilde" horiz-adv-x="982" unicode="Ã"/>
<glyph d="M418 760h-181v118h181v-118zM746 760h-181v118h181v-118zM689 143h-396l-66 -143h-217l355 710h252l354 -710h-216zM629 272l-91 195q-10 24 -23 57.5t-23 64.5h-2q-10 -31 -23 -64.5t-23 -57.5l-91 -195h276z" glyph-name="Adieresis" horiz-adv-x="982" unicode="Ä"/>
<glyph d="M386 774.5q-40 32.5 -40 85.5t40 85.5t105 32.5t105.5 -32.5t40.5 -85.5t-40.5 -85.5t-105.5 -32.5t-105 32.5zM448.5 899q-16.5 -15 -16.5 -39q0 -23 16.5 -38t42.5 -15t42.5 15t16.5 38q0 24 -16.5 39t-42.5 15t-42.5 -15zM689 143h-396l-66 -143h-217l355 710h252 l354 -710h-216zM629 272l-91 195q-10 24 -23 57.5t-23 64.5h-2q-10 -31 -23 -64.5t-23 -57.5l-91 -195h276z" glyph-name="Aring" horiz-adv-x="982" unicode="Å"/>
<glyph d="M1423 141v-141h-741v142h-340l-110 -142h-230l593 710h821v-141h-532v-143h515v-132h-515v-153h539zM682 268v314l-243 -314h243z" glyph-name="AE" horiz-adv-x="1487" unicode="Æ"/>
<glyph d="M648.5 165.5q60.5 36.5 83.5 107.5l206 -44q-41 -113 -146 -178t-260 -74l-27 -34q31 16 77 16q62 0 96.5 -24.5t34.5 -67.5q0 -46 -46 -71t-128 -25q-113 0 -156 57l92 28q21 -24 65 -24q25 0 38.5 9t13.5 26t-13 26t-37 9q-35 0 -52 -16l-94 18l49 73q-129 7 -225 55 t-147.5 130t-51.5 190q0 111 60 198t167.5 135.5t245.5 48.5q115 0 207 -32t153.5 -92t84.5 -142l-209 -37q-20 73 -81 111.5t-157 38.5q-120 0 -189.5 -61t-69.5 -165q0 -68 32 -119t91 -79t138 -28q94 0 154.5 36.5z" glyph-name="Ccedilla" horiz-adv-x="966" unicode="Ç"/>
<glyph d="M377 760l-180 118h196l151 -118h-167zM816 141v-141h-724v710h717v-141h-515v-143h498v-132h-498v-153h522z" glyph-name="Egrave" horiz-adv-x="880" unicode="È"/>
<glyph d="M547 760h-167l151 118h196zM816 141v-141h-724v710h717v-141h-515v-143h498v-132h-498v-153h522z" glyph-name="Eacute" horiz-adv-x="880" unicode="É"/>
<glyph d="M376 760h-164l152 118h201l153 -118h-165l-88 65zM816 141v-141h-724v710h717v-141h-515v-143h498v-132h-498v-153h522z" glyph-name="Ecircumflex" horiz-adv-x="880" unicode="Ê"/>
<glyph d="M391 760h-181v118h181v-118zM719 760h-181v118h181v-118zM816 141v-141h-724v710h717v-141h-515v-143h498v-132h-498v-153h522z" glyph-name="Edieresis" horiz-adv-x="880" unicode="Ë"/>
<glyph d="M109 760l-127 118h180l112 -118h-165zM92 0v710h202v-710h-202z" glyph-name="Igrave" horiz-adv-x="385" unicode="Ì"/>
<glyph d="M222 878h180l-127 -118h-165zM92 0v710h202v-710h-202z" glyph-name="Iacute" horiz-adv-x="385" unicode="Í"/>
<glyph d="M238 760l-45 74l-44 -74h-120l79 119h171l79 -119h-120zM92 0v710h202v-710h-202z" glyph-name="Icircumflex" horiz-adv-x="385" unicode="Î"/>
<glyph d="M22 878h150v-118h-150v118zM214 878h150v-118h-150v118zM92 0v710h202v-710h-202z" glyph-name="Idieresis" horiz-adv-x="385" unicode="Ï"/>
<glyph d="M770.5 670.5q96.5 -39.5 148.5 -117t52 -186.5t-54.5 -192.5t-152.5 -129t-224 -45.5h-448v308h-80v114h80v288h451q131 0 227.5 -39.5zM693.5 197q65.5 60 65.5 167q0 101 -67 155t-180 54h-218v-151h247v-114h-247v-171h220q114 0 179.5 60z" glyph-name="Eth" horiz-adv-x="992" unicode="Ð"/>
<glyph d="M551 762.5q-26 7.5 -57 21.5q-28 11 -42 15.5t-32 4.5q-53 0 -67 -53l-99 40q17 58 56.5 86t104.5 28q35 0 60.5 -7t56.5 -21q25 -11 40.5 -16t34.5 -5q27 0 43.5 12.5t23.5 40.5l99 -41q-17 -57 -56.5 -85t-104.5 -28q-35 0 -61 7.5zM92 710h215l371 -403q34 -38 56 -81 h4v102v382h183v-710h-201l-385 408q-16 17 -32.5 40.5t-23.5 40.5h-4v-99v-390h-183v710z" glyph-name="Ntilde" horiz-adv-x="1012" unicode="Ñ"/>
<glyph d="M409 760l-180 118h196l151 -118h-167zM246 23q-108 47 -166.5 132.5t-58.5 199.5t58.5 200t166.5 132.5t251 46.5t250.5 -47t166.5 -132.5t59 -199.5t-59 -199.5t-166.5 -132.5t-250.5 -47t-251 47zM635 154.5q60 28.5 93 80.5t33 120t-33 120t-93 80.5t-138 28.5 t-138 -28.5t-93 -80.5t-33 -120t33 -120t93 -80.5t138 -28.5t138 28.5z" glyph-name="Ograve" horiz-adv-x="994" unicode="Ò"/>
<glyph d="M564 878h196l-180 -118h-167zM246 23q-108 47 -166.5 132.5t-58.5 199.5t58.5 200t166.5 132.5t251 46.5t250.5 -47t166.5 -132.5t59 -199.5t-59 -199.5t-166.5 -132.5t-250.5 -47t-251 47zM635 154.5q60 28.5 93 80.5t33 120t-33 120t-93 80.5t-138 28.5t-138 -28.5 t-93 -80.5t-33 -120t33 -120t93 -80.5t138 -28.5t138 28.5z" glyph-name="Oacute" horiz-adv-x="994" unicode="Ó"/>
<glyph d="M585 760l-88 65l-89 -65h-164l152 118h201l153 -118h-165zM246 23q-108 47 -166.5 132.5t-58.5 199.5t58.5 200t166.5 132.5t251 46.5t250.5 -47t166.5 -132.5t59 -199.5t-59 -199.5t-166.5 -132.5t-250.5 -47t-251 47zM635 154.5q60 28.5 93 80.5t33 120t-33 120 t-93 80.5t-138 28.5t-138 -28.5t-93 -80.5t-33 -120t33 -120t93 -80.5t138 -28.5t138 28.5z" glyph-name="Ocircumflex" horiz-adv-x="994" unicode="Ô"/>
<glyph d="M536 762.5q-26 7.5 -57 21.5q-28 11 -42 15.5t-32 4.5q-53 0 -67 -53l-99 40q17 58 56.5 86t104.5 28q35 0 60.5 -7t56.5 -21q25 -11 40.5 -16t34.5 -5q27 0 43.5 12.5t23.5 40.5l99 -41q-17 -57 -56.5 -85t-104.5 -28q-35 0 -61 7.5zM246 23q-108 47 -166.5 132.5 t-58.5 199.5t58.5 200t166.5 132.5t251 46.5t250.5 -47t166.5 -132.5t59 -199.5t-59 -199.5t-166.5 -132.5t-250.5 -47t-251 47zM635 154.5q60 28.5 93 80.5t33 120t-33 120t-93 80.5t-138 28.5t-138 -28.5t-93 -80.5t-33 -120t33 -120t93 -80.5t138 -28.5t138 28.5z" glyph-name="Otilde" horiz-adv-x="994" unicode="Õ"/>
<glyph d="M243 878h181v-118h-181v118zM571 878h181v-118h-181v118zM246 23q-108 47 -166.5 132.5t-58.5 199.5t58.5 200t166.5 132.5t251 46.5t250.5 -47t166.5 -132.5t59 -199.5t-59 -199.5t-166.5 -132.5t-250.5 -47t-251 47zM635 154.5q60 28.5 93 80.5t33 120t-33 120 t-93 80.5t-138 28.5t-138 -28.5t-93 -80.5t-33 -120t33 -120t93 -80.5t138 -28.5t138 28.5z" glyph-name="Odieresis" horiz-adv-x="994" unicode="Ö"/>
<glyph d="M489 325l208 -178l-84 -78l-212 182l-212 -181l-84 77l208 178l-208 179l85 77l211 -181l211 181l86 -77z" glyph-name="multiply" unicode="×"/>
<glyph d="M943.5 501q29.5 -67 29.5 -146q0 -114 -59 -199.5t-166.5 -132.5t-250.5 -47q-172 0 -293 68l-82 -72l-63 55l76 66q-55 49 -84.5 116t-29.5 146q0 114 58.5 200t166.5 132.5t251 46.5q171 0 293 -67l80 70l64 -54l-75 -66q55 -49 84.5 -116zM278 219l374 327 q-64 38 -155 38q-78 0 -138 -28.5t-93 -80.5t-33 -120q0 -80 45 -136zM635 154.5q60 28.5 93 80.5t33 120q0 80 -45 137l-375 -328q67 -38 156 -38q78 0 138 28.5z" glyph-name="Oslash" horiz-adv-x="994" unicode="Ø"/>
<glyph d="M393 760l-180 118h196l151 -118h-167zM265 710v-371q0 -92 56.5 -148.5t159.5 -56.5q67 0 115.5 26t74 72.5t25.5 106.5v371h202v-392q0 -102 -49 -179.5t-142.5 -120t-225.5 -42.5t-226 43t-143 120.5t-49 180.5v390h202z" glyph-name="Ugrave" horiz-adv-x="961" unicode="Ù"/>
<glyph d="M548 878h196l-180 -118h-167zM265 710v-371q0 -92 56.5 -148.5t159.5 -56.5q67 0 115.5 26t74 72.5t25.5 106.5v371h202v-392q0 -102 -49 -179.5t-142.5 -120t-225.5 -42.5t-226 43t-143 120.5t-49 180.5v390h202z" glyph-name="Uacute" horiz-adv-x="961" unicode="Ú"/>
<glyph d="M569 760l-88 65l-89 -65h-164l152 118h201l153 -118h-165zM265 710v-371q0 -92 56.5 -148.5t159.5 -56.5q67 0 115.5 26t74 72.5t25.5 106.5v371h202v-392q0 -102 -49 -179.5t-142.5 -120t-225.5 -42.5t-226 43t-143 120.5t-49 180.5v390h202z" glyph-name="Ucircumflex" horiz-adv-x="961" unicode="Û"/>
<glyph d="M227 878h181v-118h-181v118zM555 878h181v-118h-181v118zM265 710v-371q0 -92 56.5 -148.5t159.5 -56.5q67 0 115.5 26t74 72.5t25.5 106.5v371h202v-392q0 -102 -49 -179.5t-142.5 -120t-225.5 -42.5t-226 43t-143 120.5t-49 180.5v390h202z" glyph-name="Udieresis" horiz-adv-x="961" unicode="Ü"/>
<glyph d="M518 878h196l-180 -118h-167zM345 241l-354 469h229l205 -289q20 -27 24 -39h2q4 15 23 39l213 289h217l-357 -469v-241h-202v241z" glyph-name="Yacute" horiz-adv-x="895" unicode="Ý"/>
<glyph d="M736.5 544q77.5 -63 77.5 -178q0 -116 -77.5 -179t-214.5 -63h-228v-124h-202v710h202v-103h228q137 0 214.5 -63zM567 286.5q34 27.5 34 78.5q0 52 -34 79.5t-100 27.5h-173v-213h173q66 0 100 27.5z" glyph-name="Thorn" horiz-adv-x="831" unicode="Þ"/>
<glyph d="M177 664.5q96 69.5 288 69.5q167 0 262.5 -50t95.5 -143q0 -67 -48 -108t-137 -51q109 -9 169 -56.5t60 -124.5q0 -105 -91 -160.5t-263 -55.5q-73 0 -149 14v124q58 -12 117 -12q184 0 184 100q0 99 -194 99h-103v114h92q78 0 119 24t41 70t-41.5 70t-121.5 24 q-96 0 -140 -36.5t-44 -116.5v-459h-192v462q0 133 96 202.5z" glyph-name="germandbls" horiz-adv-x="901" unicode="ß"/>
<glyph d="M110.5 22q-65.5 41 -65.5 116t63 114q30 19 75.5 30t120.5 15l262 15v12q0 41 -37.5 62.5t-105.5 21.5t-109.5 -20.5t-49.5 -58.5h-205q10 57 58 100t127 66.5t179 23.5q173 0 255 -56t82 -169v-138q0 -96 9 -156h-192q-5 30 -7 92q-30 -53 -101 -82t-174 -29 q-119 0 -184.5 41zM512.5 121.5q55.5 33.5 55.5 90.5v17l-201 -14q-68 -5 -95.5 -19.5t-27.5 -44.5q0 -31 32 -47t91 -16q90 0 145.5 33.5zM349 573l-198 157h196l164 -157h-162z" glyph-name="agrave" horiz-adv-x="834" unicode="à"/>
<glyph d="M110.5 22q-65.5 41 -65.5 116t63 114q30 19 75.5 30t120.5 15l262 15v12q0 41 -37.5 62.5t-105.5 21.5t-109.5 -20.5t-49.5 -58.5h-205q10 57 58 100t127 66.5t179 23.5q173 0 255 -56t82 -169v-138q0 -96 9 -156h-192q-5 30 -7 92q-30 -53 -101 -82t-174 -29 q-119 0 -184.5 41zM512.5 121.5q55.5 33.5 55.5 90.5v17l-201 -14q-68 -5 -95.5 -19.5t-27.5 -44.5q0 -31 32 -47t91 -16q90 0 145.5 33.5zM501 730h196l-198 -157h-161z" glyph-name="aacute" horiz-adv-x="834" unicode="á"/>
<glyph d="M110.5 22q-65.5 41 -65.5 116t63 114q30 19 75.5 30t120.5 15l262 15v12q0 41 -37.5 62.5t-105.5 21.5t-109.5 -20.5t-49.5 -58.5h-205q10 57 58 100t127 66.5t179 23.5q173 0 255 -56t82 -169v-138q0 -96 9 -156h-192q-5 30 -7 92q-30 -53 -101 -82t-174 -29 q-119 0 -184.5 41zM512.5 121.5q55.5 33.5 55.5 90.5v17l-201 -14q-68 -5 -95.5 -19.5t-27.5 -44.5q0 -31 32 -47t91 -16q90 0 145.5 33.5zM526 573l-102 101l-102 -101h-154l156 157h200l156 -157h-154z" glyph-name="acircumflex" horiz-adv-x="834" unicode="â"/>
<glyph d="M110.5 22q-65.5 41 -65.5 116t63 114q30 19 75.5 30t120.5 15l262 15v12q0 41 -37.5 62.5t-105.5 21.5t-109.5 -20.5t-49.5 -58.5h-205q10 57 58 100t127 66.5t179 23.5q173 0 255 -56t82 -169v-138q0 -96 9 -156h-192q-5 30 -7 92q-30 -53 -101 -82t-174 -29 q-119 0 -184.5 41zM512.5 121.5q55.5 33.5 55.5 90.5v17l-201 -14q-68 -5 -95.5 -19.5t-27.5 -44.5q0 -31 32 -47t91 -16q90 0 145.5 33.5zM470.5 592.5q-26.5 8.5 -61.5 25.5q-28 13 -44 19t-36 6q-28 0 -45 -15t-25 -48l-102 41q28 124 158 124q38 0 64.5 -8.5t61.5 -25.5 q25 -13 42.5 -19t36.5 -6q28 0 45 15t25 48l102 -41q-29 -124 -158 -124q-37 0 -63.5 8.5z" glyph-name="atilde" horiz-adv-x="834" unicode="ã"/>
<glyph d="M110.5 22q-65.5 41 -65.5 116t63 114q30 19 75.5 30t120.5 15l262 15v12q0 41 -37.5 62.5t-105.5 21.5t-109.5 -20.5t-49.5 -58.5h-205q10 57 58 100t127 66.5t179 23.5q173 0 255 -56t82 -169v-138q0 -96 9 -156h-192q-5 30 -7 92q-30 -53 -101 -82t-174 -29 q-119 0 -184.5 41zM512.5 121.5q55.5 33.5 55.5 90.5v17l-201 -14q-68 -5 -95.5 -19.5t-27.5 -44.5q0 -31 32 -47t91 -16q90 0 145.5 33.5zM169 722h181v-143h-181v143zM500 722h181v-143h-181v143z" glyph-name="adieresis" horiz-adv-x="834" unicode="ä"/>
<glyph d="M110.5 22q-65.5 41 -65.5 116t63 114q30 19 75.5 30t120.5 15l262 15v12q0 41 -37.5 62.5t-105.5 21.5t-109.5 -20.5t-49.5 -58.5h-205q10 57 58 100t127 66.5t179 23.5q173 0 255 -56t82 -169v-138q0 -96 9 -156h-192q-5 30 -7 92q-30 -53 -101 -82t-174 -29 q-119 0 -184.5 41zM512.5 121.5q55.5 33.5 55.5 90.5v17l-201 -14q-68 -5 -95.5 -19.5t-27.5 -44.5q0 -31 32 -47t91 -16q90 0 145.5 33.5zM288.5 589.5q-48.5 32.5 -48.5 88.5q0 55 48.5 88t135.5 33q88 0 136.5 -33t48.5 -88q0 -56 -48.5 -88.5t-136.5 -32.5 q-87 0 -135.5 32.5zM490.5 638q23.5 15 23.5 40t-23.5 40t-66.5 15t-66 -15t-23 -40t23 -40t66 -15t66.5 15z" glyph-name="aring" horiz-adv-x="834" unicode="å"/>
<glyph d="M1259 209h-521q10 -51 57 -79t124 -28q56 0 101.5 19.5t73.5 55.5l146 -65q-50 -65 -133 -98t-195 -33q-105 0 -182.5 28.5t-122.5 82.5q-44 -56 -117.5 -83.5t-179.5 -27.5q-127 0 -196 40.5t-69 115.5q0 71 64.5 111t189.5 44l248 9v12q0 93 -134 93q-67 0 -107.5 -21 t-45.5 -59h-201q8 58 54.5 102t124 67.5t177.5 23.5q168 0 242 -67q91 67 249 67q167 0 260 -74t93 -207v-29zM1068 308q-4 48 -49 77.5t-113 29.5q-73 0 -117 -27.5t-52 -79.5h331zM549 222l-198 -8q-107 -3 -107 -64q0 -29 31 -45t89 -16q83 0 134 32t51 85v16z" glyph-name="ae" horiz-adv-x="1287" unicode="æ"/>
<glyph d="M519 134q44 24 59 70l202 -30q-22 -83 -111 -134t-223 -58l-31 -39q31 16 77 16q62 0 96.5 -24.5t34.5 -67.5q0 -46 -46 -71t-128 -25q-113 0 -156 57l92 28q21 -24 65 -24q25 0 38.5 9t13.5 26t-13 26t-37 9q-35 0 -52 -16l-94 18l53 79q-103 6 -178.5 41t-116 93.5 t-40.5 134.5q0 82 46.5 142.5t133.5 92.5t206 32q152 0 248.5 -50.5t121.5 -143.5l-203 -27q-15 45 -59.5 69t-113.5 24q-84 0 -132 -37t-48 -101t49.5 -103.5t130.5 -39.5q71 0 115 24z" glyph-name="ccedilla" horiz-adv-x="807" unicode="ç"/>
<glyph d="M767 209h-558q11 -51 62.5 -79t136.5 -28q63 0 114.5 19.5t79.5 54.5l146 -64q-52 -64 -140 -97.5t-208 -33.5q-117 0 -201.5 31.5t-129.5 91.5t-45 143q0 85 46 146t129.5 93.5t195.5 32.5q117 0 200.5 -34t127.5 -97.5t44 -151.5v-27zM576 308q-2 47 -52.5 77 t-129.5 30t-128 -29t-58 -79h368v1zM322 573l-198 157h196l164 -157h-162z" glyph-name="egrave" horiz-adv-x="795" unicode="è"/>
<glyph d="M767 209h-558q11 -51 62.5 -79t136.5 -28q63 0 114.5 19.5t79.5 54.5l146 -64q-52 -64 -140 -97.5t-208 -33.5q-117 0 -201.5 31.5t-129.5 91.5t-45 143q0 85 46 146t129.5 93.5t195.5 32.5q117 0 200.5 -34t127.5 -97.5t44 -151.5v-27zM576 308q-2 47 -52.5 77 t-129.5 30t-128 -29t-58 -79h368v1zM473 730h196l-198 -157h-161z" glyph-name="eacute" horiz-adv-x="795" unicode="é"/>
<glyph d="M767 209h-558q11 -51 62.5 -79t136.5 -28q63 0 114.5 19.5t79.5 54.5l146 -64q-52 -64 -140 -97.5t-208 -33.5q-117 0 -201.5 31.5t-129.5 91.5t-45 143q0 85 46 146t129.5 93.5t195.5 32.5q117 0 200.5 -34t127.5 -97.5t44 -151.5v-27zM576 308q-2 47 -52.5 77 t-129.5 30t-128 -29t-58 -79h368v1zM499 573l-102 101l-102 -101h-154l156 157h200l156 -157h-154z" glyph-name="ecircumflex" horiz-adv-x="795" unicode="ê"/>
<glyph d="M767 209h-558q11 -51 62.5 -79t136.5 -28q63 0 114.5 19.5t79.5 54.5l146 -64q-52 -64 -140 -97.5t-208 -33.5q-117 0 -201.5 31.5t-129.5 91.5t-45 143q0 85 46 146t129.5 93.5t195.5 32.5q117 0 200.5 -34t127.5 -97.5t44 -151.5v-27zM576 308q-2 47 -52.5 77 t-129.5 30t-128 -29t-58 -79h368v1zM141 722h181v-143h-181v143zM472 722h181v-143h-181v143z" glyph-name="edieresis" horiz-adv-x="795" unicode="ë"/>
<glyph d="M99 573l-126 157h176l107 -157h-157zM82 500h192v-500h-192v500z" glyph-name="igrave" horiz-adv-x="356" unicode="ì"/>
<glyph d="M206 730h177l-126 -157h-158zM82 500h192v-500h-192v500z" glyph-name="iacute" horiz-adv-x="356" unicode="í"/>
<glyph d="M223 573l-45 107l-44 -107h-113l77 158h161l77 -158h-113zM82 500h192v-500h-192v500z" glyph-name="icircumflex" horiz-adv-x="356" unicode="î"/>
<glyph d="M-2 722h156v-143h-156v143zM203 722h156v-143h-156v143zM82 500h192v-500h-192v500z" glyph-name="idieresis" horiz-adv-x="356" unicode="ï"/>
<glyph d="M806 294q0 -93 -47.5 -163.5t-139 -110t-218.5 -39.5q-191 0 -284 69.5t-93 191.5q0 73 39.5 131t113.5 90.5t174 32.5q88 0 151.5 -27.5t102.5 -74.5h2q-20 97 -128 176l-148 -41l-21 49l109 30q-45 25 -102 49l175 81q69 -33 126 -75l110 31l20 -49l-81 -23 q139 -131 139 -328zM558.5 147q51.5 36 51.5 96t-52.5 98t-142.5 38q-92 0 -141.5 -37.5t-49.5 -98.5q0 -60 49.5 -96t141.5 -36t143.5 36z" glyph-name="eth" horiz-adv-x="852" unicode="ð"/>
<glyph d="M82 500h189v-116q35 65 103 100t163 35q137 0 208.5 -72t71.5 -210v-237h-192v208q0 88 -41 130.5t-125 42.5q-88 0 -136.5 -45.5t-48.5 -128.5v-207h-192v500zM538.5 592.5q-26.5 8.5 -61.5 25.5q-28 13 -44 19t-36 6q-28 0 -45 -15t-25 -48l-102 41q28 124 158 124 q38 0 64.5 -8.5t61.5 -25.5q25 -13 42.5 -19t36.5 -6q28 0 45 15t25 48l102 -41q-29 -124 -158 -124q-37 0 -63.5 8.5z" glyph-name="ntilde" horiz-adv-x="882" unicode="ñ"/>
<glyph d="M208 14q-88 33 -136 94t-48 142t48 142t135.5 94t203.5 33t203.5 -33t136 -94t48.5 -142t-48.5 -141.5t-136 -94t-203.5 -33.5q-115 0 -203 33zM547.5 143.5q51.5 39.5 51.5 106.5t-51.5 106.5t-136.5 39.5t-136.5 -39.5t-51.5 -106.5t51.5 -106.5t136.5 -39.5 t136.5 39.5zM336 573l-198 157h196l164 -157h-162z" glyph-name="ograve" horiz-adv-x="822" unicode="ò"/>
<glyph d="M208 14q-88 33 -136 94t-48 142t48 142t135.5 94t203.5 33t203.5 -33t136 -94t48.5 -142t-48.5 -141.5t-136 -94t-203.5 -33.5q-115 0 -203 33zM547.5 143.5q51.5 39.5 51.5 106.5t-51.5 106.5t-136.5 39.5t-136.5 -39.5t-51.5 -106.5t51.5 -106.5t136.5 -39.5 t136.5 39.5zM488 730h196l-198 -157h-161z" glyph-name="oacute" horiz-adv-x="822" unicode="ó"/>
<glyph d="M208 14q-88 33 -136 94t-48 142t48 142t135.5 94t203.5 33t203.5 -33t136 -94t48.5 -142t-48.5 -141.5t-136 -94t-203.5 -33.5q-115 0 -203 33zM547.5 143.5q51.5 39.5 51.5 106.5t-51.5 106.5t-136.5 39.5t-136.5 -39.5t-51.5 -106.5t51.5 -106.5t136.5 -39.5 t136.5 39.5zM513 573l-102 101l-102 -101h-154l156 157h200l156 -157h-154z" glyph-name="ocircumflex" horiz-adv-x="822" unicode="ô"/>
<glyph d="M208 14q-88 33 -136 94t-48 142t48 142t135.5 94t203.5 33t203.5 -33t136 -94t48.5 -142t-48.5 -141.5t-136 -94t-203.5 -33.5q-115 0 -203 33zM547.5 143.5q51.5 39.5 51.5 106.5t-51.5 106.5t-136.5 39.5t-136.5 -39.5t-51.5 -106.5t51.5 -106.5t136.5 -39.5 t136.5 39.5zM456.5 592.5q-26.5 8.5 -61.5 25.5q-28 13 -44 19t-36 6q-28 0 -45 -15t-25 -48l-102 41q28 124 158 124q38 0 64.5 -8.5t61.5 -25.5q25 -13 42.5 -19t36.5 -6q28 0 45 15t25 48l102 -41q-29 -124 -158 -124q-37 0 -63.5 8.5z" glyph-name="otilde" horiz-adv-x="822" unicode="õ"/>
<glyph d="M208 14q-88 33 -136 94t-48 142t48 142t135.5 94t203.5 33t203.5 -33t136 -94t48.5 -142t-48.5 -141.5t-136 -94t-203.5 -33.5q-115 0 -203 33zM547.5 143.5q51.5 39.5 51.5 106.5t-51.5 106.5t-136.5 39.5t-136.5 -39.5t-51.5 -106.5t51.5 -106.5t136.5 -39.5 t136.5 39.5zM155 722h181v-143h-181v143zM486 722h181v-143h-181v143z" glyph-name="odieresis" horiz-adv-x="822" unicode="ö"/>
<glyph d="M298 466.5q-22 21.5 -22 55.5t22 56t55 22q34 0 56.5 -21.5t22.5 -56.5q0 -34 -22.5 -55.5t-56.5 -21.5q-33 0 -55 21.5zM46 387h617v-118h-617v118zM298 74.5q-22 21.5 -22 55.5t22 56t55 22q34 0 56.5 -21.5t22.5 -56.5q0 -34 -22.5 -55.5t-56.5 -21.5q-33 0 -55 21.5z " glyph-name="divide" horiz-adv-x="709" unicode="÷"/>
<glyph d="M777.5 349q21.5 -45 21.5 -99q0 -81 -48.5 -141.5t-136 -94t-203.5 -33.5q-141 0 -241 50l-87 -64l-50 48l76 56q-41 34 -63 79.5t-22 99.5q0 81 48 142t135.5 94t203.5 33q143 0 243 -50l86 63l49 -50l-74 -54q41 -34 62.5 -79zM247 172l275 200q-45 24 -111 24 q-85 0 -136.5 -39.5t-51.5 -106.5q0 -44 24 -78zM547.5 143.5q51.5 39.5 51.5 106.5q0 43 -23 77l-274 -200q46 -23 109 -23q85 0 136.5 39.5z" glyph-name="oslash" horiz-adv-x="822" unicode="ø"/>
<glyph d="M135 45q-71 64 -71 184v271h193v-225q0 -84 41.5 -122t112.5 -38q91 0 138.5 49.5t47.5 122.5v213h192v-500h-189v117q-33 -66 -103.5 -101t-161.5 -35q-129 0 -200 64zM348 573l-198 157h196l164 -157h-162z" glyph-name="ugrave" horiz-adv-x="871" unicode="ù"/>
<glyph d="M135 45q-71 64 -71 184v271h193v-225q0 -84 41.5 -122t112.5 -38q91 0 138.5 49.5t47.5 122.5v213h192v-500h-189v117q-33 -66 -103.5 -101t-161.5 -35q-129 0 -200 64zM500 730h196l-198 -157h-161z" glyph-name="uacute" horiz-adv-x="871" unicode="ú"/>
<glyph d="M135 45q-71 64 -71 184v271h193v-225q0 -84 41.5 -122t112.5 -38q91 0 138.5 49.5t47.5 122.5v213h192v-500h-189v117q-33 -66 -103.5 -101t-161.5 -35q-129 0 -200 64zM525 573l-102 101l-102 -101h-154l156 157h200l156 -157h-154z" glyph-name="ucircumflex" horiz-adv-x="871" unicode="û"/>
<glyph d="M135 45q-71 64 -71 184v271h193v-225q0 -84 41.5 -122t112.5 -38q91 0 138.5 49.5t47.5 122.5v213h192v-500h-189v117q-33 -66 -103.5 -101t-161.5 -35q-129 0 -200 64zM167 722h181v-143h-181v143zM498 722h181v-143h-181v143z" glyph-name="udieresis" horiz-adv-x="871" unicode="ü"/>
<glyph d="M49 -203v143q54 -10 95 -10q44 0 87.5 16.5t64.5 44.5l2 6l-304 503h215l158 -299q17 -34 25 -57h4q5 13 24 54l152 302h207l-291 -524q-54 -101 -128.5 -145.5t-191.5 -44.5q-64 0 -119 11zM464 730h196l-198 -157h-161z" glyph-name="yacute" horiz-adv-x="773" unicode="ý"/>
<glyph d="M87 725h192v-310q41 50 109.5 77t153.5 27q93 0 164.5 -33.5t110.5 -94t39 -139.5q0 -80 -40.5 -141.5t-113.5 -95.5t-167 -34q-80 0 -147 26t-109 73v-275h-192v920zM606 144q50 40 50 109q0 67 -49.5 105.5t-135.5 38.5q-57 0 -101.5 -17.5t-69.5 -49t-25 -72.5v-10 q0 -65 53.5 -104.5t140.5 -39.5t137 40z" glyph-name="thorn" horiz-adv-x="880" unicode="þ"/>
<glyph d="M49 -203v143q54 -10 95 -10q44 0 87.5 16.5t64.5 44.5l2 6l-304 503h215l158 -299q17 -34 25 -57h4q5 13 24 54l152 302h207l-291 -524q-54 -101 -128.5 -145.5t-191.5 -44.5q-64 0 -119 11zM132 722h181v-143h-181v143zM463 722h181v-143h-181v143z" glyph-name="ydieresis" horiz-adv-x="773" unicode="ÿ"/>
<glyph d="M736 761h-490v102h490v-102zM689 143h-396l-66 -143h-217l355 710h252l354 -710h-216zM629 272l-91 195q-10 24 -23 57.5t-23 64.5h-2q-10 -31 -23 -64.5t-23 -57.5l-91 -195h276z" glyph-name="Amacron" horiz-adv-x="982" unicode="Ā"/>
<glyph d="M110.5 22q-65.5 41 -65.5 116t63 114q30 19 75.5 30t120.5 15l262 15v12q0 41 -37.5 62.5t-105.5 21.5t-109.5 -20.5t-49.5 -58.5h-205q10 57 58 100t127 66.5t179 23.5q173 0 255 -56t82 -169v-138q0 -96 9 -156h-192q-5 30 -7 92q-30 -53 -101 -82t-174 -29 q-119 0 -184.5 41zM512.5 121.5q55.5 33.5 55.5 90.5v17l-201 -14q-68 -5 -95.5 -19.5t-27.5 -44.5q0 -31 32 -47t91 -16q90 0 145.5 33.5zM176 697h497v-104h-497v104z" glyph-name="amacron" horiz-adv-x="834" unicode="ā"/>
<glyph d="M338.5 787q-59.5 32 -66.5 91h124q5 -21 29 -33t66 -12q43 0 67 12t29 33h124q-7 -59 -66.5 -91t-153.5 -32q-93 0 -152.5 32zM689 143h-396l-66 -143h-217l355 710h252l354 -710h-216zM629 272l-91 195q-10 24 -23 57.5t-23 64.5h-2q-10 -31 -23 -64.5t-23 -57.5 l-91 -195h276z" glyph-name="Abreve" horiz-adv-x="982" unicode="Ă"/>
<glyph d="M110.5 22q-65.5 41 -65.5 116t63 114q30 19 75.5 30t120.5 15l262 15v12q0 41 -37.5 62.5t-105.5 21.5t-109.5 -20.5t-49.5 -58.5h-205q10 57 58 100t127 66.5t179 23.5q173 0 255 -56t82 -169v-138q0 -96 9 -156h-192q-5 30 -7 92q-30 -53 -101 -82t-174 -29 q-119 0 -184.5 41zM512.5 121.5q55.5 33.5 55.5 90.5v17l-201 -14q-68 -5 -95.5 -19.5t-27.5 -44.5q0 -31 32 -47t91 -16q90 0 145.5 33.5zM425 652q83 0 92 78h130q-7 -80 -65 -121t-157 -41q-100 0 -158 41t-65 121h130q9 -78 93 -78z" glyph-name="abreve" horiz-adv-x="834" unicode="ă"/>
<glyph d="M981 -106q-8 -48 -55.5 -75t-125.5 -27q-76 0 -120 27t-44 74q0 80 117 111l-64 139h-396l-66 -143h-217l355 710h252l354 -710h-56q-76 -7 -112.5 -32t-36.5 -57q0 -19 13 -31.5t33 -12.5q42 0 54 43zM629 272l-91 195q-10 24 -23 57.5t-23 64.5h-2q-10 -31 -23 -64.5 t-23 -57.5l-91 -195h276z" glyph-name="Aogonek" horiz-adv-x="982" unicode="Ą"/>
<glyph d="M804 -106q-8 -48 -55.5 -75t-125.5 -27q-76 0 -120 27t-44 74q0 79 117 112q-4 32 -6 87q-30 -53 -101 -82t-174 -29q-119 0 -184.5 41t-65.5 116t63 114q30 19 75.5 30t120.5 15l262 15v12q0 41 -37.5 62.5t-105.5 21.5t-109.5 -20.5t-49.5 -58.5h-205q10 57 58 100 t127 66.5t179 23.5q173 0 255 -56t82 -169v-138q0 -96 9 -156h-31q-76 -7 -112.5 -32t-36.5 -57q0 -19 13 -31.5t33 -12.5q42 0 54 43zM568 229l-201 -14q-68 -5 -95.5 -19.5t-27.5 -44.5q0 -31 32 -47t91 -16q90 0 145.5 33.5t55.5 90.5v17z" glyph-name="aogonek" horiz-adv-x="834" unicode="ą"/>
<glyph d="M558 878h196l-180 -118h-167zM240 22.5q-105 46.5 -162 131.5t-57 198q0 111 60 198t167.5 135.5t245.5 48.5q115 0 207 -32t153.5 -92t84.5 -142l-209 -37q-20 73 -81 111.5t-157 38.5q-120 0 -189.5 -61t-69.5 -165q0 -68 32 -119t91 -79t138 -28q94 0 154.5 36.5 t83.5 107.5l206 -44q-44 -121 -161.5 -187t-290.5 -66q-141 0 -246 46.5z" glyph-name="Cacute" horiz-adv-x="966" unicode="Ć"/>
<glyph d="M204.5 14q-86.5 33 -133.5 94.5t-47 143.5t46.5 142.5t133.5 92.5t206 32q152 0 248.5 -50.5t121.5 -143.5l-203 -27q-15 45 -59.5 69t-113.5 24q-84 0 -132 -37t-48 -101t49.5 -103.5t130.5 -39.5q71 0 115 24t59 70l202 -30q-24 -89 -124 -141t-248 -52 q-117 0 -203.5 33zM482 730h196l-198 -157h-161z" glyph-name="cacute" horiz-adv-x="807" unicode="ć"/>
<glyph d="M580 760l-88 65l-89 -65h-164l152 118h201l153 -118h-165zM240 22.5q-105 46.5 -162 131.5t-57 198q0 111 60 198t167.5 135.5t245.5 48.5q115 0 207 -32t153.5 -92t84.5 -142l-209 -37q-20 73 -81 111.5t-157 38.5q-120 0 -189.5 -61t-69.5 -165q0 -68 32 -119t91 -79 t138 -28q94 0 154.5 36.5t83.5 107.5l206 -44q-44 -121 -161.5 -187t-290.5 -66q-141 0 -246 46.5z" glyph-name="Ccircumflex" horiz-adv-x="966" unicode="Ĉ"/>
<glyph d="M204.5 14q-86.5 33 -133.5 94.5t-47 143.5t46.5 142.5t133.5 92.5t206 32q152 0 248.5 -50.5t121.5 -143.5l-203 -27q-15 45 -59.5 69t-113.5 24q-84 0 -132 -37t-48 -101t49.5 -103.5t130.5 -39.5q71 0 115 24t59 70l202 -30q-24 -89 -124 -141t-248 -52 q-117 0 -203.5 33zM507 573l-102 101l-102 -101h-154l156 157h200l156 -157h-154z" glyph-name="ccircumflex" horiz-adv-x="807" unicode="ĉ"/>
<glyph d="M390 878h203v-118h-203v118zM240 22.5q-105 46.5 -162 131.5t-57 198q0 111 60 198t167.5 135.5t245.5 48.5q115 0 207 -32t153.5 -92t84.5 -142l-209 -37q-20 73 -81 111.5t-157 38.5q-120 0 -189.5 -61t-69.5 -165q0 -68 32 -119t91 -79t138 -28q94 0 154.5 36.5 t83.5 107.5l206 -44q-44 -121 -161.5 -187t-290.5 -66q-141 0 -246 46.5z" glyph-name="Cdotaccent" horiz-adv-x="966" unicode="Ċ"/>
<glyph d="M204.5 14q-86.5 33 -133.5 94.5t-47 143.5t46.5 142.5t133.5 92.5t206 32q152 0 248.5 -50.5t121.5 -143.5l-203 -27q-15 45 -59.5 69t-113.5 24q-84 0 -132 -37t-48 -101t49.5 -103.5t130.5 -39.5q71 0 115 24t59 70l202 -30q-24 -89 -124 -141t-248 -52 q-117 0 -203.5 33zM304 727h203v-154h-203v154z" glyph-name="cdotaccent" horiz-adv-x="807" unicode="ċ"/>
<glyph d="M592 755h-201l-153 118h165l88 -65l89 65h164zM240 22.5q-105 46.5 -162 131.5t-57 198q0 111 60 198t167.5 135.5t245.5 48.5q115 0 207 -32t153.5 -92t84.5 -142l-209 -37q-20 73 -81 111.5t-157 38.5q-120 0 -189.5 -61t-69.5 -165q0 -68 32 -119t91 -79t138 -28 q94 0 154.5 36.5t83.5 107.5l206 -44q-44 -121 -161.5 -187t-290.5 -66q-141 0 -246 46.5z" glyph-name="Ccaron" horiz-adv-x="966" unicode="Č"/>
<glyph d="M204.5 14q-86.5 33 -133.5 94.5t-47 143.5t46.5 142.5t133.5 92.5t206 32q152 0 248.5 -50.5t121.5 -143.5l-203 -27q-15 45 -59.5 69t-113.5 24q-84 0 -132 -37t-48 -101t49.5 -103.5t130.5 -39.5q71 0 115 24t59 70l202 -30q-24 -89 -124 -141t-248 -52 q-117 0 -203.5 33zM303 725l102 -101l102 101h154l-156 -157h-200l-156 157h154z" glyph-name="ccaron" horiz-adv-x="807" unicode="č"/>
<glyph d="M600 755h-201l-153 118h165l88 -65l89 65h164zM92 710h451q131 0 227.5 -39.5t148.5 -117t52 -186.5t-54.5 -192.5t-152.5 -129t-224 -45.5h-448v710zM514 137q114 0 179.5 60t65.5 167q0 101 -67 155t-180 54h-218v-436h220z" glyph-name="Dcaron" horiz-adv-x="992" unicode="Ď"/>
<glyph d="M175.5 15q-71.5 34 -111.5 96t-40 142q0 78 40.5 138.5t113.5 94t168 33.5q85 0 147.5 -23t107.5 -70v299h192v-725h-187v98q-41 -56 -109 -86.5t-158 -30.5q-92 0 -163.5 34zM511 122q44 18 69 50t25 73v12q0 41 -25 73t-70.5 49.5t-102.5 17.5q-85 0 -134 -38.5 t-49 -106.5t50.5 -108t136.5 -40q56 0 100 18zM869 572q33 4 46.5 13.5t15.5 24.5h-92v100h181v-69q0 -51 -29 -82t-97 -39z" glyph-name="dcaron" horiz-adv-x="985" unicode="ď"/>
<glyph d="M770.5 670.5q96.5 -39.5 148.5 -117t52 -186.5t-54.5 -192.5t-152.5 -129t-224 -45.5h-448v308h-80v114h80v288h451q131 0 227.5 -39.5zM693.5 197q65.5 60 65.5 167q0 101 -67 155t-180 54h-218v-151h247v-114h-247v-171h220q114 0 179.5 60z" glyph-name="Dcroat" horiz-adv-x="992" unicode="Đ"/>
<glyph d="M896 569h-103v-569h-187v98q-41 -56 -109 -86.5t-158 -30.5q-92 0 -163.5 34t-111.5 96t-40 142q0 78 40.5 138.5t113.5 94t168 33.5q85 0 147.5 -23t107.5 -70v143h-247v88h247v68h192v-68h103v-88zM605 257q0 41 -25 73t-70.5 49.5t-102.5 17.5q-85 0 -134 -38.5 t-49 -106.5t50.5 -108t136.5 -40q56 0 100 18t69 50t25 73v12z" glyph-name="dcroat" horiz-adv-x="880" unicode="đ"/>
<glyph d="M709 761h-490v102h490v-102zM816 141v-141h-724v710h717v-141h-515v-143h498v-132h-498v-153h522z" glyph-name="Emacron" horiz-adv-x="880" unicode="Ē"/>
<glyph d="M767 209h-558q11 -51 62.5 -79t136.5 -28q63 0 114.5 19.5t79.5 54.5l146 -64q-52 -64 -140 -97.5t-208 -33.5q-117 0 -201.5 31.5t-129.5 91.5t-45 143q0 85 46 146t129.5 93.5t195.5 32.5q117 0 200.5 -34t127.5 -97.5t44 -151.5v-27zM576 308q-2 47 -52.5 77 t-129.5 30t-128 -29t-58 -79h368v1zM148 697h497v-104h-497v104z" glyph-name="emacron" horiz-adv-x="795" unicode="ē"/>
<glyph d="M311.5 787q-59.5 32 -66.5 91h124q5 -21 29 -33t66 -12q43 0 67 12t29 33h124q-7 -59 -66.5 -91t-153.5 -32q-93 0 -152.5 32zM816 141v-141h-724v710h717v-141h-515v-143h498v-132h-498v-153h522z" glyph-name="Ebreve" horiz-adv-x="880" unicode="Ĕ"/>
<glyph d="M767 209h-558q11 -51 62.5 -79t136.5 -28q63 0 114.5 19.5t79.5 54.5l146 -64q-52 -64 -140 -97.5t-208 -33.5q-117 0 -201.5 31.5t-129.5 91.5t-45 143q0 85 46 146t129.5 93.5t195.5 32.5q117 0 200.5 -34t127.5 -97.5t44 -151.5v-27zM576 308q-2 47 -52.5 77 t-129.5 30t-128 -29t-58 -79h368v1zM397 652q83 0 92 78h130q-7 -80 -65 -121t-157 -41q-100 0 -158 41t-65 121h130q9 -78 93 -78z" glyph-name="ebreve" horiz-adv-x="795" unicode="ĕ"/>
<glyph d="M566 760h-203v118h203v-118zM816 141v-141h-724v710h717v-141h-515v-143h498v-132h-498v-153h522z" glyph-name="Edotaccent" horiz-adv-x="880" unicode="Ė"/>
<glyph d="M767 209h-558q11 -51 62.5 -79t136.5 -28q63 0 114.5 19.5t79.5 54.5l146 -64q-52 -64 -140 -97.5t-208 -33.5q-117 0 -201.5 31.5t-129.5 91.5t-45 143q0 85 46 146t129.5 93.5t195.5 32.5q117 0 200.5 -34t127.5 -97.5t44 -151.5v-27zM576 308q-2 47 -52.5 77 t-129.5 30t-128 -29t-58 -79h368v1zM295 727h203v-154h-203v154z" glyph-name="edotaccent" horiz-adv-x="795" unicode="ė"/>
<glyph d="M882 -106q-8 -48 -55.5 -75t-125.5 -27q-76 0 -120 27t-44 74q0 74 102 107h-547v710h717v-141h-515v-143h498v-132h-498v-153h522v-141q-76 -7 -112.5 -32t-36.5 -57q0 -19 13 -31.5t33 -12.5q42 0 54 43z" glyph-name="Eogonek" horiz-adv-x="880" unicode="Ę"/>
<glyph d="M767 209h-558q11 -51 62.5 -79t136.5 -28q63 0 114.5 19.5t79.5 54.5l146 -64q-84 -103 -254 -125q-31 -13 -46.5 -31.5t-15.5 -38.5q0 -19 13 -31.5t33 -12.5q42 0 54 43l115 -16q-8 -48 -55.5 -75t-125.5 -27q-76 0 -120 27t-44 74q0 53 50 83q-155 10 -241.5 79.5 t-86.5 185.5q0 85 46 146t129.5 93.5t195.5 32.5q117 0 200.5 -34t127.5 -97.5t44 -151.5v-27zM576 308q-2 47 -52.5 77t-129.5 30t-128 -29t-58 -79h368v1z" glyph-name="eogonek" horiz-adv-x="795" unicode="ę"/>
<glyph d="M364 755l-153 118h165l88 -65l89 65h164l-152 -118h-201zM816 141v-141h-724v710h717v-141h-515v-143h498v-132h-498v-153h522z" glyph-name="Ecaron" horiz-adv-x="880" unicode="Ě"/>
<glyph d="M767 209h-558q11 -51 62.5 -79t136.5 -28q63 0 114.5 19.5t79.5 54.5l146 -64q-52 -64 -140 -97.5t-208 -33.5q-117 0 -201.5 31.5t-129.5 91.5t-45 143q0 85 46 146t129.5 93.5t195.5 32.5q117 0 200.5 -34t127.5 -97.5t44 -151.5v-27zM576 308q-2 47 -52.5 77 t-129.5 30t-128 -29t-58 -79h368v1zM295 725l102 -101l102 101h154l-156 -157h-200l-156 157h154z" glyph-name="ecaron" horiz-adv-x="795" unicode="ě"/>
<glyph d="M589 760l-88 65l-89 -65h-164l152 118h201l153 -118h-165zM216.5 23.5q-94.5 47.5 -145 132t-50.5 191.5q0 111 57.5 199t164.5 138t250 50q111 0 202 -28t151 -80.5t82 -123.5l-218 -36q-21 55 -78 88.5t-145 33.5q-120 0 -187.5 -64.5t-67.5 -174.5q0 -69 30.5 -121.5 t88.5 -81.5t138 -29q74 0 129.5 21t86.5 55.5t34 74.5v3h-268v125h456v-396h-154l-9 122q-38 -63 -119.5 -104.5t-206.5 -41.5q-127 0 -221.5 47.5z" glyph-name="Gcircumflex" horiz-adv-x="984" unicode="Ĝ"/>
<glyph d="M295 601h-154l156 129h200l156 -129h-154l-102 82zM743 475q-46 0 -72 -14q65 -43 65 -114q0 -83 -88.5 -130t-246.5 -47q-97 0 -168 18q-29 -9 -29 -30q0 -34 61 -34l320 -1q111 -1 163 -37t52 -111q0 -98 -100 -143.5t-319 -45.5q-179 0 -263 29.5t-84 91.5 q0 33 22 54.5t69 32.5q-38 15 -59.5 40t-21.5 57q0 44 33.5 74t94.5 44q-52 23 -79 58t-27 80q0 82 87.5 127t247.5 45q113 0 191 -23q13 48 55.5 72.5t107.5 24.5q25 0 48 -4v-120q-27 6 -60 6zM503.5 283.5q36.5 22.5 36.5 63.5q0 40 -35.5 60.5t-103.5 20.5 q-67 0 -103 -20.5t-36 -60.5q0 -41 36.5 -63.5t102.5 -22.5t102.5 22.5zM225 -22q-18 0 -26 1q-21 -17 -21 -39q0 -38 52 -53.5t167 -15.5q95 0 147 6t73 19.5t21 38.5q0 22 -17.5 32.5t-55.5 10.5h-340z" glyph-name="gcircumflex" horiz-adv-x="830" unicode="ĝ"/>
<glyph d="M435 845q24 -12 66 -12q43 0 67 12t29 33h124q-7 -59 -66.5 -91t-153.5 -32q-93 0 -152.5 32t-66.5 91h124q5 -21 29 -33zM216.5 23.5q-94.5 47.5 -145 132t-50.5 191.5q0 111 57.5 199t164.5 138t250 50q111 0 202 -28t151 -80.5t82 -123.5l-218 -36q-21 55 -78 88.5 t-145 33.5q-120 0 -187.5 -64.5t-67.5 -174.5q0 -69 30.5 -121.5t88.5 -81.5t138 -29q74 0 129.5 21t86.5 55.5t34 74.5v3h-268v125h456v-396h-154l-9 122q-38 -63 -119.5 -104.5t-206.5 -41.5q-127 0 -221.5 47.5z" glyph-name="Gbreve" horiz-adv-x="984" unicode="Ğ"/>
<glyph d="M743 475q-46 0 -72 -14q65 -43 65 -114q0 -83 -88.5 -130t-246.5 -47q-97 0 -168 18q-29 -9 -29 -30q0 -34 61 -34l320 -1q111 -1 163 -37t52 -111q0 -98 -100 -143.5t-319 -45.5q-179 0 -263 29.5t-84 91.5q0 33 22 54.5t69 32.5q-38 15 -59.5 40t-21.5 57q0 44 33.5 74 t94.5 44q-52 23 -79 58t-27 80q0 82 87.5 127t247.5 45q113 0 191 -23q13 48 55.5 72.5t107.5 24.5q25 0 48 -4v-120q-27 6 -60 6zM503.5 283.5q36.5 22.5 36.5 63.5q0 40 -35.5 60.5t-103.5 20.5q-67 0 -103 -20.5t-36 -60.5q0 -41 36.5 -63.5t102.5 -22.5t102.5 22.5z M225 -22q-18 0 -26 1q-21 -17 -21 -39q0 -38 52 -53.5t167 -15.5q95 0 147 6t73 19.5t21 38.5q0 22 -17.5 32.5t-55.5 10.5h-340zM398 652q83 0 92 78h130q-7 -80 -65 -121t-157 -41q-100 0 -158 41t-65 121h130q9 -78 93 -78z" glyph-name="gbreve" horiz-adv-x="830" unicode="ğ"/>
<glyph d="M400 878h203v-118h-203v118zM216.5 23.5q-94.5 47.5 -145 132t-50.5 191.5q0 111 57.5 199t164.5 138t250 50q111 0 202 -28t151 -80.5t82 -123.5l-218 -36q-21 55 -78 88.5t-145 33.5q-120 0 -187.5 -64.5t-67.5 -174.5q0 -69 30.5 -121.5t88.5 -81.5t138 -29 q74 0 129.5 21t86.5 55.5t34 74.5v3h-268v125h456v-396h-154l-9 122q-38 -63 -119.5 -104.5t-206.5 -41.5q-127 0 -221.5 47.5z" glyph-name="Gdotaccent" horiz-adv-x="984" unicode="Ġ"/>
<glyph d="M743 475q-46 0 -72 -14q65 -43 65 -114q0 -83 -88.5 -130t-246.5 -47q-97 0 -168 18q-29 -9 -29 -30q0 -34 61 -34l320 -1q111 -1 163 -37t52 -111q0 -98 -100 -143.5t-319 -45.5q-179 0 -263 29.5t-84 91.5q0 33 22 54.5t69 32.5q-38 15 -59.5 40t-21.5 57q0 44 33.5 74 t94.5 44q-52 23 -79 58t-27 80q0 82 87.5 127t247.5 45q113 0 191 -23q13 48 55.5 72.5t107.5 24.5q25 0 48 -4v-120q-27 6 -60 6zM503.5 283.5q36.5 22.5 36.5 63.5q0 40 -35.5 60.5t-103.5 20.5q-67 0 -103 -20.5t-36 -60.5q0 -41 36.5 -63.5t102.5 -22.5t102.5 22.5z M225 -22q-18 0 -26 1q-21 -17 -21 -39q0 -38 52 -53.5t167 -15.5q95 0 147 6t73 19.5t21 38.5q0 22 -17.5 32.5t-55.5 10.5h-340zM295 727h203v-154h-203v154z" glyph-name="gdotaccent" horiz-adv-x="830" unicode="ġ"/>
<glyph d="M216.5 23.5q-94.5 47.5 -145 132t-50.5 191.5q0 111 57.5 199t164.5 138t250 50q111 0 202 -28t151 -80.5t82 -123.5l-218 -36q-21 55 -78 88.5t-145 33.5q-120 0 -187.5 -64.5t-67.5 -174.5q0 -69 30.5 -121.5t88.5 -81.5t138 -29q74 0 129.5 21t86.5 55.5t34 74.5v3 h-268v125h456v-396h-154l-9 122q-38 -63 -119.5 -104.5t-206.5 -41.5q-127 0 -221.5 47.5zM436 -197q38 9 53 19.5t17 29.5h-99v100h187v-76q0 -98 -132 -120z" glyph-name="uni0122" horiz-adv-x="984" unicode="Ģ"/>
<glyph d="M743 475q-46 0 -72 -14q65 -43 65 -114q0 -83 -88.5 -130t-246.5 -47q-97 0 -168 18q-29 -9 -29 -30q0 -34 61 -34l320 -1q111 -1 163 -37t52 -111q0 -98 -100 -143.5t-319 -45.5q-179 0 -263 29.5t-84 91.5q0 33 22 54.5t69 32.5q-38 15 -59.5 40t-21.5 57q0 44 33.5 74 t94.5 44q-52 23 -79 58t-27 80q0 82 87.5 127t247.5 45q113 0 191 -23q13 48 55.5 72.5t107.5 24.5q25 0 48 -4v-120q-27 6 -60 6zM503.5 283.5q36.5 22.5 36.5 63.5q0 40 -35.5 60.5t-103.5 20.5q-67 0 -103 -20.5t-36 -60.5q0 -41 36.5 -63.5t102.5 -22.5t102.5 22.5z M225 -22q-18 0 -26 1q-21 -17 -21 -39q0 -38 52 -53.5t167 -15.5q95 0 147 6t73 19.5t21 38.5q0 22 -17.5 32.5t-55.5 10.5h-340zM458 721q-38 -9 -53 -19.5t-17 -29.5h99v-100h-187v76q0 98 132 120z" glyph-name="uni0123" horiz-adv-x="830" unicode="ģ"/>
<glyph d="M596 760l-88 65l-89 -65h-164l152 118h201l153 -118h-165zM923 0h-202v290h-427v-290h-202v710h202v-280h427v280h202v-710z" glyph-name="Hcircumflex" horiz-adv-x="1015" unicode="Ĥ"/>
<glyph d="M271 760l-88 65l-89 -65h-164l152 118h201l153 -118h-165zM87 725h192v-332q35 60 102.5 93t156.5 33q137 0 210.5 -76.5t73.5 -218.5v-224h-192v204q0 88 -43.5 134t-127.5 46t-132 -46t-48 -128v-210h-192v725z" glyph-name="hcircumflex" horiz-adv-x="887" unicode="ĥ"/>
<glyph d="M1015 520h-92v-520h-202v290h-427v-290h-202v520h-91v87h91v103h202v-103h427v103h202v-103h92v-87zM721 520h-427v-90h427v90z" glyph-name="Hbar" horiz-adv-x="1015" unicode="Ħ"/>
<glyph d="M748.5 442.5q73.5 -76.5 73.5 -218.5v-224h-192v204q0 88 -43.5 134t-127.5 46t-132 -46t-48 -128v-210h-192v571h-99v88h99v66h192v-66h301v-88h-301v-178q35 60 102.5 93t156.5 33q137 0 210.5 -76.5z" glyph-name="hbar" horiz-adv-x="860" unicode="ħ"/>
<glyph d="M220.5 764q-19.5 10 -42.5 28q-15 12 -25.5 18t-21.5 6q-30 0 -33 -49l-75 28q3 50 28 80t68 30q27 0 46.5 -10t42.5 -28q15 -12 25.5 -18t21.5 -6q30 0 33 49l75 -28q-3 -50 -28 -80t-68 -30q-27 0 -46.5 10zM92 0v710h202v-710h-202z" glyph-name="Itilde" horiz-adv-x="385" unicode="Ĩ"/>
<glyph d="M199.5 592.5q-18.5 11.5 -38.5 31.5q-13 12 -21.5 18t-16.5 6q-11 0 -18 -13t-11 -43l-78 28q8 59 35 92.5t67 33.5q24 0 41 -10.5t41 -32.5q13 -13 21.5 -19t16.5 -6q11 0 18 13t11 43l78 -27q-8 -60 -35 -93t-67 -33q-25 0 -43.5 11.5zM82 500h192v-500h-192v500z" glyph-name="itilde" horiz-adv-x="356" unicode="ĩ"/>
<glyph d="M30 865h324v-104h-324v104zM92 0v710h202v-710h-202z" glyph-name="Imacron" horiz-adv-x="385" unicode="Ī"/>
<glyph d="M38 697h281v-103h-281v103zM82 500h192v-500h-192v500z" glyph-name="imacron" horiz-adv-x="356" unicode="ī"/>
<glyph d="M153.5 843.5q14.5 -13.5 39.5 -13.5t40 13.5t16 34.5h102q-4 -59 -46 -91t-112 -32t-112 32t-46 91h102q2 -21 16.5 -34.5zM92 0v710h202v-710h-202z" glyph-name="Ibreve" horiz-adv-x="385" unicode="Ĭ"/>
<glyph d="M148 668q10 -19 31 -19q20 0 29.5 19t10.5 62h100q-1 -85 -38.5 -123.5t-101.5 -38.5q-138 0 -141 162h101q-1 -43 9 -62zM82 500h192v-500h-192v500z" glyph-name="ibreve" horiz-adv-x="356" unicode="ĭ"/>
<glyph d="M318 -106q-8 -48 -55.5 -75t-125.5 -27q-76 0 -120 27t-44 74q0 80 119 112v705h202v-710h-42q-76 -7 -112.5 -32t-36.5 -57q0 -19 13 -31.5t33 -12.5q42 0 54 43z" glyph-name="Iogonek" horiz-adv-x="385" unicode="Į"/>
<glyph d="M280 573h-203v154h203v-154zM309 -106q-8 -48 -55.5 -75t-125.5 -27q-76 0 -120 27t-44 74q0 80 118 112v495h192v-500h-31q-76 -7 -112.5 -32t-36.5 -57q0 -19 13 -31.5t33 -12.5q42 0 54 43z" glyph-name="iogonek" horiz-adv-x="356" unicode="į"/>
<glyph d="M91 878h203v-118h-203v118zM92 0v710h202v-710h-202z" glyph-name="Idotaccent" horiz-adv-x="385" unicode="İ"/>
<glyph d="M82 500h192v-500h-192v500z" glyph-name="dotlessi" horiz-adv-x="356" unicode="ı"/>
<glyph d="M92 0v710h202v-710h-202zM756.5 49q-81.5 -64 -221.5 -64q-80 0 -136 12v155q47 -7 89 -7q71 0 109.5 32t38.5 114v419h202v-453q0 -144 -81.5 -208z" glyph-name="IJ" horiz-adv-x="902" unicode="Ĳ"/>
<glyph d="M82 500h192v-500h-192v500zM77 727h203v-154h-203v154zM330 -202v137q23 -4 61 -4q36 0 53.5 23.5t17.5 77.5v468h192v-493q0 -109 -55 -163.5t-183 -54.5q-58 0 -86 9zM453 727h203v-154h-203v154z" glyph-name="ij" horiz-adv-x="736" unicode="ĳ"/>
<glyph d="M397 760l-45 74l-44 -74h-120l79 119h171l79 -119h-120zM371.5 49q-81.5 -64 -221.5 -64q-80 0 -136 12v155q47 -7 89 -7q71 0 109.5 32t38.5 114v419h202v-453q0 -144 -81.5 -208z" glyph-name="Jcircumflex" horiz-adv-x="517" unicode="Ĵ"/>
<glyph d="M231 573l-45 107l-44 -107h-113l77 158h161l77 -158h-113zM-38 -202v137q23 -4 61 -4q36 0 53.5 23.5t17.5 77.5v468h192v-493q0 -109 -55 -163.5t-183 -54.5q-58 0 -86 9z" glyph-name="jcircumflex" horiz-adv-x="368" unicode="ĵ"/>
<glyph d="M455 323l-161 -143v-180h-202v710h202v-330l379 330h249l-315 -272l333 -438h-235zM420 -197q38 9 53 19.5t17 29.5h-99v100h187v-76q0 -98 -132 -120z" glyph-name="uni0136" horiz-adv-x="956" unicode="Ķ"/>
<glyph d="M428 232l-149 -104v-128h-192v725h192v-433l282 208h254l-240 -177l250 -323h-220zM353 -197q38 9 53 19.5t17 29.5h-99v100h187v-76q0 -98 -132 -120z" glyph-name="uni0137" horiz-adv-x="845" unicode="ķ"/>
<glyph d="M423 232l-149 -104v-128h-192v500h192v-208l282 208h254l-240 -177l250 -323h-220z" glyph-name="kgreenlandic" horiz-adv-x="840" unicode="ĸ"/>
<glyph d="M260 878h196l-180 -118h-167zM92 710h202v-552h481v-158h-683v710z" glyph-name="Lacute" horiz-adv-x="802" unicode="Ĺ"/>
<glyph d="M250 878h196l-180 -118h-167zM279 0h-192v725h192v-725z" glyph-name="lacute" horiz-adv-x="366" unicode="ĺ"/>
<glyph d="M92 710h202v-552h481v-158h-683v710zM374 -197q38 9 53 19.5t17 29.5h-99v100h187v-76q0 -98 -132 -120z" glyph-name="uni013B" horiz-adv-x="802" unicode="Ļ"/>
<glyph d="M279 0h-192v725h192v-725zM118 -197q38 9 53 19.5t17 29.5h-99v100h187v-76q0 -98 -132 -120z" glyph-name="uni013C" horiz-adv-x="366" unicode="ļ"/>
<glyph d="M92 710h202v-552h481v-158h-683v710zM401 572q33 4 46.5 13.5t15.5 24.5h-92v100h181v-69q0 -51 -29 -82t-97 -39z" glyph-name="Lcaron" horiz-adv-x="802" unicode="Ľ"/>
<glyph d="M279 0h-192v725h192v-725zM354 572q33 4 46.5 13.5t15.5 24.5h-92v100h181v-69q0 -51 -29 -82t-97 -39z" glyph-name="lcaron" horiz-adv-x="470" unicode="ľ"/>
<glyph d="M92 710h202v-552h481v-158h-683v710zM614 337h-209v164h209v-164z" glyph-name="Ldot" horiz-adv-x="802" unicode="Ŀ"/>
<glyph d="M279 0h-192v725h192v-725zM554 337h-209v164h209v-164z" glyph-name="ldot" horiz-adv-x="532" unicode="ŀ"/>
<glyph d="M775 158v-158h-683v245l-107 -48v119l107 48v346h202v-256l283 127v-119l-283 -127v-177h481z" glyph-name="Lslash" horiz-adv-x="802" unicode="Ł"/>
<glyph d="M342 458l-63 -49v-409h-192v260l-64 -50v101l64 50v364h192v-214l63 49v-102z" glyph-name="lslash" horiz-adv-x="366" unicode="ł"/>
<glyph d="M579 878h196l-180 -118h-167zM92 710h215l371 -403q34 -38 56 -81h4v102v382h183v-710h-201l-385 408q-16 17 -32.5 40.5t-23.5 40.5h-4v-99v-390h-183v710z" glyph-name="Nacute" horiz-adv-x="1012" unicode="Ń"/>
<glyph d="M82 500h189v-116q35 65 103 100t163 35q137 0 208.5 -72t71.5 -210v-237h-192v208q0 88 -41 130.5t-125 42.5q-88 0 -136.5 -45.5t-48.5 -128.5v-207h-192v500zM569 730h196l-198 -157h-161z" glyph-name="nacute" horiz-adv-x="882" unicode="ń"/>
<glyph d="M92 710h215l371 -403q34 -38 56 -81h4v102v382h183v-710h-201l-385 408q-16 17 -32.5 40.5t-23.5 40.5h-4v-99v-390h-183v710zM448 -197q38 9 53 19.5t17 29.5h-99v100h187v-76q0 -98 -132 -120z" glyph-name="uni0145" horiz-adv-x="1012" unicode="Ņ"/>
<glyph d="M82 500h189v-116q35 65 103 100t163 35q137 0 208.5 -72t71.5 -210v-237h-192v208q0 88 -41 130.5t-125 42.5q-88 0 -136.5 -45.5t-48.5 -128.5v-207h-192v500zM377 -197q38 9 53 19.5t17 29.5h-99v100h187v-76q0 -98 -132 -120z" glyph-name="uni0146" horiz-adv-x="882" unicode="ņ"/>
<glyph d="M613 755h-201l-153 118h165l88 -65l89 65h164zM92 710h215l371 -403q34 -38 56 -81h4v102v382h183v-710h-201l-385 408q-16 17 -32.5 40.5t-23.5 40.5h-4v-99v-390h-183v710z" glyph-name="Ncaron" horiz-adv-x="1012" unicode="Ň"/>
<glyph d="M82 500h189v-116q35 65 103 100t163 35q137 0 208.5 -72t71.5 -210v-237h-192v208q0 88 -41 130.5t-125 42.5q-88 0 -136.5 -45.5t-48.5 -128.5v-207h-192v500zM390 725l102 -101l102 101h154l-156 -157h-200l-156 157h154z" glyph-name="ncaron" horiz-adv-x="882" unicode="ň"/>
<glyph d="M104 500h189v-116q35 65 103 100t163 35q137 0 208.5 -72t71.5 -210v-237h-192v208q0 88 -41 130.5t-125 42.5q-88 0 -136.5 -45.5t-48.5 -128.5v-207h-192v500zM33 572q33 4 46.5 13.5t15.5 24.5h-92v100h181v-69q0 -51 -29 -82t-97 -39z" glyph-name="napostrophe" horiz-adv-x="903" unicode="ŉ"/>
<glyph d="M921 0h-1v-3q0 -109 -70 -160.5t-188 -51.5q-85 0 -146 10v147q68 -6 108 -6q44 0 71 14.5t37 49.5h-12l-385 408q-16 17 -32.5 40.5t-23.5 40.5h-4v-99v-390h-183v710h215l371 -403q34 -38 56 -81h4v102v382h183v-710z" glyph-name="Eng" horiz-adv-x="1012" unicode="Ŋ"/>
<glyph d="M745.5 447q71.5 -72 71.5 -210v-240q0 -98 -57 -147t-191 -49q-62 0 -90 9v133q28 -5 59 -5q45 0 66 17.5t21 61.5v191q0 88 -41 130.5t-125 42.5q-88 0 -136.5 -45.5t-48.5 -128.5v-207h-192v500h189v-116q35 65 103 100t163 35q137 0 208.5 -72z" glyph-name="eng" horiz-adv-x="882" unicode="ŋ"/>
<glyph d="M252 863h490v-102h-490v102zM246 23q-108 47 -166.5 132.5t-58.5 199.5t58.5 200t166.5 132.5t251 46.5t250.5 -47t166.5 -132.5t59 -199.5t-59 -199.5t-166.5 -132.5t-250.5 -47t-251 47zM635 154.5q60 28.5 93 80.5t33 120t-33 120t-93 80.5t-138 28.5t-138 -28.5 t-93 -80.5t-33 -120t33 -120t93 -80.5t138 -28.5t138 28.5z" glyph-name="Omacron" horiz-adv-x="994" unicode="Ō"/>
<glyph d="M208 14q-88 33 -136 94t-48 142t48 142t135.5 94t203.5 33t203.5 -33t136 -94t48.5 -142t-48.5 -141.5t-136 -94t-203.5 -33.5q-115 0 -203 33zM547.5 143.5q51.5 39.5 51.5 106.5t-51.5 106.5t-136.5 39.5t-136.5 -39.5t-51.5 -106.5t51.5 -106.5t136.5 -39.5 t136.5 39.5zM162 697h497v-104h-497v104z" glyph-name="omacron" horiz-adv-x="822" unicode="ō"/>
<glyph d="M430 845q24 -12 66 -12q43 0 67 12t29 33h124q-7 -59 -66.5 -91t-153.5 -32q-93 0 -152.5 32t-66.5 91h124q5 -21 29 -33zM246 23q-108 47 -166.5 132.5t-58.5 199.5t58.5 200t166.5 132.5t251 46.5t250.5 -47t166.5 -132.5t59 -199.5t-59 -199.5t-166.5 -132.5 t-250.5 -47t-251 47zM635 154.5q60 28.5 93 80.5t33 120t-33 120t-93 80.5t-138 28.5t-138 -28.5t-93 -80.5t-33 -120t33 -120t93 -80.5t138 -28.5t138 28.5z" glyph-name="Obreve" horiz-adv-x="994" unicode="Ŏ"/>
<glyph d="M208 14q-88 33 -136 94t-48 142t48 142t135.5 94t203.5 33t203.5 -33t136 -94t48.5 -142t-48.5 -141.5t-136 -94t-203.5 -33.5q-115 0 -203 33zM547.5 143.5q51.5 39.5 51.5 106.5t-51.5 106.5t-136.5 39.5t-136.5 -39.5t-51.5 -106.5t51.5 -106.5t136.5 -39.5 t136.5 39.5zM412 652q83 0 92 78h130q-7 -80 -65 -121t-157 -41q-100 0 -158 41t-65 121h130q9 -78 93 -78z" glyph-name="obreve" horiz-adv-x="822" unicode="ŏ"/>
<glyph d="M451 878h161l-160 -118h-150zM690 878h161l-160 -118h-150zM246 23q-108 47 -166.5 132.5t-58.5 199.5t58.5 200t166.5 132.5t251 46.5t250.5 -47t166.5 -132.5t59 -199.5t-59 -199.5t-166.5 -132.5t-250.5 -47t-251 47zM635 154.5q60 28.5 93 80.5t33 120t-33 120 t-93 80.5t-138 28.5t-138 -28.5t-93 -80.5t-33 -120t33 -120t93 -80.5t138 -28.5t138 28.5z" glyph-name="Ohungarumlaut" horiz-adv-x="994" unicode="Ő"/>
<glyph d="M208 14q-88 33 -136 94t-48 142t48 142t135.5 94t203.5 33t203.5 -33t136 -94t48.5 -142t-48.5 -141.5t-136 -94t-203.5 -33.5q-115 0 -203 33zM547.5 143.5q51.5 39.5 51.5 106.5t-51.5 106.5t-136.5 39.5t-136.5 -39.5t-51.5 -106.5t51.5 -106.5t136.5 -39.5 t136.5 39.5zM379 730h153l-166 -157h-142zM611 730h153l-166 -157h-142z" glyph-name="ohungarumlaut" horiz-adv-x="822" unicode="ő"/>
<glyph d="M1410 141v-141h-977q-122 0 -215.5 44t-145 127t-51.5 196q0 111 56 188t154.5 116t224.5 39h947v-141h-515v-143h498v-132h-498v-153h522zM686 137v436h-211q-112 0 -177 -54.5t-65 -155.5q0 -109 64.5 -167.5t175.5 -58.5h213z" glyph-name="OE" horiz-adv-x="1474" unicode="Œ"/>
<glyph d="M1354 209h-559q11 -51 63 -79t137 -28q63 0 114 19.5t79 54.5l147 -64q-53 -64 -141 -97.5t-207 -33.5q-95 0 -169 21t-122 61q-51 -39 -122.5 -60.5t-156.5 -21.5q-115 0 -204 33.5t-139 94.5t-50 141q0 82 49.5 143t139 93.5t204.5 32.5q86 0 158 -21.5t123 -60.5 q49 40 121.5 61t162.5 21q117 0 200.5 -34t127.5 -97.5t44 -151.5v-27zM1163 308q-1 47 -52 77t-130 30t-128 -29t-58 -79h368v1zM558.5 148q51.5 40 51.5 102t-51.5 102t-141.5 40q-60 0 -104 -18.5t-67 -51t-23 -72.5t23 -72.5t67 -51t104 -18.5q90 0 141.5 40z" glyph-name="oe" horiz-adv-x="1381" unicode="œ"/>
<glyph d="M502 760h-167l151 118h196zM501 251h-207v-251h-202v710h484q157 0 225.5 -65t68.5 -160q0 -67 -38.5 -125.5t-121.5 -84.5l186 -275h-227zM294 380h236q68 0 97.5 28t29.5 71q0 42 -29.5 69t-96.5 27h-237v-195z" glyph-name="Racute" horiz-adv-x="926" unicode="Ŕ"/>
<glyph d="M332.5 471q60.5 44 146.5 44q32 0 65 -5v-164q-42 8 -80 8q-90 0 -138 -45q-52 -49 -52 -147v-162h-192v500h169v-148q21 75 81.5 119zM367 730h196l-198 -157h-161z" glyph-name="racute" horiz-adv-x="561" unicode="ŕ"/>
<glyph d="M501 251h-207v-251h-202v710h484q157 0 225.5 -65t68.5 -160q0 -67 -38.5 -125.5t-121.5 -84.5l186 -275h-227zM294 380h236q68 0 97.5 28t29.5 71q0 42 -29.5 69t-96.5 27h-237v-195zM381 -197q38 9 53 19.5t17 29.5h-99v100h187v-76q0 -98 -132 -120z" glyph-name="uni0156" horiz-adv-x="926" unicode="Ŗ"/>
<glyph d="M332.5 471q60.5 44 146.5 44q32 0 65 -5v-164q-42 8 -80 8q-90 0 -138 -45q-52 -49 -52 -147v-162h-192v500h169v-148q21 75 81.5 119zM113 -197q38 9 53 19.5t17 29.5h-99v100h187v-76q0 -98 -132 -120z" glyph-name="uni0157" horiz-adv-x="561" unicode="ŗ"/>
<glyph d="M319 755l-153 118h165l88 -65l89 65h164l-152 -118h-201zM501 251h-207v-251h-202v710h484q157 0 225.5 -65t68.5 -160q0 -67 -38.5 -125.5t-121.5 -84.5l186 -275h-227zM294 380h236q68 0 97.5 28t29.5 71q0 42 -29.5 69t-96.5 27h-237v-195z" glyph-name="Rcaron" horiz-adv-x="926" unicode="Ř"/>
<glyph d="M332.5 471q60.5 44 146.5 44q32 0 65 -5v-164q-42 8 -80 8q-90 0 -138 -45q-52 -49 -52 -147v-162h-192v500h169v-148q21 75 81.5 119zM188 725l102 -101l102 101h154l-156 -157h-200l-156 157h154z" glyph-name="rcaron" horiz-adv-x="561" unicode="ř"/>
<glyph d="M510 878h196l-180 -118h-167zM173.5 24q-118.5 48 -173.5 133l144 101q46 -64 127 -101.5t187 -37.5q97 0 143 20t46 62q0 33 -25.5 48.5t-89.5 22.5l-218 24q-132 14 -194.5 65.5t-62.5 148.5q0 106 99 165t281 59q278 0 408 -146l-127 -107q-40 53 -115.5 83t-175.5 30 q-83 0 -126.5 -19t-43.5 -55q0 -33 26 -48t95 -23l196 -19q99 -10 159.5 -34.5t89 -67t28.5 -108.5q0 -117 -105 -180.5t-298 -63.5q-156 0 -274.5 48z" glyph-name="Sacute" horiz-adv-x="883" unicode="Ś"/>
<glyph d="M175 9q-95 28 -155 85l93 88q48 -44 122.5 -65.5t186.5 -21.5q67 0 96.5 11t29.5 36q0 19 -14.5 27t-52.5 12l-218 19q-108 11 -159.5 48t-51.5 106q0 82 81.5 123.5t241.5 41.5q223 0 340 -86l-78 -92q-51 35 -117 50.5t-162 15.5q-68 0 -98.5 -10t-30.5 -33 q0 -18 16 -26.5t53 -12.5l222 -19q110 -10 157.5 -44t47.5 -103q0 -87 -79.5 -132.5t-241.5 -45.5q-134 0 -229 28zM451 730h196l-198 -157h-161z" glyph-name="sacute" horiz-adv-x="758" unicode="ś"/>
<glyph d="M531 760l-88 65l-89 -65h-164l152 118h201l153 -118h-165zM173.5 24q-118.5 48 -173.5 133l144 101q46 -64 127 -101.5t187 -37.5q97 0 143 20t46 62q0 33 -25.5 48.5t-89.5 22.5l-218 24q-132 14 -194.5 65.5t-62.5 148.5q0 106 99 165t281 59q278 0 408 -146l-127 -107 q-40 53 -115.5 83t-175.5 30q-83 0 -126.5 -19t-43.5 -55q0 -33 26 -48t95 -23l196 -19q99 -10 159.5 -34.5t89 -67t28.5 -108.5q0 -117 -105 -180.5t-298 -63.5q-156 0 -274.5 48z" glyph-name="Scircumflex" horiz-adv-x="883" unicode="Ŝ"/>
<glyph d="M175 9q-95 28 -155 85l93 88q48 -44 122.5 -65.5t186.5 -21.5q67 0 96.5 11t29.5 36q0 19 -14.5 27t-52.5 12l-218 19q-108 11 -159.5 48t-51.5 106q0 82 81.5 123.5t241.5 41.5q223 0 340 -86l-78 -92q-51 35 -117 50.5t-162 15.5q-68 0 -98.5 -10t-30.5 -33 q0 -18 16 -26.5t53 -12.5l222 -19q110 -10 157.5 -44t47.5 -103q0 -87 -79.5 -132.5t-241.5 -45.5q-134 0 -229 28zM476 573l-102 101l-102 -101h-154l156 157h200l156 -157h-154z" glyph-name="scircumflex" horiz-adv-x="758" unicode="ŝ"/>
<glyph d="M755.5 45q-95.5 -63 -271.5 -68l-27 -34q31 16 77 16q62 0 96.5 -24.5t34.5 -67.5q0 -46 -46 -71t-128 -25q-113 0 -156 57l92 28q21 -24 65 -24q25 0 38.5 9t13.5 26t-13 26t-37 9q-35 0 -52 -16l-94 18l50 73q-139 8 -243.5 55.5t-154.5 124.5l144 101 q46 -64 127 -101.5t187 -37.5q97 0 143 20t46 62q0 33 -25.5 48.5t-89.5 22.5l-218 24q-132 14 -194.5 65.5t-62.5 148.5q0 106 99 165t281 59q278 0 408 -146l-127 -107q-40 53 -115.5 83t-175.5 30q-83 0 -126.5 -19t-43.5 -55q0 -33 26 -48t95 -23l196 -19 q99 -10 159.5 -34.5t89 -67t28.5 -108.5q0 -112 -95.5 -175z" glyph-name="Scedilla" horiz-adv-x="883" unicode="Ş"/>
<glyph d="M423 -19l-31 -38q31 16 77 16q62 0 96.5 -24.5t34.5 -67.5q0 -46 -46 -71t-128 -25q-113 0 -156 57l92 28q21 -24 65 -24q25 0 38.5 9t13.5 26t-13 26t-37 9q-35 0 -52 -16l-94 18l53 79q-211 13 -316 111l93 88q48 -44 122.5 -65.5t186.5 -21.5q67 0 96.5 11t29.5 36 q0 19 -14.5 27t-52.5 12l-218 19q-108 11 -159.5 48t-51.5 106q0 82 81.5 123.5t241.5 41.5q223 0 340 -86l-78 -92q-51 35 -117 50.5t-162 15.5q-68 0 -98.5 -10t-30.5 -33q0 -18 16 -26.5t53 -12.5l222 -19q110 -10 157.5 -44t47.5 -103q0 -172 -302 -178z" glyph-name="scedilla" horiz-adv-x="758" unicode="ş"/>
<glyph d="M544 755h-201l-153 118h165l88 -65l89 65h164zM173.5 24q-118.5 48 -173.5 133l144 101q46 -64 127 -101.5t187 -37.5q97 0 143 20t46 62q0 33 -25.5 48.5t-89.5 22.5l-218 24q-132 14 -194.5 65.5t-62.5 148.5q0 106 99 165t281 59q278 0 408 -146l-127 -107 q-40 53 -115.5 83t-175.5 30q-83 0 -126.5 -19t-43.5 -55q0 -33 26 -48t95 -23l196 -19q99 -10 159.5 -34.5t89 -67t28.5 -108.5q0 -117 -105 -180.5t-298 -63.5q-156 0 -274.5 48z" glyph-name="Scaron" horiz-adv-x="883" unicode="Š"/>
<glyph d="M175 9q-95 28 -155 85l93 88q48 -44 122.5 -65.5t186.5 -21.5q67 0 96.5 11t29.5 36q0 19 -14.5 27t-52.5 12l-218 19q-108 11 -159.5 48t-51.5 106q0 82 81.5 123.5t241.5 41.5q223 0 340 -86l-78 -92q-51 35 -117 50.5t-162 15.5q-68 0 -98.5 -10t-30.5 -33 q0 -18 16 -26.5t53 -12.5l222 -19q110 -10 157.5 -44t47.5 -103q0 -87 -79.5 -132.5t-241.5 -45.5q-134 0 -229 28zM272 725l102 -101l102 101h154l-156 -157h-200l-156 157h154z" glyph-name="scaron" horiz-adv-x="758" unicode="š"/>
<glyph d="M450 0l-46 -57q31 16 77 16q62 0 96.5 -24.5t34.5 -67.5q0 -46 -46 -71t-128 -25q-113 0 -156 57l92 28q21 -24 65 -24q25 0 38.5 9t13.5 26t-13 26t-37 9q-35 0 -52 -16l-94 18l65 96h-55v553h-295v157h793v-157h-296v-553h-57z" glyph-name="uni0162" horiz-adv-x="813" unicode="Ţ"/>
<glyph d="M563.5 -65.5q34.5 -24.5 34.5 -67.5q0 -46 -46 -71t-128 -25q-113 0 -156 57l92 28q21 -24 65 -24q25 0 38.5 9t13.5 26t-13 26t-37 9q-35 0 -52 -16l-94 18l59 87q-189 27 -189 205v183h-147v121h147v117l192 68v-185h226v-121h-226v-145q0 -54 30 -78.5t93 -24.5 q55 0 103 12v-135q-47 -20 -145 -22l-34 -43q31 16 77 16q62 0 96.5 -24.5z" glyph-name="uni0163" horiz-adv-x="607" unicode="ţ"/>
<glyph d="M306 755l-153 118h165l88 -65l89 65h164l-152 -118h-201zM803 553h-296v-553h-202v553h-295v157h793v-157z" glyph-name="Tcaron" horiz-adv-x="813" unicode="Ť"/>
<glyph d="M4 500h147v117l192 68v-185h226v-121h-226v-145q0 -54 30 -78.5t93 -24.5q55 0 103 12v-135q-52 -22 -152 -22q-132 0 -199 51.5t-67 158.5v183h-147v121zM428 572q33 4 46.5 13.5t15.5 24.5h-92v100h181v-69q0 -51 -29 -82t-97 -39z" glyph-name="tcaron" horiz-adv-x="608" unicode="ť"/>
<glyph d="M507 553v-130h220v-87h-220v-336h-202v336h-219v87h219v130h-295v157h793v-157h-296z" glyph-name="Tbar" horiz-adv-x="813" unicode="Ŧ"/>
<glyph d="M343 379v-66h225v-84h-225q1 -51 31.5 -74.5t91.5 -23.5q55 0 103 12v-135q-52 -22 -152 -22q-132 0 -199 51.5t-67 158.5v33h-146v84h146v66h-147v121h147v117l192 68v-185h226v-121h-226z" glyph-name="tbar" horiz-adv-x="607" unicode="ŧ"/>
<glyph d="M520 762.5q-26 7.5 -57 21.5q-28 11 -42 15.5t-32 4.5q-53 0 -67 -53l-99 40q17 58 56.5 86t104.5 28q35 0 60.5 -7t56.5 -21q25 -11 40.5 -16t34.5 -5q27 0 43.5 12.5t23.5 40.5l99 -41q-17 -57 -56.5 -85t-104.5 -28q-35 0 -61 7.5zM265 710v-371q0 -92 56.5 -148.5 t159.5 -56.5q67 0 115.5 26t74 72.5t25.5 106.5v371h202v-392q0 -102 -49 -179.5t-142.5 -120t-225.5 -42.5t-226 43t-143 120.5t-49 180.5v390h202z" glyph-name="Utilde" horiz-adv-x="961" unicode="Ũ"/>
<glyph d="M135 45q-71 64 -71 184v271h193v-225q0 -84 41.5 -122t112.5 -38q91 0 138.5 49.5t47.5 122.5v213h192v-500h-189v117q-33 -66 -103.5 -101t-161.5 -35q-129 0 -200 64zM468.5 592.5q-26.5 8.5 -61.5 25.5q-28 13 -44 19t-36 6q-28 0 -45 -15t-25 -48l-102 41 q28 124 158 124q38 0 64.5 -8.5t61.5 -25.5q25 -13 42.5 -19t36.5 -6q28 0 45 15t25 48l102 -41q-29 -124 -158 -124q-37 0 -63.5 8.5z" glyph-name="utilde" horiz-adv-x="871" unicode="ũ"/>
<glyph d="M236 863h490v-102h-490v102zM265 710v-371q0 -92 56.5 -148.5t159.5 -56.5q67 0 115.5 26t74 72.5t25.5 106.5v371h202v-392q0 -102 -49 -179.5t-142.5 -120t-225.5 -42.5t-226 43t-143 120.5t-49 180.5v390h202z" glyph-name="Umacron" horiz-adv-x="961" unicode="Ū"/>
<glyph d="M135 45q-71 64 -71 184v271h193v-225q0 -84 41.5 -122t112.5 -38q91 0 138.5 49.5t47.5 122.5v213h192v-500h-189v117q-33 -66 -103.5 -101t-161.5 -35q-129 0 -200 64zM174 697h497v-104h-497v104z" glyph-name="umacron" horiz-adv-x="871" unicode="ū"/>
<glyph d="M415 845q24 -12 66 -12q43 0 67 12t29 33h124q-7 -59 -66.5 -91t-153.5 -32q-93 0 -152.5 32t-66.5 91h124q5 -21 29 -33zM265 710v-371q0 -92 56.5 -148.5t159.5 -56.5q67 0 115.5 26t74 72.5t25.5 106.5v371h202v-392q0 -102 -49 -179.5t-142.5 -120t-225.5 -42.5 t-226 43t-143 120.5t-49 180.5v390h202z" glyph-name="Ubreve" horiz-adv-x="961" unicode="Ŭ"/>
<glyph d="M135 45q-71 64 -71 184v271h193v-225q0 -84 41.5 -122t112.5 -38q91 0 138.5 49.5t47.5 122.5v213h192v-500h-189v117q-33 -66 -103.5 -101t-161.5 -35q-129 0 -200 64zM424 652q83 0 92 78h130q-7 -80 -65 -121t-157 -41q-100 0 -158 41t-65 121h130q9 -78 93 -78z" glyph-name="ubreve" horiz-adv-x="871" unicode="ŭ"/>
<glyph d="M376 774.5q-40 32.5 -40 85.5t40 85.5t105 32.5t105.5 -32.5t40.5 -85.5t-40.5 -85.5t-105.5 -32.5t-105 32.5zM523.5 822q16.5 15 16.5 38q0 24 -16.5 39t-42.5 15t-42.5 -15t-16.5 -39q0 -23 16.5 -38t42.5 -15t42.5 15zM265 710v-371q0 -92 56.5 -148.5t159.5 -56.5 q67 0 115.5 26t74 72.5t25.5 106.5v371h202v-392q0 -102 -49 -179.5t-142.5 -120t-225.5 -42.5t-226 43t-143 120.5t-49 180.5v390h202z" glyph-name="Uring" horiz-adv-x="961" unicode="Ů"/>
<glyph d="M135 45q-71 64 -71 184v271h193v-225q0 -84 41.5 -122t112.5 -38q91 0 138.5 49.5t47.5 122.5v213h192v-500h-189v117q-33 -66 -103.5 -101t-161.5 -35q-129 0 -200 64zM287.5 589.5q-48.5 32.5 -48.5 88.5q0 55 48.5 88t135.5 33q88 0 136.5 -33t48.5 -88 q0 -56 -48.5 -88.5t-136.5 -32.5q-87 0 -135.5 32.5zM489.5 638q23.5 15 23.5 40t-23.5 40t-66.5 15t-66 -15t-23 -40t23 -40t66 -15t66.5 15z" glyph-name="uring" horiz-adv-x="871" unicode="ů"/>
<glyph d="M435 878h161l-160 -118h-150zM674 878h161l-160 -118h-150zM265 710v-371q0 -92 56.5 -148.5t159.5 -56.5q67 0 115.5 26t74 72.5t25.5 106.5v371h202v-392q0 -102 -49 -179.5t-142.5 -120t-225.5 -42.5t-226 43t-143 120.5t-49 180.5v390h202z" glyph-name="Uhungarumlaut" horiz-adv-x="961" unicode="Ű"/>
<glyph d="M135 45q-71 64 -71 184v271h193v-225q0 -84 41.5 -122t112.5 -38q91 0 138.5 49.5t47.5 122.5v213h192v-500h-189v117q-33 -66 -103.5 -101t-161.5 -35q-129 0 -200 64zM391 730h153l-166 -157h-142zM623 730h153l-166 -157h-142z" glyph-name="uhungarumlaut" horiz-adv-x="871" unicode="ű"/>
<glyph d="M898 710v-392q0 -137 -85.5 -226.5t-241.5 -109.5q-33 -13 -48.5 -31.5t-15.5 -39.5q0 -19 13 -31.5t33 -12.5q42 0 54 43l115 -16q-8 -48 -55.5 -75t-125.5 -27q-76 0 -120 27t-44 74q0 53 52 85q-116 8 -198.5 53t-125 119t-42.5 170v390h202v-371q0 -92 56.5 -148.5 t159.5 -56.5q67 0 115.5 26t74 72.5t25.5 106.5v371h202z" glyph-name="Uogonek" horiz-adv-x="961" unicode="Ų"/>
<glyph d="M827 -106q-8 -48 -55.5 -75t-125.5 -27q-76 0 -120 27t-44 74q0 80 118 112v112q-33 -66 -103.5 -101t-161.5 -35q-129 0 -200 64t-71 184v271h193v-225q0 -84 41.5 -122t112.5 -38q91 0 138.5 49.5t47.5 122.5v213h192v-500h-28q-76 -7 -112.5 -32t-36.5 -57 q0 -19 13 -31.5t33 -12.5q42 0 54 43z" glyph-name="uogonek" horiz-adv-x="871" unicode="ų"/>
<glyph d="M767 760l-88 65l-89 -65h-164l152 118h201l153 -118h-165zM18 710h205l142 -459q1 -5 7 -27t7 -41h4q3 21 20 68l170 459h210l170 -459q17 -47 20 -68h3q1 17 7 38.5t8 29.5l142 459h205l-246 -710h-230l-166 454q-13 32 -16 62h-4q-3 -30 -16 -62l-166 -454h-230z" glyph-name="Wcircumflex" horiz-adv-x="1356" unicode="Ŵ"/>
<glyph d="M12 500h193l110 -305q8 -27 13 -54h2q3 23 15 54l127 305h195l126 -305q12 -31 15 -54h2q5 27 13 54l110 305h193l-207 -500h-209l-122 288q-14 34 -17 61h-4q-3 -27 -17 -61l-121 -288h-210zM671 573l-102 101l-102 -101h-154l156 157h200l156 -157h-154z" glyph-name="wcircumflex" horiz-adv-x="1138" unicode="ŵ"/>
<glyph d="M539 760l-88 65l-89 -65h-164l152 118h201l153 -118h-165zM345 241l-354 469h229l205 -289q20 -27 24 -39h2q4 15 23 39l213 289h217l-357 -469v-241h-202v241z" glyph-name="Ycircumflex" horiz-adv-x="895" unicode="Ŷ"/>
<glyph d="M49 -203v143q54 -10 95 -10q44 0 87.5 16.5t64.5 44.5l2 6l-304 503h215l158 -299q17 -34 25 -57h4q5 13 24 54l152 302h207l-291 -524q-54 -101 -128.5 -145.5t-191.5 -44.5q-64 0 -119 11zM489 573l-102 101l-102 -101h-154l156 157h200l156 -157h-154z" glyph-name="ycircumflex" horiz-adv-x="773" unicode="ŷ"/>
<glyph d="M196 878h181v-118h-181v118zM524 878h181v-118h-181v118zM345 241l-354 469h229l205 -289q20 -27 24 -39h2q4 15 23 39l213 289h217l-357 -469v-241h-202v241z" glyph-name="Ydieresis" horiz-adv-x="895" unicode="Ÿ"/>
<glyph d="M510 878h196l-180 -118h-167zM556 571h-488v139h756v-131l-504 -440h523v-139h-791v131z" glyph-name="Zacute" horiz-adv-x="880" unicode="Ź"/>
<glyph d="M442 382h-382v118h630v-118l-395 -264h411v-118h-661v121zM450 730h196l-198 -157h-161z" glyph-name="zacute" horiz-adv-x="740" unicode="ź"/>
<glyph d="M341 878h203v-118h-203v118zM556 571h-488v139h756v-131l-504 -440h523v-139h-791v131z" glyph-name="Zdotaccent" horiz-adv-x="880" unicode="Ż"/>
<glyph d="M442 382h-382v118h630v-118l-395 -264h411v-118h-661v121zM272 727h203v-154h-203v154z" glyph-name="zdotaccent" horiz-adv-x="740" unicode="ż"/>
<glyph d="M543 755h-201l-153 118h165l88 -65l89 65h164zM556 571h-488v139h756v-131l-504 -440h523v-139h-791v131z" glyph-name="Zcaron" horiz-adv-x="880" unicode="Ž"/>
<glyph d="M442 382h-382v118h630v-118l-395 -264h411v-118h-661v121zM271 725l102 -101l102 101h154l-156 -157h-200l-156 157h154z" glyph-name="zcaron" horiz-adv-x="740" unicode="ž"/>
<glyph d="M475 554.5q-30 -27.5 -40 -95.5l-4 -31h186v-126h-204l-64 -452h-214l66 452h-163v126h182l4 30q14 102 56.5 160t109.5 81t164 23q31 0 60.5 -4.5t38.5 -7.5v-137q-9 3 -33 6t-50 3q-65 0 -95 -27.5z" glyph-name="florin" horiz-adv-x="665" unicode="ƒ"/>
<glyph d="M1105 760h-167l151 118h196zM1423 141v-141h-741v142h-340l-110 -142h-230l593 710h821v-141h-532v-143h515v-132h-515v-153h539zM682 268v314l-243 -314h243z" glyph-name="AEacute" horiz-adv-x="1487" unicode="Ǽ"/>
<glyph d="M1259 209h-521q10 -51 57 -79t124 -28q56 0 101.5 19.5t73.5 55.5l146 -65q-50 -65 -133 -98t-195 -33q-105 0 -182.5 28.5t-122.5 82.5q-44 -56 -117.5 -83.5t-179.5 -27.5q-127 0 -196 40.5t-69 115.5q0 71 64.5 111t189.5 44l248 9v12q0 93 -134 93q-67 0 -107.5 -21 t-45.5 -59h-201q8 58 54.5 102t124 67.5t177.5 23.5q168 0 242 -67q91 67 249 67q167 0 260 -74t93 -207v-29zM1068 308q-4 48 -49 77.5t-113 29.5q-73 0 -117 -27.5t-52 -79.5h331zM549 222l-198 -8q-107 -3 -107 -64q0 -29 31 -45t89 -16q83 0 134 32t51 85v16zM721 730 h196l-198 -157h-161z" glyph-name="aeacute" horiz-adv-x="1287" unicode="ǽ"/>
<glyph d="M583 760h-167l151 118h196zM943.5 501q29.5 -67 29.5 -146q0 -114 -59 -199.5t-166.5 -132.5t-250.5 -47q-172 0 -293 68l-82 -72l-63 55l76 66q-55 49 -84.5 116t-29.5 146q0 114 58.5 200t166.5 132.5t251 46.5q171 0 293 -67l80 70l64 -54l-75 -66q55 -49 84.5 -116z M278 219l374 327q-64 38 -155 38q-78 0 -138 -28.5t-93 -80.5t-33 -120q0 -80 45 -136zM635 154.5q60 28.5 93 80.5t33 120q0 80 -45 137l-375 -328q67 -38 156 -38q78 0 138 28.5z" glyph-name="Oslashacute" horiz-adv-x="994" unicode="Ǿ"/>
<glyph d="M777.5 349q21.5 -45 21.5 -99q0 -81 -48.5 -141.5t-136 -94t-203.5 -33.5q-141 0 -241 50l-87 -64l-50 48l76 56q-41 34 -63 79.5t-22 99.5q0 81 48 142t135.5 94t203.5 33q143 0 243 -50l86 63l49 -50l-74 -54q41 -34 62.5 -79zM247 172l275 200q-45 24 -111 24 q-85 0 -136.5 -39.5t-51.5 -106.5q0 -44 24 -78zM547.5 143.5q51.5 39.5 51.5 106.5q0 43 -23 77l-274 -200q46 -23 109 -23q85 0 136.5 39.5zM499 730h196l-198 -157h-161z" glyph-name="oslashacute" horiz-adv-x="822" unicode="ǿ"/>
<glyph d="M173.5 24q-118.5 48 -173.5 133l144 101q46 -64 127 -101.5t187 -37.5q97 0 143 20t46 62q0 33 -25.5 48.5t-89.5 22.5l-218 24q-132 14 -194.5 65.5t-62.5 148.5q0 106 99 165t281 59q278 0 408 -146l-127 -107q-40 53 -115.5 83t-175.5 30q-83 0 -126.5 -19t-43.5 -55 q0 -33 26 -48t95 -23l196 -19q99 -10 159.5 -34.5t89 -67t28.5 -108.5q0 -117 -105 -180.5t-298 -63.5q-156 0 -274.5 48zM395 -197q38 9 53 19.5t17 29.5h-99v100h187v-76q0 -98 -132 -120z" glyph-name="uni0218" horiz-adv-x="883" unicode="Ș"/>
<glyph d="M175 9q-95 28 -155 85l93 88q48 -44 122.5 -65.5t186.5 -21.5q67 0 96.5 11t29.5 36q0 19 -14.5 27t-52.5 12l-218 19q-108 11 -159.5 48t-51.5 106q0 82 81.5 123.5t241.5 41.5q223 0 340 -86l-78 -92q-51 35 -117 50.5t-162 15.5q-68 0 -98.5 -10t-30.5 -33 q0 -18 16 -26.5t53 -12.5l222 -19q110 -10 157.5 -44t47.5 -103q0 -87 -79.5 -132.5t-241.5 -45.5q-134 0 -229 28zM330 -197q38 9 53 19.5t17 29.5h-99v100h187v-76q0 -98 -132 -120z" glyph-name="uni0219" horiz-adv-x="758" unicode="ș"/>
<glyph d="M803 553h-296v-553h-202v553h-295v157h793v-157zM342 -197q38 9 53 19.5t17 29.5h-99v100h187v-76q0 -98 -132 -120z" glyph-name="uni021A" horiz-adv-x="813" unicode="Ț"/>
<glyph d="M4 500h147v117l192 68v-185h226v-121h-226v-145q0 -54 30 -78.5t93 -24.5q55 0 103 12v-135q-52 -22 -152 -22q-132 0 -199 51.5t-67 158.5v183h-147v121zM328 -197q38 9 53 19.5t17 29.5h-99v100h187v-76q0 -98 -132 -120z" glyph-name="uni021B" horiz-adv-x="607" unicode="ț"/>
<glyph d="M-38 -202v137q23 -4 61 -4q36 0 53.5 23.5t17.5 77.5v468h192v-493q0 -109 -55 -163.5t-183 -54.5q-58 0 -86 9z" glyph-name="uni0237" horiz-adv-x="368" unicode="ȷ"/>
<glyph d="M866 307q40 -42 40 -111q0 -92 -70.5 -144t-197.5 -52h-2v-105h-79v105h-175v-105h-78v105h-212v695h212v93h78v-93h175v93h79v-93q123 -1 187.5 -46t64.5 -132q0 -60 -37 -100.5t-103 -54.5q78 -13 118 -55zM291 567v-157h289q48 0 73.5 20.5t25.5 59.5q0 77 -100 77 h-288zM670.5 149q27.5 21 27.5 62q0 39 -29 60t-82 21h-296v-164h298q54 0 81.5 21z" glyph-name="uni0243" horiz-adv-x="948" unicode="Ƀ"/>
<glyph d="M393 573l-102 101l-102 -101h-154l156 157h200l156 -157h-154z" glyph-name="circumflex" horiz-adv-x="600" unicode="ˆ"/>
<glyph d="M189 725l102 -101l102 101h154l-156 -157h-200l-156 157h154z" glyph-name="caron" horiz-adv-x="600" unicode="ˇ"/>
<glyph d="M278 652q83 0 92 78h130q-7 -80 -65 -121t-157 -41q-100 0 -158 41t-65 121h130q9 -78 93 -78z" glyph-name="breve" horiz-adv-x="600" unicode="˘"/>
<glyph d="M50 727h203v-154h-203v154z" glyph-name="dotaccent" horiz-adv-x="600" unicode="˙"/>
<glyph d="M82.5 589.5q-48.5 32.5 -48.5 88.5q0 55 48.5 88t135.5 33q88 0 136.5 -33t48.5 -88q0 -56 -48.5 -88.5t-136.5 -32.5q-87 0 -135.5 32.5zM284.5 638q23.5 15 23.5 40t-23.5 40t-66.5 15t-66 -15t-23 -40t23 -40t66 -15t66.5 15z" glyph-name="ring" horiz-adv-x="600" unicode="˚"/>
<glyph d="M339.5 -181q-47.5 -27 -125.5 -27q-76 0 -120 27t-44 74q0 80 119 112l160 -5q-76 -7 -112.5 -32t-36.5 -57q0 -19 13 -31.5t33 -12.5q42 0 54 43l115 -16q-8 -48 -55.5 -75z" glyph-name="ogonek" horiz-adv-x="600" unicode="˛"/>
<glyph d="M369.5 592.5q-26.5 8.5 -61.5 25.5q-28 13 -44 19t-36 6q-28 0 -45 -15t-25 -48l-102 41q28 124 158 124q38 0 64.5 -8.5t61.5 -25.5q25 -13 42.5 -19t36.5 -6q28 0 45 15t25 48l102 -41q-29 -124 -158 -124q-37 0 -63.5 8.5z" glyph-name="tilde" horiz-adv-x="600" unicode="˜"/>
<glyph d="M234 730h153l-166 -157h-142zM466 730h153l-166 -157h-142z" glyph-name="hungarumlaut" horiz-adv-x="600" unicode="˝"/>
<glyph d="M-154 573l-198 157h196l164 -157h-162z" glyph-name="gravecomb" horiz-adv-x="0" unicode="̀"/>
<glyph d="M-191 730h196l-198 -157h-161z" glyph-name="acutecomb" horiz-adv-x="0" unicode="́"/>
<glyph d="M-189 573l-102 101l-102 -101h-154l156 157h200l156 -157h-154z" glyph-name="uni0302" horiz-adv-x="0" unicode="̂"/>
<glyph d="M-277.5 592.5q-26.5 8.5 -61.5 25.5q-28 13 -44 19t-36 6q-28 0 -45 -15t-25 -48l-102 41q28 124 158 124q38 0 64.5 -8.5t61.5 -25.5q25 -13 42.5 -19t36.5 -6q28 0 45 15t25 48l102 -41q-29 -124 -158 -124q-37 0 -63.5 8.5z" glyph-name="tildecomb" horiz-adv-x="0" unicode="̃"/>
<glyph d="M-553 697h497v-104h-497v104z" glyph-name="uni0304" horiz-adv-x="0" unicode="̄"/>
<glyph d="M-276 652q83 0 92 78h130q-7 -80 -65 -121t-157 -41q-100 0 -158 41t-65 121h130q9 -78 93 -78z" glyph-name="uni0306" horiz-adv-x="0" unicode="̆"/>
<glyph d="M-254 727h203v-154h-203v154z" glyph-name="uni0307" horiz-adv-x="0" unicode="̇"/>
<glyph d="M-550 722h181v-143h-181v143zM-219 722h181v-143h-181v143z" glyph-name="uni0308" horiz-adv-x="0" unicode="̈"/>
<glyph d="M-354.5 589.5q-48.5 32.5 -48.5 88.5q0 55 48.5 88t135.5 33q88 0 136.5 -33t48.5 -88q0 -56 -48.5 -88.5t-136.5 -32.5q-87 0 -135.5 32.5zM-152.5 638q23.5 15 23.5 40t-23.5 40t-66.5 15t-66 -15t-23 -40t23 -40t66 -15t66.5 15z" glyph-name="uni030A" horiz-adv-x="0" unicode="̊"/>
<glyph d="M-413 730h153l-166 -157h-142zM-181 730h153l-166 -157h-142z" glyph-name="uni030B" horiz-adv-x="0" unicode="̋"/>
<glyph d="M-393 725l102 -101l102 101h154l-156 -157h-200l-156 157h154z" glyph-name="uni030C" horiz-adv-x="0" unicode="̌"/>
<glyph d="M-79 721q-38 -9 -53 -19.5t-17 -29.5h99v-100h-187v76q0 98 132 120z" glyph-name="uni0312" horiz-adv-x="0" unicode="̒"/>
<glyph d="M-208 -197q38 9 53 19.5t17 29.5h-99v100h187v-76q0 -98 -132 -120z" glyph-name="uni0326" horiz-adv-x="0" unicode="̦"/>
<glyph d="M-210 3l-48 -60q31 16 77 16q62 0 96.5 -24.5t34.5 -67.5q0 -46 -46 -71t-128 -25q-113 0 -156 57l92 28q21 -24 65 -24q25 0 38.5 9t13.5 26t-13 26t-37 9q-35 0 -52 -16l-94 18l67 99h90z" glyph-name="uni0327" horiz-adv-x="0" unicode="̧"/>
<glyph d="M-106.5 -181q-47.5 -27 -125.5 -27q-76 0 -120 27t-44 74q0 80 119 112l160 -5q-76 -7 -112.5 -32t-36.5 -57q0 -19 13 -31.5t33 -12.5q42 0 54 43l115 -16q-8 -48 -55.5 -75z" glyph-name="uni0328" horiz-adv-x="0" unicode="̨"/>
<glyph d="M399 705h185l382 -705h-950zM281 140h416l-207 395z" glyph-name="uni0394" horiz-adv-x="982" unicode="Δ"/>
<glyph d="M543 0l-22 266q89 10 134 52.5t45 110.5q0 74 -58 118.5t-165 44.5q-106 0 -164.5 -44.5t-58.5 -118.5q0 -68 45 -110.5t134 -52.5l-22 -266h-351v141h207l5 44q-105 24 -164 87t-59 160q0 90 53 157t150 103.5t225 36.5t225 -36.5t150.5 -104t53.5 -156.5 q0 -97 -59.5 -160t-164.5 -87l5 -44h207v-141h-351z" glyph-name="uni03A9" horiz-adv-x="954" unicode="Ω"/>
<glyph d="M807 500v-500h-189v117q-34 -67 -104 -101.5t-162 -34.5q-49 0 -95 11v-187h-175v695h192v-225q0 -84 42 -122t112 -38q92 0 139 49t47 123v213h193z" glyph-name="uni03BC" horiz-adv-x="889" unicode="μ"/>
<glyph d="M810 -12q-114 0 -156 43t-42 122v227h-276v-380h-192v380h-121v120h895v-120h-114v-204q0 -33 17 -46.5t48 -13.5q17 0 29.5 2t18.5 3v-120q-52 -13 -107 -13z" glyph-name="pi" horiz-adv-x="941" unicode="π"/>
<glyph d="M906 197q0 -95 -71 -146t-197 -51h-124v-105h-72v105h-350v695h350v93h72v-93h117q126 0 191.5 -44t65.5 -134q0 -59 -37.5 -100.5t-105.5 -56.5q161 -24 161 -163zM281 402h161v173h-161v-173zM514 575v-173h75q49 0 74.5 23t25.5 67q0 83 -100 83h-75zM442 120v177 h-161v-177h161zM679.5 142.5q27.5 22.5 27.5 67.5q0 42 -28.5 64.5t-80.5 22.5h-84v-177h86q52 0 79.5 22.5z" glyph-name="uni0E3F" horiz-adv-x="948" unicode="฿"/>
<glyph d="M591 760l-180 118h196l151 -118h-167zM18 710h205l142 -459q1 -5 7 -27t7 -41h4q3 21 20 68l170 459h210l170 -459q17 -47 20 -68h3q1 17 7 38.5t8 29.5l142 459h205l-246 -710h-230l-166 454q-13 32 -16 62h-4q-3 -30 -16 -62l-166 -454h-230z" glyph-name="Wgrave" horiz-adv-x="1356" unicode="Ẁ"/>
<glyph d="M12 500h193l110 -305q8 -27 13 -54h2q3 23 15 54l127 305h195l126 -305q12 -31 15 -54h2q5 27 13 54l110 305h193l-207 -500h-209l-122 288q-14 34 -17 61h-4q-3 -27 -17 -61l-121 -288h-210zM494 573l-198 157h196l164 -157h-162z" glyph-name="wgrave" horiz-adv-x="1138" unicode="ẁ"/>
<glyph d="M745 878h196l-180 -118h-167zM18 710h205l142 -459q1 -5 7 -27t7 -41h4q3 21 20 68l170 459h210l170 -459q17 -47 20 -68h3q1 17 7 38.5t8 29.5l142 459h205l-246 -710h-230l-166 454q-13 32 -16 62h-4q-3 -30 -16 -62l-166 -454h-230z" glyph-name="Wacute" horiz-adv-x="1356" unicode="Ẃ"/>
<glyph d="M12 500h193l110 -305q8 -27 13 -54h2q3 23 15 54l127 305h195l126 -305q12 -31 15 -54h2q5 27 13 54l110 305h193l-207 -500h-209l-122 288q-14 34 -17 61h-4q-3 -27 -17 -61l-121 -288h-210zM646 730h196l-198 -157h-161z" glyph-name="wacute" horiz-adv-x="1138" unicode="ẃ"/>
<glyph d="M424 878h181v-118h-181v118zM752 878h181v-118h-181v118zM18 710h205l142 -459q1 -5 7 -27t7 -41h4q3 21 20 68l170 459h210l170 -459q17 -47 20 -68h3q1 17 7 38.5t8 29.5l142 459h205l-246 -710h-230l-166 454q-13 32 -16 62h-4q-3 -30 -16 -62l-166 -454h-230z" glyph-name="Wdieresis" horiz-adv-x="1356" unicode="Ẅ"/>
<glyph d="M12 500h193l110 -305q8 -27 13 -54h2q3 23 15 54l127 305h195l126 -305q12 -31 15 -54h2q5 27 13 54l110 305h193l-207 -500h-209l-122 288q-14 34 -17 61h-4q-3 -27 -17 -61l-121 -288h-210zM313 722h181v-143h-181v143zM644 722h181v-143h-181v143z" glyph-name="wdieresis" horiz-adv-x="1138" unicode="ẅ"/>
<glyph d="M363 760l-180 118h196l151 -118h-167zM345 241l-354 469h229l205 -289q20 -27 24 -39h2q4 15 23 39l213 289h217l-357 -469v-241h-202v241z" glyph-name="Ygrave" horiz-adv-x="895" unicode="Ỳ"/>
<glyph d="M49 -203v143q54 -10 95 -10q44 0 87.5 16.5t64.5 44.5l2 6l-304 503h215l158 -299q17 -34 25 -57h4q5 13 24 54l152 302h207l-291 -524q-54 -101 -128.5 -145.5t-191.5 -44.5q-64 0 -119 11zM312 573l-198 157h196l164 -157h-162z" glyph-name="ygrave" horiz-adv-x="773" unicode="ỳ"/>
<glyph glyph-name="uni2002" horiz-adv-x="500" unicode=" "/>
<glyph glyph-name="uni2003" horiz-adv-x="1000" unicode=" "/>
<glyph glyph-name="uni2004" horiz-adv-x="333" unicode=" "/>
<glyph glyph-name="uni2005" horiz-adv-x="250" unicode=" "/>
<glyph glyph-name="uni2009" horiz-adv-x="135" unicode=" "/>
<glyph glyph-name="uni200A" horiz-adv-x="75" unicode=" "/>
<glyph d="M744 358v-161h-698v161h698z" glyph-name="endash" horiz-adv-x="790" unicode="–"/>
<glyph d="M1023 361v-167h-977v167h977z" glyph-name="emdash" horiz-adv-x="1069" unicode="—"/>
<glyph d="M248 660q-46 -9 -66.5 -30t-20.5 -55v-5h102v-180h-197v167q0 71 38.5 118.5t124.5 58.5z" glyph-name="quoteleft" horiz-adv-x="328" unicode="‘"/>
<glyph d="M80 440q46 9 66.5 30t20.5 55v5h-101v180h197v-167q0 -71 -39 -118.5t-124 -58.5z" glyph-name="quoteright" horiz-adv-x="328" unicode="’"/>
<glyph d="M80 -90q46 9 66.5 30t20.5 55v5h-101v180h197v-167q0 -71 -39 -118.5t-124 -58.5z" glyph-name="quotesinglbase" horiz-adv-x="328" unicode="‚"/>
<glyph d="M248 660q-46 -9 -66.5 -30t-20.5 -55v-5h102v-180h-197v167q0 71 38.5 118.5t124.5 58.5zM508 660q-46 -9 -66.5 -30t-20.5 -55v-5h101v-180h-197v167q0 71 39 118.5t124 58.5z" glyph-name="quotedblleft" horiz-adv-x="588" unicode="“"/>
<glyph d="M80 440q46 9 66.5 30t20.5 55v5h-101v180h197v-167q0 -70 -39 -118t-124 -59zM339 440q46 9 67 30t21 55v5h-102v180h197v-167q0 -71 -38.5 -118.5t-124.5 -58.5z" glyph-name="quotedblright" horiz-adv-x="588" unicode="”"/>
<glyph d="M80 -90q46 9 66.5 30t20.5 55v5h-101v180h197v-167q0 -70 -39 -118t-124 -59zM339 -90q46 9 67 30t21 55v5h-102v180h197v-167q0 -71 -38.5 -118.5t-124.5 -58.5z" glyph-name="quotedblbase" horiz-adv-x="588" unicode="„"/>
<glyph d="M390 -72h-127v468h-225v104h225v220h127v-220h226v-104h-226v-468z" glyph-name="dagger" horiz-adv-x="654" unicode="†"/>
<glyph d="M390 396v-144h226v-104h-226v-220h-127v220h-225v104h225v144h-225v104h225v220h127v-220h226v-104h-226z" glyph-name="daggerdbl" horiz-adv-x="654" unicode="‡"/>
<glyph d="M102.5 246.5q-36.5 35.5 -36.5 91.5q0 59 36.5 95t93.5 36t94 -36t37 -95q0 -56 -37 -91.5t-94 -35.5t-93.5 35.5z" glyph-name="bullet" horiz-adv-x="393" unicode="•"/>
<glyph d="M275 0h-209v162h209v-162zM654 0h-208v162h208v-162zM1034 0h-209v162h209v-162z" glyph-name="ellipsis" horiz-adv-x="1100" unicode="…"/>
<glyph d="M894 726h151l-750 -743h-150zM146.5 356q-59.5 24 -92 68t-32.5 103q0 57 32.5 100.5t91.5 67.5t137 24q76 0 135.5 -24.5t92.5 -68.5t33 -102q0 -57 -33 -100.5t-92 -67.5t-135 -24q-78 0 -137.5 24zM363 457q30 25 30 67q0 44 -30 69.5t-80 25.5q-51 0 -81.5 -25 t-30.5 -67q0 -44 30.5 -69.5t82.5 -25.5q49 0 79 25zM762.5 6q-59.5 24 -92 68t-32.5 103q0 57 32.5 100.5t92 67.5t136.5 24q76 0 135.5 -24.5t92.5 -68.5t33 -102q0 -57 -33 -100.5t-92 -67.5t-135 -24q-78 0 -137.5 24zM1319 6q-59 24 -91.5 68t-32.5 103 q0 57 32.5 100.5t91.5 67.5t137 24q76 0 135 -24.5t92 -68.5t33 -102q0 -57 -33 -100.5t-92 -67.5t-135 -24q-78 0 -137 24zM979.5 106.5q29.5 24.5 29.5 67.5q0 44 -30 69.5t-80 25.5q-51 0 -81.5 -25t-30.5 -67q0 -44 30.5 -69.5t82.5 -25.5q50 0 79.5 24.5zM1536 107 q30 25 30 67q0 44 -30 69.5t-80 25.5q-51 0 -81.5 -24.5t-30.5 -67.5q0 -45 30.5 -70t81.5 -25q50 0 80 25z" glyph-name="perthousand" horiz-adv-x="1739" unicode="‰"/>
<glyph d="M24 276l247 206h182l-244 -205l241 -210h-184z" glyph-name="guilsinglleft" horiz-adv-x="470" unicode="‹"/>
<glyph d="M20 67l241 210l-244 205h182l246 -206l-241 -209h-184z" glyph-name="guilsinglright" horiz-adv-x="470" unicode="›"/>
<glyph d="M345 727h159l-585 -744h-159z" glyph-name="fraction" horiz-adv-x="264" unicode="⁄"/>
<glyph d="M1249 379l-22 -62h142v-63h-164l-89 -254h-220l-90 254h-213l-89 -254h-221l-89 254h-164v63h142l-22 62h-120v63h98l-89 253h187l74 -253h206l91 253h205l92 -253h206l74 253h186l-89 -253h98v-63h-120zM659 442h81l-4 10q-14 41 -21 69t-13 64h-5q-4 -34 -11.5 -62 t-22.5 -71zM336 317h125l22 62h-165zM784 317l-22 62h-125l-21 -62h168zM1082 379h-166l23 -62h125zM438 254h-83l3 -11q14 -51 20.5 -79t10.5 -58h5q4 28 12 55.5t27 77.5zM1045 254h-83l5 -15q19 -52 27 -79.5t12 -53.5h4q9 56 32 137z" glyph-name="uni20A9" horiz-adv-x="1399" unicode="₩"/>
<glyph d="M707.5 155.5q57.5 28.5 89.5 82.5l181 -68q-54 -89 -161.5 -139.5t-254.5 -50.5q-123 0 -215 35.5t-149 97.5t-79 142h-114v64h103q-2 24 -2 36q0 17 1 25h-102v64h113q22 78 82 139.5t155 96.5t217 35q144 0 250.5 -49.5t155.5 -134.5l-185 -61q-60 98 -224 98 q-97 0 -157.5 -33t-85.5 -91h362v-64h-378q-1 -8 -1 -25q0 -12 2 -36h377v-64h-359q26 -60 86 -94t154 -34q81 0 138.5 28.5z" glyph-name="Euro" horiz-adv-x="1010" unicode="€"/>
<glyph d="M620 584q26 -36 32 -85h204v-70h-205q-13 -81 -82 -132.5t-208 -54.5h-23l297 -242h-246l-310 263v78h206q135 0 155 88h-361v70h361q-20 85 -141 85h-220v111h777v-111h-236z" glyph-name="uni20B9" horiz-adv-x="911" unicode="₹"/>
<glyph d="M833 258q-23 -85 -63.5 -141t-111 -86.5t-180.5 -30.5h-340v268l-115 -23v69l115 23v70l-115 -23v68l115 23v220h200v-180l317 63v-69l-317 -63v-70l317 63v-68l-317 -63v-165h107q83 0 132 38t66 100z" glyph-name="uni20BA" horiz-adv-x="839" unicode="₺"/>
<glyph d="M329 238v-68h283v-70h-283v-100h-199v100h-124v70h124v68h-123v128h123v329h471q135 0 212.5 -59.5t77.5 -164.5q0 -71 -35 -123.5t-100 -81t-153 -28.5h-274zM329 366h227q59 0 91.5 26t32.5 72t-32 71t-91 25h-228v-194z" glyph-name="uni20BD" horiz-adv-x="907" unicode="₽"/>
<glyph d="M56.5 638q32.5 44 92 68t137.5 24q102 0 170.5 -39.5t85.5 -107.5l-159 -16q-9 27 -34.5 42t-62.5 15q-48 0 -77 -23.5t-29 -63.5q0 -42 29 -65.5t78 -23.5q37 0 63 15.5t34 43.5l160 -11q-13 -70 -83 -112t-174 -42q-79 0 -138.5 24t-92 68t-32.5 103q0 57 32.5 101z M143 -14l751 744h179l-751 -744h-179zM797 11q-59 24 -91.5 68t-32.5 103q0 57 32.5 101t91.5 68t136 24q76 0 135.5 -24t92.5 -68.5t33 -103.5q0 -58 -33 -101.5t-92 -67t-135 -23.5q-78 0 -137 24zM1008 245q-28 24 -75 24q-48 0 -76.5 -23.5t-28.5 -63.5q0 -42 29 -65.5 t77 -23.5q47 0 74.5 23t27.5 63q0 42 -28 66z" glyph-name="uni2105" horiz-adv-x="1219" unicode="℅"/>
<glyph d="M376 147q35 -23 100 -23q30 0 52 3t55 10v-137q-66 -16 -139 -16q-146 0 -212.5 46.5t-79.5 138.5q-73 -16 -129 -26l-35 123q115 24 160 35v203q0 119 72.5 174.5t180.5 55.5q116 0 175.5 -55.5t59.5 -151.5q0 -101 -77.5 -177t-228.5 -130q11 -50 46 -73zM325 354 q69 29 104.5 69.5t35.5 98.5q0 89 -69 89q-34 0 -52.5 -22.5t-18.5 -64.5v-170z" glyph-name="uni2113" horiz-adv-x="659" unicode="ℓ"/>
<glyph d="M92 710h215l371 -403q34 -38 56 -81h4v102v382h183v-710h-201l-385 408q-16 17 -32.5 40.5t-23.5 40.5h-4v-99v-390h-183v710zM1119.5 228q-71.5 29 -110 81t-38.5 119q0 68 38 119.5t109 80t168 28.5q96 0 167.5 -28.5t109.5 -80t38 -119.5q0 -67 -38.5 -119t-110 -81 t-166.5 -29t-166.5 29zM1396.5 346.5q40.5 30.5 40.5 81.5q0 50 -40.5 80t-110.5 30t-111 -30t-41 -80t40.5 -80.5t111.5 -31.5q70 0 110.5 30.5zM977 118h618v-118h-618v118z" glyph-name="uni2116" horiz-adv-x="1665" unicode="№"/>
<glyph d="M165 616h-159v97h452v-97h-165v-309h-128v309zM507 713h181l79 -214q16 -48 24 -86h2q8 39 25 86l78 214h181v-406h-112v228q0 40 3 89h-1q-8 -23 -26 -75l-92 -242h-114l-92 242q-17 47 -25 75h-2q3 -49 3 -89v-228h-112v406z" glyph-name="trademark" horiz-adv-x="1112" unicode="™"/>
<glyph d="M543 0l-22 266q89 10 134 52.5t45 110.5q0 74 -58 118.5t-165 44.5q-106 0 -164.5 -44.5t-58.5 -118.5q0 -68 45 -110.5t134 -52.5l-22 -266h-351v141h207l5 44q-105 24 -164 87t-59 160q0 90 53 157t150 103.5t225 36.5t225 -36.5t150.5 -104t53.5 -156.5 q0 -97 -59.5 -160t-164.5 -87l5 -44h207v-141h-351z" glyph-name="uni2126" horiz-adv-x="954" unicode="Ω"/>
<glyph d="M263 345v-248q88 -44 214 -44q109 0 187 32t141 103l61 -45q-68 -85 -165.5 -124t-223.5 -39t-229 39.5t-165 123t-62 208.5q0 119 61 203.5t163.5 127t225.5 42.5q126 0 220 -42t144.5 -118.5t50.5 -176.5v-42h-623zM466 657q-116 0 -203 -44v-199h409v199 q-80 44 -206 44z" glyph-name="estimated" horiz-adv-x="907" unicode="℮"/>
<glyph d="M155 568q-16 -12 -43.5 -18.5t-58.5 -6.5h-30v99h17q97 0 131 68h101v-393h-117v251zM696 727h159l-585 -744h-159zM710.5 23q-61.5 37 -67.5 104l119 11q7 -35 35.5 -51t81.5 -16q110 0 110 47q0 23 -22 32.5t-77 9.5h-60v76h62q44 0 65.5 9.5t21.5 30.5q0 47 -99 47 q-55 0 -83 -17t-32 -52l-118 13q5 66 66 103t168 37q101 0 161 -31t60 -88q0 -38 -28.5 -60t-76.5 -26q60 -7 88 -29t28 -62q0 -58 -64 -91.5t-170 -33.5q-107 0 -168.5 37z" glyph-name="uni2153" horiz-adv-x="1147" unicode="⅓"/>
<glyph d="M29 400q122 37 184.5 59.5t105.5 51.5t43 64q0 29 -27 46t-73 17t-75 -19t-29 -55q0 -11 3 -20l-123 12q-3 12 -3 22q0 44 30 77t81.5 51t115.5 18q104 0 165 -36.5t61 -104.5q0 -66 -65.5 -107t-167.5 -67h242v-92h-468v83zM881 727h159l-585 -744h-159zM895.5 23 q-61.5 37 -67.5 104l119 11q7 -35 35.5 -51t81.5 -16q110 0 110 47q0 23 -22 32.5t-77 9.5h-60v76h62q44 0 65.5 9.5t21.5 30.5q0 47 -99 47q-55 0 -83 -17t-32 -52l-118 13q5 66 66 103t168 37q101 0 161 -31t60 -88q0 -38 -28.5 -60t-76.5 -26q60 -7 88 -29t28 -62 q0 -58 -64 -91.5t-170 -33.5q-107 0 -168.5 37z" glyph-name="uni2154" horiz-adv-x="1332" unicode="⅔"/>
<glyph d="M155 568q-16 -12 -43.5 -18.5t-58.5 -6.5h-30v99h17q97 0 131 68h101v-393h-117v251zM696 727h159l-585 -744h-159zM1101 174.5q23 -25.5 23 -63.5q0 -59 -62.5 -92t-172.5 -33q-115 0 -178.5 30.5t-63.5 85.5q0 36 26.5 59.5t75.5 33.5q-47 16 -67.5 39t-20.5 57 q0 53 61 84.5t165 31.5q102 0 162.5 -30t60.5 -80q0 -29 -22.5 -50t-62.5 -31q53 -16 76 -41.5zM809 323q-27 -11 -27 -31q0 -18 21 -29.5t72 -18.5l56 -8l7 -1q27 12 39 24.5t12 27.5q0 23 -26.5 35t-75.5 12q-51 0 -78 -11zM971 78q30 13 30 36q0 14 -8 22.5t-31 15.5 t-70 14l-55 9q-67 -19 -67 -59q0 -24 30.5 -37.5t88.5 -13.5q52 0 82 13z" glyph-name="oneeighth" horiz-adv-x="1155" unicode="⅛"/>
<glyph d="M95.5 340q-61.5 37 -67.5 104l119 11q7 -35 35.5 -51t81.5 -16q110 0 110 47q0 23 -22 32.5t-77 9.5h-60v76h62q44 0 65.5 9.5t21.5 30.5q0 47 -99 47q-55 0 -83 -17t-32 -52l-118 13q5 66 66 103t168 37q101 0 161 -31t60 -88q0 -38 -28.5 -60t-76.5 -26q60 -7 88 -29 t28 -62q0 -58 -64 -91.5t-170 -33.5q-107 0 -168.5 37zM878 727h159l-585 -744h-159zM1282 174.5q23 -25.5 23 -63.5q0 -59 -62.5 -92t-172.5 -33q-115 0 -178.5 30.5t-63.5 85.5q0 36 26.5 59.5t75.5 33.5q-47 16 -67.5 39t-20.5 57q0 53 61 84.5t165 31.5q102 0 162.5 -30 t60.5 -80q0 -29 -22.5 -50t-62.5 -31q53 -16 76 -41.5zM990 323q-27 -11 -27 -31q0 -18 21 -29.5t72 -18.5l56 -8l7 -1q27 12 39 24.5t12 27.5q0 23 -26.5 35t-75.5 12q-51 0 -78 -11zM1152 78q30 13 30 36q0 14 -8 22.5t-31 15.5t-70 14l-55 9q-67 -19 -67 -59 q0 -24 30.5 -37.5t88.5 -13.5q52 0 82 13z" glyph-name="threeeighths" horiz-adv-x="1337" unicode="⅜"/>
<glyph d="M105.5 334.5q-60.5 31.5 -73.5 87.5l118 16q7 -25 37 -38t77 -13q51 0 78 17t27 49q0 29 -26 45t-75 16q-40 0 -69 -11.5t-40 -28.5l-108 8l29 228h378v-73h-286l-14 -92q18 22 57.5 35t91.5 13q88 0 136 -36.5t48 -103.5q0 -69 -62 -109.5t-168 -40.5q-95 0 -155.5 31.5 zM867 727h159l-585 -744h-159zM1272 174.5q23 -25.5 23 -63.5q0 -59 -62.5 -92t-172.5 -33q-115 0 -178.5 30.5t-63.5 85.5q0 36 26.5 59.5t75.5 33.5q-47 16 -67.5 39t-20.5 57q0 53 61 84.5t165 31.5q102 0 162.5 -30t60.5 -80q0 -29 -22.5 -50t-62.5 -31q53 -16 76 -41.5 zM980 323q-27 -11 -27 -31q0 -18 21 -29.5t72 -18.5l56 -8l7 -1q27 12 39 24.5t12 27.5q0 23 -26.5 35t-75.5 12q-51 0 -78 -11zM1142 78q30 13 30 36q0 14 -8 22.5t-31 15.5t-70 14l-55 9q-67 -19 -67 -59q0 -24 30.5 -37.5t88.5 -13.5q52 0 82 13z" glyph-name="fiveeighths" horiz-adv-x="1327" unicode="⅝"/>
<glyph d="M19 710h430v-83q-86 -51 -137.5 -131t-58.5 -178v-1h-132q7 91 57.5 168.5t145.5 134.5h-305v90zM760 727h159l-585 -744h-159zM1164 174.5q23 -25.5 23 -63.5q0 -59 -62.5 -92t-172.5 -33q-115 0 -178.5 30.5t-63.5 85.5q0 36 26.5 59.5t75.5 33.5q-47 16 -67.5 39 t-20.5 57q0 53 61 84.5t165 31.5q102 0 162.5 -30t60.5 -80q0 -29 -22.5 -50t-62.5 -31q53 -16 76 -41.5zM872 323q-27 -11 -27 -31q0 -18 21 -29.5t72 -18.5l56 -8l7 -1q27 12 39 24.5t12 27.5q0 23 -26.5 35t-75.5 12q-51 0 -78 -11zM1034 78q30 13 30 36q0 14 -8 22.5 t-31 15.5t-70 14l-55 9q-67 -19 -67 -59q0 -24 30.5 -37.5t88.5 -13.5q52 0 82 13z" glyph-name="seveneighths" horiz-adv-x="1219" unicode="⅞"/>
<glyph d="M297 283v-107l-205 154l205 154v-107h854v-94h-854z" glyph-name="arrowleft" horiz-adv-x="1243" unicode="←"/>
<glyph d="M196 545h-104l154 205l154 -205h-104v-580h-100v580z" glyph-name="arrowup" horiz-adv-x="492" unicode="↑"/>
<glyph d="M946 377v107l205 -154l-205 -154v107h-854v94h854z" glyph-name="arrowright" horiz-adv-x="1243" unicode="→"/>
<glyph d="M296 165h104l-154 -205l-154 205h104v580h100v-580z" glyph-name="arrowdown" horiz-adv-x="492" unicode="↓"/>
<glyph d="M297 283v-107l-205 154l205 154v-107h527v107l205 -154l-205 -154v107h-527z" glyph-name="arrowboth" horiz-adv-x="1121" unicode="↔"/>
<glyph d="M196 168v377h-104l154 205l154 -205h-104v-377h104l-154 -205l-154 205h104z" glyph-name="arrowupdn" horiz-adv-x="492" unicode="↕"/>
<glyph d="M92 446v264h249l-89 -90l572 -572l-68 -72l-573 573z" glyph-name="uni2196" horiz-adv-x="915" unicode="↖"/>
<glyph d="M160 -23l-68 72l572 572l-90 90h250v-264l-91 103z" glyph-name="uni2197" horiz-adv-x="915" unicode="↗"/>
<glyph d="M824 275v-264h-250l90 90l-572 572l68 72l573 -573z" glyph-name="uni2198" horiz-adv-x="915" unicode="↘"/>
<glyph d="M756 745l68 -72l-572 -572l89 -90h-249v264l91 -103z" glyph-name="uni2199" horiz-adv-x="915" unicode="↙"/>
<glyph d="M92 330l205 154v-107h593q175 0 175 119q0 113 -175 113h-443v94h441q141 0 211 -54t70 -153q0 -102 -73 -157.5t-226 -55.5h-573v-107z" glyph-name="uni21A9" horiz-adv-x="1260" unicode="↩"/>
<glyph d="M963 283h-573q-153 0 -225.5 55.5t-72.5 157.5q0 99 69.5 153t210.5 54h442v-94h-443q-176 0 -176 -113q0 -56 42.5 -87.5t133.5 -31.5h592v107l206 -154l-206 -154v107z" glyph-name="uni21AA" horiz-adv-x="1260" unicode="↪"/>
<glyph d="M1051 553h-754v-107l-205 154l205 154v-107h855v-647h-101v553z" glyph-name="uni21B0" horiz-adv-x="1244" unicode="↰"/>
<glyph d="M92 0v647h855v107l205 -154l-205 -154v107h-754v-553h-101z" glyph-name="uni21B1" horiz-adv-x="1244" unicode="↱"/>
<glyph d="M1152 710v-647h-855v-107l-205 154l205 154v-107h754v553h101z" glyph-name="uni21B2" horiz-adv-x="1244" unicode="↲"/>
<glyph d="M193 157h754v107l205 -154l-205 -154v107h-855v647h101v-553z" glyph-name="uni21B3" horiz-adv-x="1244" unicode="↳"/>
<glyph d="M1151 175h104l-154 -206l-155 206h104v463h-958v94h1059v-557z" glyph-name="uni21B4" horiz-adv-x="1347" unicode="↴"/>
<glyph d="M844 393h105q-11 78 -62.5 137t-133 91t-182.5 32q-109 0 -195 -37.5t-134.5 -105.5t-48.5 -157t48.5 -157.5t134.5 -106.5t195 -38q93 0 173.5 28.5t133.5 79.5l66 -70q-66 -61 -161.5 -94.5t-211.5 -33.5q-141 0 -250 51t-169 140.5t-60 199.5q0 111 60 200.5 t169 140.5t250 51q133 0 237.5 -45t167.5 -125t74 -181h102l-154 -205z" glyph-name="uni21BB" horiz-adv-x="1244" unicode="↻"/>
<glyph d="M297 411v-107l-205 154l205 155v-107h850v-95h-850zM1006 356l205 -154l-205 -155v107h-848v95h848v107z" glyph-name="uni21C4" horiz-adv-x="1303" unicode="⇄"/>
<glyph d="M483 551h-104l155 205l154 -205h-104v-536h-101v536zM92 165h104v537h100v-537h104l-154 -205z" glyph-name="uni21C5" horiz-adv-x="780" unicode="⇅"/>
<glyph d="M667.5 621.5q111.5 -99.5 111.5 -283.5q0 -169 -104 -262t-299 -93q-103 0 -181 30.5t-120.5 86.5t-42.5 130q0 70 37 122t107.5 80t167.5 28q79 0 142.5 -21t106.5 -63q-4 97 -67.5 149.5t-181.5 52.5q-87 0 -171 -32l-61 128q47 22 109 34.5t123 12.5 q212 0 323.5 -99.5zM528.5 147q56.5 40 63.5 112q-65 77 -204 77q-82 0 -125.5 -29.5t-43.5 -81.5q0 -53 45.5 -85.5t122.5 -32.5q85 0 141.5 40z" glyph-name="partialdiff" horiz-adv-x="833" unicode="∂"/>
<glyph d="M642 306q0 -71 -38 -125t-107 -83.5t-161 -29.5q-110 0 -190 43l-75 -60l-47 45l69 55q-62 62 -62 153q0 71 37.5 125t106.5 83.5t161 29.5q113 0 190 -43l75 60l47 -45l-69 -55q63 -61 63 -153zM196 234l228 183q-38 16 -88 16q-75 0 -119 -34.5t-44 -92.5q0 -43 23 -72 zM455 211.5q44 34.5 44 92.5q0 43 -23 72l-227 -183q38 -16 87 -16q75 0 119 34.5z" glyph-name="emptyset" horiz-adv-x="672" unicode="∅"/>
<glyph d="M399 705h185l382 -705h-950zM281 140h416l-207 395z" glyph-name="uni2206" horiz-adv-x="982" unicode="∆"/>
<glyph d="M687 549h-408v-637h-192v793h791v-793h-191v637z" glyph-name="product" horiz-adv-x="965" unicode="∏"/>
<glyph d="M50 46l348 278l-335 248v133h717v-142h-464l323 -236l-353 -273h506v-142h-742v134z" glyph-name="summation" horiz-adv-x="844" unicode="∑"/>
<glyph d="M46 388h617v-119h-617v119z" glyph-name="minus" horiz-adv-x="709" unicode="−"/>
<glyph d="M257 364l109 -282l256 652h197l-346 -828h-207l-128 303h-122v155h241z" glyph-name="radical" horiz-adv-x="830" unicode="√"/>
<glyph d="M731 453q51 -46 51 -124q0 -51 -24 -90t-66.5 -60.5t-95.5 -21.5q-109 0 -189 85q-40 -41 -85.5 -63t-101.5 -22q-82 0 -133 46t-51 124q0 51 24 90t66 60.5t95 21.5q110 0 190 -85q40 41 85.5 63t101.5 22q82 0 133 -46zM292.5 280.5q24.5 16.5 49.5 48.5 q-48 64 -108 64q-34 0 -55.5 -17.5t-21.5 -47.5t22.5 -47t56.5 -17q32 0 56.5 16.5zM639.5 280.5q21.5 17.5 21.5 47.5t-22.5 47t-56.5 17q-32 0 -56.5 -16.5t-49.5 -48.5q48 -64 108 -64q34 0 55.5 17.5z" glyph-name="infinity" horiz-adv-x="818" unicode="∞"/>
<glyph d="M15 -107v137q38 -4 60 -4q54 0 80.5 27.5t26.5 92.5v338q0 118 71 180t204 62q47 0 85 -7v-138q-25 5 -61 5q-55 0 -81 -27.5t-26 -93.5v-340q0 -117 -72 -178.5t-203 -61.5q-39 0 -84 8z" glyph-name="integral" horiz-adv-x="563" unicode="∫"/>
<glyph d="M481 352.5q-35 8.5 -89 26.5q-48 15 -77.5 22.5t-56.5 7.5q-44 0 -85.5 -14t-69.5 -36v110q26 22 68.5 36t83.5 14q42 0 79 -9t89 -27q44 -15 71 -22t54 -7q44 0 85 14t68 36v-111q-24 -21 -66.5 -35t-83.5 -14q-35 0 -70 8.5zM481 157.5q-35 8.5 -89 26.5 q-48 15 -77.5 22.5t-56.5 7.5q-44 0 -85.5 -14t-69.5 -36v111q26 21 68.5 35t83.5 14q42 0 79 -9t89 -27q44 -15 71 -22t54 -7q44 0 85 14t68 36v-110q-24 -22 -66.5 -36t-83.5 -14q-35 0 -70 8.5z" glyph-name="approxequal" unicode="≈"/>
<glyph d="M467 371l-43 -84h275v-108h-331l-60 -116h-91l60 116h-176v108h232l43 84h-275v108h331l58 112h91l-58 -112h176v-108h-232z" glyph-name="notequal" unicode="≠"/>
<glyph d="M113 345v110l564 205v-125l-421 -134l421 -134v-127zM681 104v-104h-564v104h564z" glyph-name="lessequal" unicode="≤"/>
<glyph d="M126 267l421 134l-421 134v125l565 -205v-110l-565 -205v127zM686 0h-563v104h563v-104z" glyph-name="greaterequal" unicode="≥"/>
<glyph d="M431 406q-16 -12 -43.5 -18.5t-58.5 -6.5h-30v99h17q97 0 131 68h101v-393h-117v251zM230.5 21.5q-100.5 45.5 -155 131t-54.5 202.5t54.5 202.5t155 131t234.5 45.5t234.5 -45.5t155 -131t54.5 -202.5t-54.5 -202.5t-155 -131t-234.5 -45.5t-234.5 45.5zM660.5 77 q84.5 38 131 109.5t46.5 168.5t-46.5 168.5t-131 109.5t-195.5 38q-110 0 -194.5 -38t-131.5 -109.5t-47 -168.5t47 -168.5t131.5 -109.5t194.5 -38q111 0 195.5 38z" glyph-name="uni2460" horiz-adv-x="930" unicode="①"/>
<glyph d="M231 251q122 37 184.5 59.5t105.5 51.5t43 64q0 29 -27 46t-73 17t-75 -19t-29 -55q0 -11 3 -20l-123 12q-3 12 -3 22q0 44 30 77t81.5 51t115.5 18q104 0 165 -36.5t61 -104.5q0 -66 -65.5 -107t-167.5 -67h242v-92h-468v83zM230.5 21.5q-100.5 45.5 -155 131 t-54.5 202.5t54.5 202.5t155 131t234.5 45.5t234.5 -45.5t155 -131t54.5 -202.5t-54.5 -202.5t-155 -131t-234.5 -45.5t-234.5 45.5zM660.5 77q84.5 38 131 109.5t46.5 168.5t-46.5 168.5t-131 109.5t-195.5 38q-110 0 -194.5 -38t-131.5 -109.5t-47 -168.5t47 -168.5 t131.5 -109.5t194.5 -38q111 0 195.5 38z" glyph-name="uni2461" horiz-adv-x="930" unicode="②"/>
<glyph d="M297.5 181q-61.5 37 -67.5 104l119 11q7 -35 35.5 -51t81.5 -16q110 0 110 47q0 23 -22 32.5t-77 9.5h-60v76h62q44 0 65.5 9.5t21.5 30.5q0 47 -99 47q-55 0 -83 -17t-32 -52l-118 13q5 66 66 103t168 37q101 0 161 -31t60 -88q0 -38 -28.5 -60t-76.5 -26q60 -7 88 -29 t28 -62q0 -58 -64 -91.5t-170 -33.5q-107 0 -168.5 37zM230.5 21.5q-100.5 45.5 -155 131t-54.5 202.5t54.5 202.5t155 131t234.5 45.5t234.5 -45.5t155 -131t54.5 -202.5t-54.5 -202.5t-155 -131t-234.5 -45.5t-234.5 45.5zM660.5 77q84.5 38 131 109.5t46.5 168.5 t-46.5 168.5t-131 109.5t-195.5 38q-110 0 -194.5 -38t-131.5 -109.5t-47 -168.5t47 -168.5t131.5 -109.5t194.5 -38q111 0 195.5 38z" glyph-name="uni2462" horiz-adv-x="930" unicode="③"/>
<glyph d="M610 247v-82h-116v82h-302v74l282 237h136v-231h89v-80h-89zM317 327h177v152zM230.5 21.5q-100.5 45.5 -155 131t-54.5 202.5t54.5 202.5t155 131t234.5 45.5t234.5 -45.5t155 -131t54.5 -202.5t-54.5 -202.5t-155 -131t-234.5 -45.5t-234.5 45.5zM660.5 77 q84.5 38 131 109.5t46.5 168.5t-46.5 168.5t-131 109.5t-195.5 38q-110 0 -194.5 -38t-131.5 -109.5t-47 -168.5t47 -168.5t131.5 -109.5t194.5 -38q111 0 195.5 38z" glyph-name="uni2463" horiz-adv-x="930" unicode="④"/>
<glyph d="M303.5 182.5q-60.5 31.5 -73.5 87.5l118 16q7 -25 37 -38t77 -13q51 0 78 17t27 49q0 29 -26 45t-75 16q-40 0 -69 -11.5t-40 -28.5l-108 8l29 228h378v-73h-286l-14 -92q18 22 57.5 35t91.5 13q88 0 136 -36.5t48 -103.5q0 -69 -62 -109.5t-168 -40.5q-95 0 -155.5 31.5 zM230.5 21.5q-100.5 45.5 -155 131t-54.5 202.5t54.5 202.5t155 131t234.5 45.5t234.5 -45.5t155 -131t54.5 -202.5t-54.5 -202.5t-155 -131t-234.5 -45.5t-234.5 45.5zM660.5 77q84.5 38 131 109.5t46.5 168.5t-46.5 168.5t-131 109.5t-195.5 38q-110 0 -194.5 -38 t-131.5 -109.5t-47 -168.5t47 -168.5t131.5 -109.5t194.5 -38q111 0 195.5 38z" glyph-name="uni2464" horiz-adv-x="930" unicode="⑤"/>
<glyph d="M642 394.5q52 -34.5 52 -103.5q0 -43 -28.5 -76.5t-80 -52t-118.5 -18.5q-116 0 -180 54.5t-64 151.5q0 101 64.5 158t181.5 57q88 0 147.5 -25t74.5 -70l-122 -18q-13 20 -38.5 29.5t-65.5 9.5q-57 0 -88 -25t-38 -81q55 44 155 44q96 0 148 -34.5zM543 245.5 q29 17.5 29 45.5q0 57 -101 57q-46 0 -78.5 -15t-46.5 -38q24 -67 121 -67q47 0 76 17.5zM230.5 21.5q-100.5 45.5 -155 131t-54.5 202.5t54.5 202.5t155 131t234.5 45.5t234.5 -45.5t155 -131t54.5 -202.5t-54.5 -202.5t-155 -131t-234.5 -45.5t-234.5 45.5zM660.5 77 q84.5 38 131 109.5t46.5 168.5t-46.5 168.5t-131 109.5t-195.5 38q-110 0 -194.5 -38t-131.5 -109.5t-47 -168.5t47 -168.5t131.5 -109.5t194.5 -38q111 0 195.5 38z" glyph-name="uni2465" horiz-adv-x="930" unicode="⑥"/>
<glyph d="M251 551h430v-83q-86 -51 -137.5 -131t-58.5 -178v-1h-132q7 91 57.5 168.5t145.5 134.5h-305v90zM230.5 21.5q-100.5 45.5 -155 131t-54.5 202.5t54.5 202.5t155 131t234.5 45.5t234.5 -45.5t155 -131t54.5 -202.5t-54.5 -202.5t-155 -131t-234.5 -45.5t-234.5 45.5z M660.5 77q84.5 38 131 109.5t46.5 168.5t-46.5 168.5t-131 109.5t-195.5 38q-110 0 -194.5 -38t-131.5 -109.5t-47 -168.5t47 -168.5t131.5 -109.5t194.5 -38q111 0 195.5 38z" glyph-name="uni2466" horiz-adv-x="930" unicode="⑦"/>
<glyph d="M681 332.5q23 -25.5 23 -63.5q0 -59 -62.5 -92t-172.5 -33q-115 0 -178.5 30.5t-63.5 85.5q0 36 26.5 59.5t75.5 33.5q-47 16 -67.5 39t-20.5 57q0 53 61 84.5t165 31.5q102 0 162.5 -30t60.5 -80q0 -29 -22.5 -50t-62.5 -31q53 -16 76 -41.5zM389 481q-27 -11 -27 -31 q0 -18 21 -29.5t72 -18.5l56 -8l7 -1q27 12 39 24.5t12 27.5q0 23 -26.5 35t-75.5 12q-51 0 -78 -11zM551 236q30 13 30 36q0 14 -8 22.5t-31 15.5t-70 14l-55 9q-67 -19 -67 -59q0 -24 30.5 -37.5t88.5 -13.5q52 0 82 13zM230.5 21.5q-100.5 45.5 -155 131t-54.5 202.5 t54.5 202.5t155 131t234.5 45.5t234.5 -45.5t155 -131t54.5 -202.5t-54.5 -202.5t-155 -131t-234.5 -45.5t-234.5 45.5zM660.5 77q84.5 38 131 109.5t46.5 168.5t-46.5 168.5t-131 109.5t-195.5 38q-110 0 -194.5 -38t-131.5 -109.5t-47 -168.5t47 -168.5t131.5 -109.5 t194.5 -38q111 0 195.5 38z" glyph-name="uni2467" horiz-adv-x="930" unicode="⑧"/>
<glyph d="M637 511q64 -54 64 -152q0 -101 -65.5 -158t-180.5 -57q-88 0 -148 30t-74 82l120 17q22 -46 106 -46q57 0 89.5 28t36.5 83q-51 -45 -156 -45q-96 0 -147.5 34t-51.5 99q0 63 61.5 101t163.5 38q118 0 182 -54zM529 385q32 12 46 35q-27 65 -118 65q-50 0 -78 -15.5 t-28 -43.5q0 -26 26 -39.5t75 -13.5q45 0 77 12zM230.5 21.5q-100.5 45.5 -155 131t-54.5 202.5t54.5 202.5t155 131t234.5 45.5t234.5 -45.5t155 -131t54.5 -202.5t-54.5 -202.5t-155 -131t-234.5 -45.5t-234.5 45.5zM660.5 77q84.5 38 131 109.5t46.5 168.5t-46.5 168.5 t-131 109.5t-195.5 38q-110 0 -194.5 -38t-131.5 -109.5t-47 -168.5t47 -168.5t131.5 -109.5t194.5 -38q111 0 195.5 38z" glyph-name="uni2468" horiz-adv-x="930" unicode="⑨"/>
<glyph d="M331.5 170q-57.5 26 -89.5 73.5t-32 110.5q0 65 32 112.5t89.5 73t133.5 25.5q75 0 132.5 -25.5t90 -73t32.5 -111.5t-32.5 -111.5t-90.5 -73.5t-133 -26t-132.5 26zM561 262q36 32 36 93q0 62 -35.5 93t-96.5 31t-97 -31.5t-36 -93.5q0 -61 36 -92.5t96 -31.5 q61 0 97 32zM230.5 21.5q-100.5 45.5 -155 131t-54.5 202.5t54.5 202.5t155 131t234.5 45.5t234.5 -45.5t155 -131t54.5 -202.5t-54.5 -202.5t-155 -131t-234.5 -45.5t-234.5 45.5zM660.5 77q84.5 38 131 109.5t46.5 168.5t-46.5 168.5t-131 109.5t-195.5 38 q-110 0 -194.5 -38t-131.5 -109.5t-47 -168.5t47 -168.5t131.5 -109.5t194.5 -38q111 0 195.5 38z" glyph-name="uni24EA" horiz-adv-x="930" unicode="⓪"/>
<glyph d="M230.5 21.5q-100.5 45.5 -155 131t-54.5 202.5t54.5 202.5t155 131t234.5 45.5t234.5 -45.5t155 -131t54.5 -202.5t-54.5 -202.5t-155 -131t-234.5 -45.5t-234.5 45.5zM598 170.5q58 25.5 90 73.5t32 112t-32 111t-90 72.5t-133 25.5t-133 -25.5t-90 -73t-32 -111.5 t32.5 -111.5t90 -73t132.5 -25.5t133 25.5zM369 263.5q-36 31.5 -36 91.5q0 62 36 93t96 31t95.5 -31t35.5 -92t-35.5 -92.5t-95.5 -31.5t-96 31.5z" glyph-name="uni24FF" horiz-adv-x="930" unicode="⓿"/>
<glyph d="M281 -17l-267 372l267 371h166l269 -371l-269 -372h-166zM201 355l163 -229l165 229l-165 229z" glyph-name="lozenge" horiz-adv-x="729" unicode="◊"/>
<glyph d="M230.5 21.5q-100.5 45.5 -155 131t-54.5 202.5t54.5 202.5t155 131t234.5 45.5t234.5 -45.5t155 -131t54.5 -202.5t-54.5 -202.5t-155 -131t-234.5 -45.5t-234.5 45.5zM660.5 77q84.5 38 131 109.5t46.5 168.5t-46.5 168.5t-131 109.5t-195.5 38q-110 0 -194.5 -38 t-131.5 -109.5t-47 -168.5t47 -168.5t131.5 -109.5t194.5 -38q111 0 195.5 38z" glyph-name="circle" horiz-adv-x="930" unicode="○"/>
<glyph d="M230.5 21.5q-100.5 45.5 -155 131t-54.5 202.5t54.5 202.5t155 131t234.5 45.5t234.5 -45.5t155 -131t54.5 -202.5t-54.5 -202.5t-155 -131t-234.5 -45.5t-234.5 45.5z" glyph-name="uni25CF" horiz-adv-x="930" unicode="●"/>
<glyph d="M230.5 21.5q-100.5 45.5 -155 131t-54.5 202.5t54.5 202.5t155 131t234.5 45.5t234.5 -45.5t155 -131t54.5 -202.5t-54.5 -202.5t-155 -131t-234.5 -45.5t-234.5 45.5zM549 155v394h-103q-32 -69 -130 -69h-17v-100h29q31 0 58.5 6.5t43.5 19.5v-251h119z" glyph-name="uni2776" horiz-adv-x="930" unicode="❶"/>
<glyph d="M230.5 21.5q-100.5 45.5 -155 131t-54.5 202.5t54.5 202.5t155 131t234.5 45.5t234.5 -45.5t155 -131t54.5 -202.5t-54.5 -202.5t-155 -131t-234.5 -45.5t-234.5 45.5zM699 165v92h-242q102 27 167 68t65 107q0 69 -60.5 104.5t-164.5 35.5q-63 0 -115 -17.5t-82 -50.5 t-30 -77q0 -10 3 -22l124 -11q-3 6 -3 18q0 36 28.5 54.5t74.5 18.5t72 -16.5t26 -45.5q0 -35 -42 -63.5t-104.5 -51t-183.5 -60.5v-83h467z" glyph-name="uni2777" horiz-adv-x="930" unicode="❷"/>
<glyph d="M230.5 21.5q-100.5 45.5 -155 131t-54.5 202.5t54.5 202.5t155 131t234.5 45.5t234.5 -45.5t155 -131t54.5 -202.5t-54.5 -202.5t-155 -131t-234.5 -45.5t-234.5 45.5zM636.5 177.5q64.5 32.5 64.5 89.5q0 79 -116 94q47 4 75.5 25.5t28.5 59.5q0 58 -60 88.5t-161 30.5 q-107 0 -168 -37t-65 -103l119 -13q4 36 31 53t82 17q99 0 99 -50q0 -40 -81 -40h-62v-71h62q90 0 90 -43q0 -49 -109 -49q-102 0 -114 67l-122 -10q6 -67 67.5 -104t168.5 -37q106 0 170.5 32.5z" glyph-name="uni2778" horiz-adv-x="930" unicode="❸"/>
<glyph d="M230.5 21.5q-100.5 45.5 -155 131t-54.5 202.5t54.5 202.5t155 131t234.5 45.5t234.5 -45.5t155 -131t54.5 -202.5t-54.5 -202.5t-155 -131t-234.5 -45.5t-234.5 45.5zM617 159v81h90v81h-90v231h-136l-283 -237v-75h302v-81h117zM500 472v-151h-177z" glyph-name="uni2779" horiz-adv-x="930" unicode="❹"/>
<glyph d="M230.5 21.5q-100.5 45.5 -155 131t-54.5 202.5t54.5 202.5t155 131t234.5 45.5t234.5 -45.5t155 -131t54.5 -202.5t-54.5 -202.5t-155 -131t-234.5 -45.5t-234.5 45.5zM626.5 192.5q61.5 40.5 61.5 108.5q0 66 -47.5 102.5t-135.5 36.5q-51 0 -90 -12.5t-58 -34.5l14 91 h285v75h-379l-28 -229l109 -9q10 17 38.5 28.5t68.5 11.5q48 0 74 -15.5t26 -44.5q0 -31 -27 -48t-76 -17q-47 0 -76 13t-37 37l-119 -16q12 -55 73 -86.5t156 -31.5q106 0 167.5 40.5z" glyph-name="uni277A" horiz-adv-x="930" unicode="❺"/>
<glyph d="M230.5 21.5q-100.5 45.5 -155 131t-54.5 202.5t54.5 202.5t155 131t234.5 45.5t234.5 -45.5t155 -131t54.5 -202.5t-54.5 -202.5t-155 -131t-234.5 -45.5t-234.5 45.5zM586 163.5q52 18.5 80.5 51.5t28.5 77q0 67 -52.5 102t-147.5 35q-102 0 -154 -44q7 57 38 81.5 t87 24.5q75 0 102 -39l123 18q-16 45 -75 70t-146 25q-118 0 -182.5 -56.5t-64.5 -158.5q0 -97 64 -151t179 -54q68 0 120 18.5zM347 298q15 22 47 35.5t77 13.5q100 0 100 -56q0 -28 -29 -45t-76 -17q-95 0 -119 69z" glyph-name="uni277B" horiz-adv-x="930" unicode="❻"/>
<glyph d="M230.5 21.5q-100.5 45.5 -155 131t-54.5 202.5t54.5 202.5t155 131t234.5 45.5t234.5 -45.5t155 -131t54.5 -202.5t-54.5 -202.5t-155 -131t-234.5 -45.5t-234.5 45.5zM487 158q7 98 57.5 178.5t135.5 130.5v85h-429v-91h305q-96 -56 -145 -133.5t-57 -169.5h133z" glyph-name="uni277C" horiz-adv-x="930" unicode="❼"/>
<glyph d="M230.5 21.5q-100.5 45.5 -155 131t-54.5 202.5t54.5 202.5t155 131t234.5 45.5t234.5 -45.5t155 -131t54.5 -202.5t-54.5 -202.5t-155 -131t-234.5 -45.5t-234.5 45.5zM641.5 178q62.5 33 62.5 91q0 43 -27 69.5t-87 38.5q100 17 100 79q0 50 -60.5 79.5t-163.5 29.5 q-104 0 -164.5 -31t-60.5 -84q0 -36 24 -60t81 -39q-57 -5 -88 -28.5t-31 -62.5q0 -54 63.5 -84.5t177.5 -30.5q111 0 173.5 33zM455 403q-51 7 -71.5 18t-20.5 29q0 20 27 31t77 11q49 0 75 -12t26 -35q0 -20 -12 -31.5t-40 -18.5zM381.5 238.5q-30.5 14.5 -30.5 41.5 q0 39 70 54l51 -9q47 -8 69.5 -15t30.5 -15.5t8 -22.5q0 -22 -30 -35t-81 -13q-57 0 -87.5 14.5z" glyph-name="uni277D" horiz-adv-x="930" unicode="❽"/>
<glyph d="M230.5 21.5q-100.5 45.5 -155 131t-54.5 202.5t54.5 202.5t155 131t234.5 45.5t234.5 -45.5t155 -131t54.5 -202.5t-54.5 -202.5t-155 -131t-234.5 -45.5t-234.5 45.5zM641.5 202q65.5 57 65.5 158q0 98 -64 151.5t-182 53.5q-102 0 -164 -37.5t-62 -101.5t52 -98.5 t148 -34.5q105 0 155 44q-4 -54 -36 -81.5t-89 -27.5q-83 0 -104 46l-122 -18q15 -51 74.5 -81t146.5 -30q116 0 181.5 57zM385 387q-26 14 -26 39q0 28 27.5 44t76.5 16q46 0 74 -17.5t40 -54.5q-15 -20 -46 -30.5t-73 -10.5q-47 0 -73 14z" glyph-name="uni277E" horiz-adv-x="930" unicode="❾"/>
<glyph d="M1255 732v-94h-959v-463h104l-154 -206l-154 206h103v557h1060z" glyph-name="uniE000" horiz-adv-x="1347" unicode=""/>
<glyph d="M446 663v-47h552v-48h-552v-47h552v-48h-552v-47h552v-47h-552v-48h552v-47h-978v426h978v-47h-552zM80 676h-16l-5 15l-4 -15h-16l13 -9l-5 -15l12 9l13 -9l-5 15zM126 676l13 -9l-5 -15l12 10l13 -10l-5 15l12 9h-15l-5 15l-4 -15h-16zM213 676l13 -9l-5 -15l12 10 l13 -10l-5 15l12 9h-15l-5 15l-4 -15h-16zM300 676l13 -9l-5 -15l12 10l13 -10l-5 15l12 9h-15l-5 15l-5 -15h-15zM427 676h-15l-5 15l-5 -15h-15l12 -9l-4 -15l12 10l13 -10l-5 15zM83 632l12 -9l-4 -14l12 9l12 -9l-4 14l12 9h-15l-5 15l-5 -15h-15zM384 632h-16l-4 15 l-5 -15h-15l12 -9l-5 -14l13 9l12 -9l-5 14zM273 457h94v80h-94v94h-80v-94h-93v-80h93v-93h80v93zM80 589h-16l-5 14l-4 -14h-16l13 -9l-5 -15l12 9l13 -9l-5 15zM126 589l13 -9l-5 -15l12 9l13 -9l-5 15l12 9h-15l-5 14l-4 -14h-16zM300 589l13 -9l-5 -15l12 9l13 -9 l-5 15l12 9h-15l-5 14l-5 -14h-15zM427 589h-15l-5 14l-5 -14h-15l12 -9l-4 -15l12 9l13 -9l-5 15zM80 502h-16l-5 14l-4 -14h-16l13 -10l-5 -14l12 9l13 -9l-5 14zM427 502h-15l-5 14l-5 -14h-15l12 -10l-4 -14l12 9l13 -9l-5 14zM80 414h-16l-5 15l-4 -15h-16l13 -9 l-5 -14l12 9l13 -9l-5 14zM166 414h-15l-5 15l-4 -15h-16l13 -9l-5 -14l12 9l13 -9l-5 14zM340 414h-15l-5 15l-5 -15h-15l13 -9l-5 -14l12 9l13 -9l-5 14zM427 414h-15l-5 15l-5 -15h-15l12 -9l-4 -14l12 9l13 -9l-5 14zM111 362l12 9h-15l-5 14l-5 -14h-15l12 -9l-4 -15 l12 9l12 -9zM371 362l13 9h-16l-4 14l-5 -14h-15l12 -9l-5 -15l13 9l12 -9zM67 318l13 9h-16l-5 15l-4 -15h-16l13 -9l-5 -15l12 9l13 -9zM154 318l12 9h-15l-5 15l-4 -15h-16l13 -9l-5 -15l12 9l13 -9zM241 318l12 9h-15l-5 15l-4 -15h-16l13 -9l-5 -15l12 9l13 -9z M328 318l12 9h-15l-5 15l-5 -15h-15l13 -9l-5 -15l12 9l13 -9zM415 318l12 9h-15l-5 15l-5 -15h-15l12 -9l-4 -15l12 9l13 -9zM20 237h977v-48h-977v48zM20 142h978v-47h-978v47zM20 47h978v-47h-978v47z" glyph-name="uniF8FF" horiz-adv-x="1018" unicode=""/>
<glyph d="M381 878h180l-127 -118h-165zM371.5 49q-81.5 -64 -221.5 -64q-80 0 -136 12v155q47 -7 89 -7q71 0 109.5 32t38.5 114v419h202v-453q0 -144 -81.5 -208z" glyph-name="uni00A40301" horiz-adv-x="517"/>
<glyph d="M82 500h192v-500h-192v500zM77 727h203v-154h-203v154z" glyph-name="i.loclTRK" horiz-adv-x="356"/>
<glyph d="M215 730h177l-126 -157h-158zM-38 -202v137q23 -4 61 -4q36 0 53.5 23.5t17.5 77.5v468h192v-493q0 -109 -55 -163.5t-183 -54.5q-58 0 -86 9z" glyph-name="uni006A0301" horiz-adv-x="368"/>
<glyph d="M658.5 674.5q92.5 -44.5 144.5 -128t52 -197.5q0 -115 -52 -199t-144.5 -129t-211.5 -45t-211.5 45t-144.5 129t-52 199q0 114 52 197.5t144.5 128t211.5 44.5t211.5 -44.5zM297.5 521q-56.5 -59 -56.5 -172q0 -69 22 -121l333 294q-55 58 -149 58q-93 0 -149.5 -59z M596.5 174.5q56.5 59.5 56.5 174.5q0 60 -17 105l-327 -291q54 -48 138 -48q93 0 149.5 59.5z" glyph-name="zero.zero" horiz-adv-x="894"/>
<glyph d="M208 22q-83 42 -129 124t-46 201q0 117 46 199.5t129.5 125.5t193.5 43q111 0 194 -42.5t128.5 -125.5t45.5 -200q0 -119 -46 -201.5t-128.5 -124t-193.5 -41.5t-194 42zM528 175.5q42 61.5 42 171.5q0 109 -42.5 171.5t-125.5 62.5q-84 0 -126 -63t-42 -171 q0 -111 42 -172t126 -61t126 61.5z" glyph-name="zero.tf"/>
<glyph d="M751 146v-146h-676v146h253v318q-28 -30 -81 -46t-116 -16h-49v161h29q88 0 152 35t92 97h168v-549h228z" glyph-name="one.tf"/>
<glyph d="M53 126q115 52 214 104t157 91q57 39 79 73t22 77q0 47 -32.5 76.5t-93.5 29.5q-62 0 -99.5 -30.5t-40.5 -88.5q0 -15 1 -28l-199 19v36q3 71 50.5 123t125 79.5t166.5 27.5q152 0 239.5 -59t87.5 -169q0 -65 -27.5 -113t-92.5 -94q-51 -36 -117 -66.5t-171 -69.5h426 v-144h-695v126z" glyph-name="two.tf"/>
<glyph d="M151.5 43q-91.5 63 -96.5 173l198 16q5 -58 44 -88.5t107 -30.5q67 0 104 24t37 72q0 93 -133 93h-55l2 109h45q58 0 92.5 24t34.5 67q0 37 -32.5 58.5t-94.5 21.5q-66 0 -105 -31.5t-40 -89.5l-198 19q0 65 38.5 118.5t115.5 85t188 31.5q156 0 242.5 -53.5t86.5 -148.5 q0 -68 -50 -105t-122 -45q89 -11 139.5 -53t50.5 -115q0 -65 -42 -113.5t-120.5 -75t-185.5 -26.5q-159 0 -250.5 63z" glyph-name="three.tf"/>
<glyph d="M453 149h-427v112l401 434h211v-416h136v-130h-136v-149h-185v149zM453 279v218q0 42 4 70h-4q-8 -19 -18.5 -36t-32.5 -43l-137 -144q-39 -45 -64 -65h252z" glyph-name="four.tf"/>
<glyph d="M231.5 5.5q-71.5 25.5 -114 72.5t-51.5 109l190 19q8 -41 47.5 -66t96.5 -25q65 0 100.5 32t35.5 89q0 53 -34 85t-98 32q-46 0 -82.5 -19.5t-54.5 -54.5l-173 15l43 401h544v-136h-392l-19 -166q29 34 81.5 55t121.5 21q83 0 142.5 -29t91 -81.5t31.5 -121.5 q0 -76 -41.5 -134t-119 -90.5t-182.5 -32.5q-92 0 -163.5 25.5z" glyph-name="five.tf"/>
<glyph d="M673.5 414.5q77.5 -62.5 77.5 -180.5q0 -75 -41.5 -132.5t-118.5 -89.5t-179 -32q-170 0 -264.5 94.5t-94.5 264.5q0 179 95 277.5t270 98.5q129 0 214.5 -48t104.5 -134l-188 -25q-28 73 -131 73q-77 0 -120.5 -47.5t-48.5 -136.5q74 80 206 80q141 0 218.5 -62.5z M517.5 147q37.5 33 37.5 86q0 57 -36 87.5t-99 30.5q-59 0 -100 -28.5t-61 -81.5q15 -63 55 -95t103 -32t100.5 33z" glyph-name="six.tf"/>
<glyph d="M232 18q0 155 79.5 291t230.5 239h-479v147h675v-138q-137 -96 -214.5 -224.5t-77.5 -292.5v-40h-214v18z" glyph-name="seven.tf"/>
<glyph d="M724 309q39 -45 39 -117q0 -66 -42.5 -113.5t-123 -73t-192.5 -25.5q-172 0 -268.5 52.5t-96.5 145.5q0 63 44 105.5t126 59.5q-74 25 -111 66.5t-37 107.5q0 59 44.5 104t122 69.5t173.5 24.5q101 0 177.5 -23t119 -66t42.5 -99q0 -55 -35.5 -93t-100.5 -53 q80 -27 119 -72zM300.5 573.5q-37.5 -22.5 -37.5 -58.5q0 -35 30.5 -56t91.5 -33l81 -14h2q38 17 55.5 40.5t17.5 55.5q0 40 -36 64t-102 24q-65 0 -102.5 -22.5zM518.5 131.5q41.5 24.5 41.5 66.5t-34 64t-110 37l-74 14q-98 -34 -98 -109q0 -47 42 -72t119 -25 q72 0 113.5 24.5z" glyph-name="eight.tf"/>
<glyph d="M660.5 623q94.5 -92 94.5 -262q0 -182 -91.5 -281.5t-266.5 -99.5q-135 0 -227 51.5t-112 142.5l200 26q27 -82 146 -82q71 0 110 49.5t44 144.5q-37 -33 -90 -52t-121 -19q-138 0 -217.5 60.5t-79.5 172.5q0 73 42.5 127.5t119.5 84t178 29.5q176 0 270.5 -92zM493 395 q45 27 58 72q-14 57 -56 87.5t-106 30.5t-104 -29.5t-40 -80.5q0 -50 38 -78.5t99 -28.5q66 0 111 27z" glyph-name="nine.tf"/>
<glyph d="M596 672.5q83 -42.5 128.5 -125.5t45.5 -200q0 -119 -46 -201.5t-128.5 -124t-193.5 -41.5t-194 42t-129 124t-46 201q0 117 46 199.5t129.5 125.5t193.5 43q111 0 194 -42.5zM276 518q-42 -63 -42 -171q0 -50 9 -91l289 256q-44 69 -130 69q-84 0 -126 -63zM528 175.5 q42 61.5 42 171.5q0 49 -9 89l-288 -255q42 -67 129 -67q84 0 126 61.5z" glyph-name="zero.tf.zero"/>
<glyph d="M699.5 45q-84.5 -59 -240.5 -64v-86h-71v86q-132 5 -228 48t-141 118l147 87q34 -54 88.5 -83t133.5 -36v175l-86 13q-117 17 -173.5 68.5t-56.5 140.5q0 94 81 146.5t235 56.5v83h71v-84q215 -10 315 -127l-130 -95q-23 39 -70 62t-115 29v-163l96 -14 q122 -16 175.5 -62.5t53.5 -136.5q0 -103 -84.5 -162zM388 430v156q-69 -2 -101.5 -19.5t-32.5 -51.5q0 -37 23.5 -54t86.5 -27zM571.5 133.5q35.5 20.5 35.5 62.5q0 34 -21.5 50.5t-74.5 24.5l-52 8v-167q77 1 112.5 21.5z" glyph-name="dollar.tf"/>
<glyph d="M539 130.5q35 28.5 48 72.5l183 -32q-24 -81 -106.5 -134.5t-217.5 -59.5v-78h-72v78q-108 5 -183 42t-113.5 97t-38.5 135q0 74 38 133.5t113.5 96t183.5 42.5v71h72v-71q133 -6 217 -57.5t108 -135.5l-185 -27q-13 41 -48 68.5t-92 35.5v-312q58 7 93 35.5zM262 147 q41 -43 112 -52v312q-72 -9 -112.5 -51.5t-40.5 -104.5q0 -61 41 -104z" glyph-name="cent.tf"/>
<glyph d="M786 190q-15 -98 -82 -154t-169 -56q-29 0 -53 3.5t-61 10.5q-74 17 -138 17q-108 0 -235 -19l-33 93q73 19 109 60t36 105q0 34 -6 62h-107v90h84q-9 41 -9 74q0 73 38 127t108.5 83t166.5 29q136 0 216 -47.5t101 -139.5l-186 -33q-9 44 -42 68t-86 24 q-125 0 -125 -111q0 -37 10 -74h190v-90h-168q3 -19 3 -42q0 -49 -24.5 -83.5t-71.5 -52.5q44 8 90 8q26 0 50.5 -4t28.5 -5q45 -9 77 -9q42 0 69 23t33 66z" glyph-name="sterling.tf"/>
<glyph d="M536.5 555.5q-30.5 -27.5 -39.5 -95.5l-5 -32h186v-125h-203l-64 -453h-213l66 453h-163v125h181l4 30q13 95 51 152.5t106 84.5t173 27q48 0 99 -11v-137q-39 9 -83 9q-65 0 -95.5 -27.5z" glyph-name="florin.tf"/>
<glyph d="M520 301h214v-69h-233v-59h233v-69h-233v-104h-199v104h-233v69h233v59h-233v69h214l-290 394h218l156 -239q20 -31 34 -64h2q12 32 33 64l156 239h218z" glyph-name="yen.tf"/>
<glyph d="M777 167q-39 -88 -125 -137.5t-202 -49.5q-146 0 -238 74.5t-117 202.5h-70v62h62q-1 11 -1 34v6v21h-61v63h69q17 81 65 142.5t124 95.5t173 34q120 0 204 -49t113 -137l-173 -57q-19 50 -53 74.5t-93 24.5q-63 0 -102 -33.5t-54 -94.5h212v-63h-221v-19v-8q0 -23 1 -34 h220v-62h-210q15 -63 54.5 -98t102.5 -35q102 0 147 109z" glyph-name="Euro.tf"/>
<glyph d="M615 730h111l-527 -744h-112zM70.5 416q-50.5 48 -50.5 130q0 79 50.5 127t133.5 48q82 0 133 -49t51 -129q0 -79 -51 -127t-132 -48q-84 0 -134.5 48zM253 487.5q18 20.5 18 55.5v1q0 36 -18 57t-49 21t-49.5 -20t-18.5 -55v-1q0 -37 18.5 -58t50.5 -21q30 0 48 20.5z M467.5 38q-50.5 48 -50.5 130q0 79 50.5 127t133.5 48q81 0 132.5 -49t51.5 -129q0 -79 -51 -127t-132 -48q-84 0 -134.5 48zM650 109.5q18 20.5 18 55.5v1q0 36 -18 57t-49 21q-32 0 -50 -20.5t-18 -55.5v-1q0 -37 18.5 -57.5t50.5 -20.5q30 0 48 20.5z" glyph-name="percent.tf"/>
<glyph d="M65 445.5q-46 41.5 -46 111.5t46 112t121 42t121 -42t46 -112t-46 -111.5t-121 -41.5t-121 41.5zM121 556q0 -31 17.5 -49t47.5 -18t47 18t17 49v2q0 31 -17 49t-47 18t-47.5 -18t-17.5 -49v-2zM734 496l-683 -297v94l683 296v-93zM737.5 246q45.5 -42 45.5 -112 q0 -69 -45.5 -111t-121.5 -42q-68 0 -112 38q-44 -38 -112 -38q-75 0 -121 42t-46 111q0 70 46 112t121 42q68 0 112 -39q44 39 112 39q76 0 121.5 -42zM457 135q0 31 -17.5 49t-47.5 18t-47 -18t-17 -49v-2q0 -31 17 -48.5t47 -17.5t47.5 17.5t17.5 48.5v2zM681 135 q0 31 -17 49t-48 18q-30 0 -47 -18t-17 -49v-2q0 -31 17 -48.5t47 -17.5q31 0 48 17.5t17 48.5v2z" glyph-name="perthousand.tf"/>
<glyph d="M34 -20h206q26 -78 178 -78q183 0 183 131v76q-36 -49 -104.5 -76.5t-155.5 -27.5q-93 0 -165 33t-112 91.5t-40 134.5t41 133.5t114 89.5t168 32q86 0 153 -26.5t109 -79.5l13 87h171v-460q0 -127 -97.5 -190.5t-289.5 -63.5q-331 0 -372 194zM551.5 160 q53.5 38 53.5 100v8q0 38 -25 68t-69.5 47t-101.5 17q-86 0 -135.5 -36.5t-49.5 -99.5q0 -66 50 -104t136 -38q88 0 141.5 38z" glyph-name="g.ss01" horiz-adv-x="875"/>
<glyph d="M34 -20h206q26 -78 178 -78q183 0 183 131v76q-36 -49 -104.5 -76.5t-155.5 -27.5q-93 0 -165 33t-112 91.5t-40 134.5t41 133.5t114 89.5t168 32q86 0 153 -26.5t109 -79.5l13 87h171v-460q0 -127 -97.5 -190.5t-289.5 -63.5q-331 0 -372 194zM551.5 160 q53.5 38 53.5 100v8q0 38 -25 68t-69.5 47t-101.5 17q-86 0 -135.5 -36.5t-49.5 -99.5q0 -66 50 -104t136 -38q88 0 141.5 38zM434 652q83 0 92 78h130q-7 -80 -65 -121t-157 -41q-100 0 -158 41t-65 121h130q9 -78 93 -78z" glyph-name="gbreve.ss01" horiz-adv-x="875"/>
<glyph d="M34 -20h206q26 -78 178 -78q183 0 183 131v76q-36 -49 -104.5 -76.5t-155.5 -27.5q-93 0 -165 33t-112 91.5t-40 134.5t41 133.5t114 89.5t168 32q86 0 153 -26.5t109 -79.5l13 87h171v-460q0 -127 -97.5 -190.5t-289.5 -63.5q-331 0 -372 194zM551.5 160 q53.5 38 53.5 100v8q0 38 -25 68t-69.5 47t-101.5 17q-86 0 -135.5 -36.5t-49.5 -99.5q0 -66 50 -104t136 -38q88 0 141.5 38zM535 573l-102 101l-102 -101h-154l156 157h200l156 -157h-154z" glyph-name="gcircumflex.ss01" horiz-adv-x="875"/>
<glyph d="M34 -20h206q26 -78 178 -78q183 0 183 131v76q-36 -49 -104.5 -76.5t-155.5 -27.5q-93 0 -165 33t-112 91.5t-40 134.5t41 133.5t114 89.5t168 32q86 0 153 -26.5t109 -79.5l13 87h171v-460q0 -127 -97.5 -190.5t-289.5 -63.5q-331 0 -372 194zM551.5 160 q53.5 38 53.5 100v8q0 38 -25 68t-69.5 47t-101.5 17q-86 0 -135.5 -36.5t-49.5 -99.5q0 -66 50 -104t136 -38q88 0 141.5 38zM494 721q-38 -9 -53 -19.5t-17 -29.5h99v-100h-187v76q0 98 132 120z" glyph-name="uni0123.ss01" horiz-adv-x="875"/>
<glyph d="M34 -20h206q26 -78 178 -78q183 0 183 131v76q-36 -49 -104.5 -76.5t-155.5 -27.5q-93 0 -165 33t-112 91.5t-40 134.5t41 133.5t114 89.5t168 32q86 0 153 -26.5t109 -79.5l13 87h171v-460q0 -127 -97.5 -190.5t-289.5 -63.5q-331 0 -372 194zM551.5 160 q53.5 38 53.5 100v8q0 38 -25 68t-69.5 47t-101.5 17q-86 0 -135.5 -36.5t-49.5 -99.5q0 -66 50 -104t136 -38q88 0 141.5 38zM332 727h203v-154h-203v154z" glyph-name="gdotaccent.ss01" horiz-adv-x="875"/>
<glyph d="M34 -20h206q26 -78 178 -78q183 0 183 131v76q-36 -49 -104.5 -76.5t-155.5 -27.5q-93 0 -165 33t-112 91.5t-40 134.5t41 133.5t114 89.5t168 32q86 0 153 -26.5t109 -79.5l13 87h171v-460q0 -127 -97.5 -190.5t-289.5 -63.5q-331 0 -372 194zM551.5 160 q53.5 38 53.5 100v8q0 38 -25 68t-69.5 47t-101.5 17q-86 0 -135.5 -36.5t-49.5 -99.5q0 -66 50 -104t136 -38q88 0 141.5 38zM909 -20h206q26 -78 178 -78q183 0 183 131v76q-36 -49 -104.5 -76.5t-155.5 -27.5q-93 0 -165 33t-112 91.5t-40 134.5t41 133.5t114 89.5 t168 32q86 0 153 -26.5t109 -79.5l13 87h171v-460q0 -127 -97.5 -190.5t-289.5 -63.5q-331 0 -372 194zM1426.5 160q53.5 38 53.5 100v8q0 38 -25 68t-69.5 47t-101.5 17q-86 0 -135.5 -36.5t-49.5 -99.5q0 -66 50 -104t136 -38q88 0 141.5 38z" glyph-name="g_g.liga.ss01" horiz-adv-x="1750"/>
<glyph d="M35 292h173q7 -28 36.5 -41.5t77.5 -13.5q60 1 89 23.5t29 70.5v62q-26 -35 -74 -55t-111 -20q-68 0 -120 23.5t-80 65.5t-28 98q0 54 29.5 96t83 65.5t122.5 23.5q62 0 108 -18.5t78 -57.5l8 61h148v-335q0 -186 -292 -186q-252 0 -277 138zM408.5 436q35.5 26 35.5 67 v4q0 40 -35 64t-91 24t-88.5 -24t-32.5 -66q0 -44 32 -69.5t87 -25.5q57 0 92.5 26z" glyph-name="g.sups.ss01" horiz-adv-x="670"/>
<glyph d="M90 326q-48 30 -48 86q0 60 50 85t139 30l181 11v9q0 60 -88 60q-41 0 -67 -13t-32 -38h-173q12 62 86 98t186 36q133 0 193.5 -42t60.5 -128v-104q0 -56 6 -106h-163q-3 22 -5 65q-17 -36 -68 -57.5t-121 -21.5q-89 0 -137 30zM379.5 402.5q35.5 22.5 35.5 59.5v16 l-129 -10q-43 -3 -62 -13.5t-19 -29.5q0 -21 22.5 -33t60.5 -12q56 0 91.5 22.5z" glyph-name="a.sups" horiz-adv-x="642"/>
<glyph d="M305 316q-47 20 -76 56l-11 -62h-148v529h164v-220q65 71 188 71q67 0 118 -24.5t79.5 -68.5t28.5 -100q0 -60 -29 -105.5t-82.5 -70.5t-125.5 -25q-59 0 -106 20zM445 421.5q34 26.5 34 72.5q0 44 -33.5 70.5t-91.5 26.5q-57 0 -92 -26.5t-35 -68.5v-5q0 -43 34.5 -69.5 t91.5 -26.5q58 0 92 26.5z" glyph-name="b.sups" horiz-adv-x="675"/>
<glyph d="M162 320q-66 24 -101.5 69t-35.5 106q0 92 77.5 143.5t214.5 51.5q114 0 188.5 -38.5t91.5 -105.5l-172 -22q-9 28 -39 44.5t-74 16.5q-53 0 -85 -24t-32 -65q0 -42 32.5 -68.5t84.5 -26.5q48 0 77 16.5t37 48.5l171 -25q-16 -67 -91.5 -106t-188.5 -39q-89 0 -155 24z " glyph-name="c.sups" horiz-adv-x="624"/>
<glyph d="M134.5 320.5q-51.5 24.5 -79.5 70t-28 105.5q0 57 28.5 101t81.5 68.5t122 24.5q117 0 182 -65v215h163v-530h-158v72q-29 -40 -77.5 -63t-114.5 -23q-68 0 -119.5 24.5zM409.5 422q35.5 27 35.5 70v5q0 42 -35.5 68t-92.5 26t-88.5 -25.5t-31.5 -70.5q0 -46 32.5 -73 t88.5 -27t91.5 27z" glyph-name="d.sups" horiz-adv-x="675"/>
<glyph d="M581 467h-401q7 -37 42 -58t92 -21q45 0 86.5 15.5t61.5 39.5l102 -55q-38 -44 -104 -68t-153 -24q-133 0 -207.5 52t-74.5 145q0 60 34 104.5t97 68.5t147 24q133 0 205.5 -57t72.5 -158v-8zM419 532q-2 35 -33 57.5t-83 22.5q-55 0 -87 -21.5t-36 -58.5h239z" glyph-name="e.sups" horiz-adv-x="607"/>
<glyph d="M455 577h-158v-267h-164v267h-112v98h112v12q0 81 56 120.5t171 39.5q50 0 95 -9v-104q-35 7 -78 7q-44 0 -62 -12.5t-18 -44.5v-9h158v-98z" glyph-name="f.sups" horiz-adv-x="478"/>
<glyph d="M571 651q-29 0 -48 -6q45 -31 45 -80q0 -60 -68 -93.5t-190 -33.5q-72 0 -126 12q-16 -6 -16 -23q0 -24 39 -24l251 -4q83 -1 121.5 -25.5t38.5 -75.5q0 -75 -77.5 -109.5t-250.5 -34.5q-134 0 -196.5 20t-62.5 62q0 45 65 60q-29 11 -45 30.5t-16 45.5q0 34 27 57.5 t76 33.5q-88 34 -88 102q0 60 67.5 92.5t192.5 32.5q85 0 147 -16q12 36 45 54t82 18q20 0 35 -3v-97q-15 5 -48 5zM380 520.5q25 15.5 25 44.5q0 28 -24.5 43t-70.5 15q-47 0 -72 -15t-25 -43q0 -29 25.5 -44.5t71.5 -15.5q45 0 70 15.5zM155 287q-10 -10 -10 -21 q0 -22 15.5 -34t53 -17.5t105.5 -5.5q58 0 89 4t44 13t13 26t-12.5 24t-43.5 8z" glyph-name="g.sups" horiz-adv-x="645"/>
<glyph d="M70 839h164v-238q24 42 73 65.5t114 23.5q98 0 151.5 -55t53.5 -155v-170h-163v154q0 57 -28 86t-83 29q-57 0 -87.5 -30.5t-30.5 -88.5v-150h-164v529z" glyph-name="h.sups" horiz-adv-x="682"/>
<glyph d="M64 847h169v-125h-169v125zM66 675h164v-365h-164v365z" glyph-name="i.sups" horiz-adv-x="296"/>
<glyph d="M69 847h168v-125h-168v125zM-14 167v112q15 -3 36 -3q51 0 51 67v332h164v-352q0 -85 -44 -124t-143 -39q-44 0 -64 7z" glyph-name="j.sups" horiz-adv-x="303"/>
<glyph d="M452 539l180 -229h-183l-120 162l-95 -69v-93h-164v529h164v-309l188 145h210z" glyph-name="k.sups" horiz-adv-x="647"/>
<glyph d="M234 310h-164v529h164v-529z" glyph-name="l.sups" horiz-adv-x="305"/>
<glyph d="M226 675v-81q20 45 63.5 70t101.5 25q59 0 100.5 -24t61.5 -70q27 46 72.5 70t106.5 24q90 0 137.5 -51t47.5 -146v-182h-162v159q0 51 -23 77.5t-67 26.5t-68 -27t-24 -77v-159h-163v161q0 102 -90 102q-44 0 -67 -27t-23 -78v-158h-164v365h160z" glyph-name="m.sups" horiz-adv-x="973"/>
<glyph d="M66 675h160v-84q24 47 73.5 72.5t118.5 25.5q100 0 152 -53t52 -155v-171h-164v149q0 117 -109 117q-58 0 -88.5 -30t-30.5 -89v-147h-164v365z" glyph-name="n.sups" horiz-adv-x="677"/>
<glyph d="M163.5 320q-66.5 24 -102.5 68.5t-36 104.5q0 59 36.5 104t102.5 69t154 24t153.5 -24t101.5 -69t36 -104q0 -60 -36 -104.5t-101.5 -68.5t-153.5 -24t-154.5 24zM406 421q34 27 34 72q0 44 -34 71t-88 27q-56 0 -89.5 -27t-33.5 -71q0 -45 33.5 -72t89.5 -27q54 0 88 27 z" glyph-name="o.sups" horiz-adv-x="634"/>
<glyph d="M66 675h161v-60q31 37 79 56t110 19q68 0 119.5 -24.5t80 -68t28.5 -100.5q0 -60 -29.5 -105.5t-82 -70.5t-121.5 -25q-114 0 -181 70v-198h-164v507zM441.5 423q32.5 28 32.5 75q0 43 -32 68t-89 25t-92 -25t-35 -68v-1q0 -46 35 -74t92 -28q56 0 88.5 28z" glyph-name="p.sups" horiz-adv-x="670"/>
<glyph d="M441 370q-30 -35 -77.5 -54.5t-109.5 -19.5q-67 0 -118.5 25t-80 70.5t-28.5 105.5q0 58 29 102.5t81.5 69t122.5 24.5q63 0 108.5 -19t79.5 -60l9 61h147v-507h-163v202zM409.5 422.5q35.5 27.5 35.5 73.5v4q0 43 -35.5 69t-93.5 26q-56 0 -87.5 -26.5t-31.5 -71.5 q0 -47 32 -74.5t88 -27.5q57 0 92.5 27.5z" glyph-name="q.sups" horiz-adv-x="670"/>
<glyph d="M269 650q45 33 112 33q25 0 49 -3v-136q-26 5 -64 5q-64 0 -94 -27q-42 -36 -42 -103v-109h-164v365h142v-115q16 57 61 90z" glyph-name="r.sups" horiz-adv-x="452"/>
<glyph d="M135.5 314q-79.5 18 -122.5 50l67 76q112 -56 242 -56q44 0 64 7t20 25q0 13 -15.5 19.5t-56.5 10.5l-153 14q-70 7 -103.5 32.5t-33.5 74.5q0 62 52 92.5t178 30.5q158 0 275 -52l-63 -80q-48 26 -100.5 38t-117.5 12q-42 0 -60 -7t-18 -23q0 -12 16 -18.5t58 -10.5 l138 -13q83 -8 117 -32t34 -81q0 -62 -58 -94.5t-186 -32.5q-94 0 -173.5 18z" glyph-name="s.sups" horiz-adv-x="580"/>
<glyph d="M10 675h107v82l163 56v-138h160v-98h-160v-88q0 -37 22 -54.5t67 -17.5q43 0 69 8v-108q-39 -17 -116 -17q-96 0 -150.5 34.5t-54.5 119.5v123h-107v98z" glyph-name="t.sups" horiz-adv-x="476"/>
<glyph d="M370 320.5q-51 -24.5 -118 -24.5q-92 0 -144.5 46.5t-52.5 129.5v203h164v-157q0 -112 104 -112q56 0 87.5 30.5t31.5 83.5v155h164v-365h-161v81q-24 -46 -75 -70.5z" glyph-name="u.sups" horiz-adv-x="672"/>
<glyph d="M6 675h177l101 -189l24 -52h4l26 52l100 189h178l-213 -365h-185z" glyph-name="v.sups" horiz-adv-x="621"/>
<glyph d="M20 675h162l68 -200q7 -27 11 -46h2q2 14 6.5 27.5t6.5 18.5l79 200h162l78 -200q10 -29 13 -46h2q6 31 12 46l67 200h162l-151 -365h-173l-76 187q-11 33 -14 50h-3q-2 -14 -7 -29.5t-7 -20.5l-76 -187h-173z" glyph-name="w.sups" horiz-adv-x="871"/>
<glyph d="M203 496l-183 179h197l71 -71q19 -22 28 -38h2q10 18 28 38l70 71h186l-178 -175l191 -190h-199l-83 81q-12 12 -26 34h-2q-10 -18 -26 -34l-83 -81h-181z" glyph-name="x.sups" horiz-adv-x="629"/>
<glyph d="M46 163v119q36 -6 75 -6q33 0 62.5 6.5t43.5 20.5l2 3l-223 369h181l96 -189q3 -6 6 -12.5t6 -12.5q9 -18 14 -31h3l13 29l12 24l93 192h175l-211 -381q-42 -74 -97.5 -107t-147.5 -33q-67 0 -103 9z" glyph-name="y.sups" horiz-adv-x="610"/>
<glyph d="M316 581h-266v94h473v-94l-272 -176h281v-95h-491v97z" glyph-name="z.sups" horiz-adv-x="567"/>
<glyph d="M235.5 22q-92.5 46 -144.5 132t-52 202t52 201.5t144.5 131t211.5 45.5t211.5 -45.5t144.5 -131t52 -201.5t-52 -202t-144.5 -132t-211.5 -46t-211.5 46zM596.5 176.5q56.5 61.5 56.5 179.5t-56.5 178.5t-149.5 60.5t-149.5 -60.5t-56.5 -178.5t56.5 -179.5t149.5 -61.5 t149.5 61.5z" glyph-name="zero.case" horiz-adv-x="894"/>
<glyph d="M237 478q-24 -28 -68 -42.5t-99 -14.5h-48v160h27q80 0 135.5 34t79.5 95h168v-710h-195v478z" glyph-name="one.case" horiz-adv-x="544"/>
<glyph d="M36 132q270 101 414 184q69 39 95.5 75.5t26.5 83.5q0 52 -40.5 86t-119.5 34q-78 0 -122.5 -36t-44.5 -103q0 -13 3 -31l-201 18q-3 12 -3 38q0 76 47 133.5t130.5 88.5t190.5 31q173 0 270 -64.5t97 -179.5q0 -76 -39.5 -129t-117.5 -98q-118 -67 -294 -116h466v-147 h-758v132z" glyph-name="two.case" horiz-adv-x="844"/>
<glyph d="M139.5 42.5q-100.5 66.5 -108.5 184.5l200 16q12 -132 187 -132q84 0 130 26t46 74q0 50 -40.5 71t-123.5 21h-83v113h81q152 0 152 89q0 45 -42.5 70t-123.5 25q-84 0 -130.5 -34.5t-49.5 -100.5l-197 19q3 73 47 129.5t128 88.5t201 32q177 0 273 -56.5t96 -157.5 q0 -71 -49 -108.5t-127 -45.5q194 -22 194 -171q0 -64 -45.5 -113.5t-132.5 -77.5t-207 -28q-175 0 -275.5 66.5z" glyph-name="three.case" horiz-adv-x="841"/>
<glyph d="M700 154v-154h-192v154h-496v120l469 436h219v-427h155v-129h-155zM513 579h-5q-8 -16 -23.5 -33.5t-49.5 -51.5l-144 -143q-24 -24 -41 -38.5t-39 -29.5h297v201q0 70 5 95z" glyph-name="four.case" horiz-adv-x="864"/>
<glyph d="M225.5 2.5q-79.5 26.5 -128 76.5t-59.5 117l193 23q10 -50 58 -79t120 -29q83 0 128 33.5t45 96.5q0 60 -43.5 91.5t-123.5 31.5q-128 0 -174 -91l-176 15l46 422h620v-138h-467l-21 -172q30 43 92.5 66.5t145.5 23.5q142 0 222.5 -65t80.5 -182q0 -82 -46 -142 t-131.5 -92.5t-200.5 -32.5q-101 0 -180.5 26.5z" glyph-name="five.case" horiz-adv-x="821"/>
<glyph d="M726.5 421.5q84.5 -64.5 84.5 -184.5q0 -78 -46.5 -137t-132 -91.5t-197.5 -32.5q-190 0 -293 96t-103 274q0 186 106 287t299 101q143 0 238.5 -53t120.5 -149l-200 -27q-33 95 -166 95q-98 0 -151 -53.5t-57 -156.5q42 47 107.5 71.5t148.5 24.5q157 0 241.5 -64.5z M562 145q48 35 48 92q0 60 -43 91.5t-124 31.5q-71 0 -123.5 -29t-77.5 -83q38 -138 193 -138q79 0 127 35z" glyph-name="six.case" horiz-adv-x="847"/>
<glyph d="M193 18q0 160 84 299t244 246h-507v147h704v-138q-146 -98 -228.5 -230.5t-82.5 -301.5v-40h-214v18z" glyph-name="seven.case" horiz-adv-x="735"/>
<glyph d="M773 317q43 -47 43 -121q0 -69 -46 -118.5t-132.5 -75.5t-207.5 -26q-122 0 -210.5 24.5t-135.5 70.5t-47 111q0 66 47 109.5t134 60.5q-82 26 -120.5 69t-38.5 109q0 62 45 108.5t128 71t195 24.5q111 0 194.5 -23.5t128.5 -68t45 -103.5q0 -56 -42 -94.5t-118 -52.5 q95 -28 138 -75zM304.5 592.5q-44.5 -22.5 -44.5 -64.5q0 -36 35.5 -58t114.5 -35l93 -15q2 0 3 -1q46 19 67 43.5t21 58.5q0 46 -43 70t-123 24q-79 0 -123.5 -22.5zM564 129q49 27 49 73q0 41 -39 65t-133 40l-88 15q-112 -34 -112 -114q0 -51 49 -78.5t140 -27.5 q85 0 134 27z" glyph-name="eight.case" horiz-adv-x="854"/>
<glyph d="M704 640q104 -94 104 -270q0 -188 -105 -291t-299 -103q-142 0 -238 57t-122 157l200 27q17 -51 59.5 -77t107.5 -26q101 0 153.5 56t54.5 162q-40 -40 -104 -62t-152 -22q-156 0 -241.5 61.5t-85.5 176.5q0 76 46 132t129.5 86t194.5 30q194 0 298 -94zM533.5 401 q52.5 27 74.5 73q-18 64 -67 98.5t-129 34.5q-82 0 -128 -31.5t-46 -89.5q0 -53 44 -82.5t122 -29.5q77 0 129.5 27z" glyph-name="nine.case" horiz-adv-x="848"/>
<glyph d="M726 146v-146h-676v146h253v333q-28 -30 -81 -46t-116 -16h-49v161h29q88 0 152 35t92 97h168v-564h228z" glyph-name="one.case.ss02" horiz-adv-x="748"/>
<glyph d="M658.5 688.5q92.5 -45.5 144.5 -131t52 -201.5t-52 -202t-144.5 -132t-211.5 -46t-211.5 46t-144.5 132t-52 202t52 201.5t144.5 131t211.5 45.5t211.5 -45.5zM297.5 534.5q-56.5 -60.5 -56.5 -178.5q0 -69 21 -122l331 304q-55 57 -146 57q-93 0 -149.5 -60.5z M596.5 176.5q56.5 61.5 56.5 179.5q0 62 -18 114l-329 -302q53 -53 141 -53q93 0 149.5 61.5z" glyph-name="zero.case.zero" horiz-adv-x="894"/>
<glyph d="M231.5 12.5q-91.5 36.5 -141.5 102.5t-50 153t50 153t141.5 102t211.5 36q121 0 212 -36t141 -102.5t50 -153.5t-50 -153t-141.5 -102t-211.5 -36t-211.5 36.5zM592.5 158q55.5 41 55.5 109q0 69 -55.5 109.5t-149.5 40.5q-93 0 -148.5 -40.5t-55.5 -109.5 q0 -68 55.5 -109t148.5 -41q94 0 149.5 41z" glyph-name="zero.osf" horiz-adv-x="887"/>
<glyph d="M730 133v-133h-675v133h253v209q-31 -24 -85.5 -40.5t-120.5 -18.5h-36v149h32q79 0 143.5 28.5t88.5 74.5h170v-402h230z" glyph-name="one.osf" horiz-adv-x="754"/>
<glyph d="M279.5 182q85.5 24 143.5 47q63 25 88.5 49.5t25.5 59.5q0 40 -35.5 64t-94.5 24q-70 0 -107 -28t-37 -81q0 -11 2 -19l-200 19q-2 14 -2 23q0 65 43 115t121 77t181 27t177.5 -24t114.5 -69.5t40 -107.5q0 -78 -90 -131q-92 -54 -255 -94h381v-133h-734v120 q152 38 237.5 62z" glyph-name="two.osf" horiz-adv-x="826"/>
<glyph d="M213.5 -145q-84.5 29 -131.5 84t-51 132l197 15q5 -64 54 -94t133 -30t131 25t47 72q0 42 -38 62t-126 20h-77v109h75q143 0 143 82q0 44 -40.5 67.5t-117.5 23.5q-81 0 -126.5 -31.5t-46.5 -96.5l-194 20q0 73 45.5 128.5t128.5 85.5t194 30q169 0 264 -54.5t95 -154.5 q0 -65 -46 -102.5t-119 -47.5q92 -9 141 -51t49 -110q0 -66 -48 -114t-135 -73.5t-202 -25.5q-114 0 -198.5 29z" glyph-name="three.osf" horiz-adv-x="838"/>
<glyph d="M516 -3h-497v121l470 417h219v-408h155v-130h-155v-147h-192v147zM516 127v207q0 43 4 70h-4q-10 -18 -24 -34.5t-42 -41.5l-163 -150q-24 -21 -39.5 -32t-33.5 -19h302z" glyph-name="four.osf" horiz-adv-x="875"/>
<glyph d="M225.5 -147.5q-79.5 26.5 -128 75.5t-59.5 115l193 23q10 -49 58.5 -77t120.5 -28q82 0 127 33.5t45 93.5q0 56 -43 86t-123 30q-128 0 -175 -86l-176 15l46 402h620v-138h-467l-21 -154q30 40 93 63t146 23q143 0 223.5 -63.5t80.5 -176.5q0 -79 -46.5 -138.5 t-132.5 -92t-200 -32.5q-102 0 -181.5 26.5z" glyph-name="five.osf" horiz-adv-x="822"/>
<glyph d="M726.5 413.5q84.5 -63.5 84.5 -179.5q0 -76 -46.5 -133.5t-132 -89t-197.5 -31.5q-190 0 -293 93.5t-103 265.5q0 179 106 277.5t299 98.5q143 0 238.5 -50.5t120.5 -140.5l-200 -26q-33 83 -166 83q-96 0 -149 -49.5t-58 -144.5q42 44 107 67t148 23q157 0 241.5 -63.5z M562 147q48 33 48 86q0 57 -43 87.5t-124 30.5q-71 0 -123 -27.5t-78 -77.5q38 -132 193 -132q79 0 127 33z" glyph-name="six.osf" horiz-adv-x="848"/>
<glyph d="M193 -132q0 154 84 286t245 234h-508v147h704v-138q-153 -100 -231.5 -227.5t-78.5 -279.5v-40h-215v18z" glyph-name="seven.osf" horiz-adv-x="736"/>
<glyph d="M774.5 312q42.5 -46 42.5 -118q0 -67 -46 -115t-133 -73.5t-208 -25.5q-122 0 -210.5 23.5t-135 68.5t-46.5 107q0 64 47 106.5t133 58.5q-82 26 -120 68t-38 107q0 60 45 104t128 68t195 24q111 0 194 -23t128 -65t45 -99q0 -54 -41 -91t-115 -52q93 -27 135.5 -73z M305.5 575q-44.5 -21 -44.5 -58q0 -35 35 -56t115 -33l93 -15q3 0 4 -1q45 18 65.5 41.5t20.5 55.5q0 42 -43 64.5t-123 22.5q-78 0 -122.5 -21zM565 132q49 25 49 68q0 40 -39 62.5t-134 37.5l-89 15q-111 -33 -111 -110q0 -47 49.5 -72.5t140.5 -25.5q85 0 134 25z" glyph-name="eight.osf" horiz-adv-x="854"/>
<glyph d="M704.5 465q104.5 -94 104.5 -268q0 -183 -103.5 -277t-304.5 -94q-152 0 -240 47t-114 142l189 23q24 -79 173 -79q201 0 210 198q-41 -38 -105 -58t-148 -20q-158 0 -244 61t-86 174q0 74 45.5 129.5t129.5 85.5t196 30q193 0 297.5 -94zM532.5 230q52.5 24 76.5 68 q-18 63 -69 97t-128 34q-80 0 -127 -31t-47 -84q0 -51 45 -79.5t125 -28.5q72 0 124.5 24z" glyph-name="nine.osf" horiz-adv-x="848"/>
<glyph d="M655 523q91 -36 141 -102.5t50 -153.5t-50 -153t-141.5 -102t-211.5 -36t-211.5 36.5t-141.5 102.5t-50 153t50 153t141.5 102t211.5 36q121 0 212 -36zM294.5 376.5q-55.5 -40.5 -55.5 -109.5q0 -44 25 -78l319 194q-54 34 -140 34q-93 0 -148.5 -40.5zM592.5 158 q55.5 41 55.5 109q0 45 -24 78l-319 -194q53 -34 138 -34q94 0 149.5 41z" glyph-name="zero.osf.zero" horiz-adv-x="887"/>
<glyph d="M723 146v-146h-676v146h253v318q-28 -30 -81 -46t-116 -16h-49v161h29q88 0 152 35t92 97h168v-549h228z" glyph-name="one.ss02" horiz-adv-x="748"/>
<glyph d="M208 19.5q-83 43.5 -129 129t-46 206.5t46 206.5t129 129t194 43.5t194 -43.5t128.5 -128.5t45.5 -206q0 -122 -46 -207.5t-128.5 -129t-193.5 -43.5t-194 43.5zM528 174.5q42 65.5 42 181.5t-42.5 180.5t-125.5 64.5q-84 0 -126 -65t-42 -180q0 -116 42.5 -181.5 t125.5 -65.5q84 0 126 65.5z" glyph-name="zero.tf.case"/>
<glyph d="M751 146v-146h-676v146h253v332q-28 -30 -81 -47t-116 -17h-49v160h29q89 0 152.5 36t91.5 100h168v-564h228z" glyph-name="one.tf.case"/>
<glyph d="M53 125q115 54 214 108.5t157 94.5q57 39 79 74.5t22 80.5q0 51 -32.5 82.5t-93.5 31.5q-62 0 -99.5 -32.5t-40.5 -94.5q0 -16 1 -28l-199 19v35q3 74 50.5 128t125 82t166.5 28q152 0 239.5 -61t87.5 -174q0 -66 -27.5 -114.5t-92.5 -97.5q-51 -38 -118 -70.5 t-170 -73.5h426v-143h-695v125z" glyph-name="two.tf.case"/>
<glyph d="M151.5 39.5q-91.5 63.5 -96.5 175.5l198 16q5 -60 44 -91.5t107 -31.5q67 0 104 25t37 76q0 97 -133 97h-55l2 108h45q58 0 92.5 26t34.5 73q0 41 -32.5 65t-94.5 24q-68 0 -106 -34t-39 -97l-198 19q0 68 38.5 123.5t115.5 88t188 32.5q157 0 243 -55t86 -155 q0 -72 -50 -110.5t-122 -46.5q89 -10 139.5 -53.5t50.5 -118.5q0 -67 -42 -116.5t-120.5 -76t-185.5 -26.5q-159 0 -250.5 63.5z" glyph-name="three.tf.case"/>
<glyph d="M453 154h-427v112l401 444h211v-427h136v-129h-136v-154h-185v154zM453 283v228q0 44 4 72h-4q-7 -17 -17.5 -34t-32.5 -46l-137 -159q-17 -23 -30.5 -35t-34.5 -26h252z" glyph-name="four.tf.case"/>
<glyph d="M231.5 2.5q-71.5 26.5 -114 75t-51.5 112.5l190 19q8 -45 47.5 -71.5t96.5 -26.5q66 0 101 34t35 96q0 55 -34 88.5t-98 33.5q-46 0 -82.5 -20.5t-54.5 -56.5l-173 15l43 409h544v-136h-392l-19 -174q30 35 82 57t121 22q83 0 142.5 -29.5t91 -83t31.5 -124.5 q0 -78 -41.5 -138.5t-119 -94t-182.5 -33.5q-92 0 -163.5 26.5z" glyph-name="five.tf.case"/>
<glyph d="M673.5 421.5q77.5 -64.5 77.5 -184.5q0 -78 -41.5 -137t-118.5 -91.5t-179 -32.5q-170 0 -264.5 97.5t-94.5 272.5q0 185 94.5 286.5t267.5 101.5q133 0 221.5 -50.5t112.5 -142.5l-200 -26q-29 85 -141 85q-74 0 -114.5 -50t-44.5 -147q73 83 206 83q141 0 218.5 -64.5z M517.5 145q37.5 35 37.5 92q0 60 -36 91.5t-99 31.5q-59 0 -100 -30.5t-61 -86.5q15 -66 55 -99.5t103 -33.5t100.5 35z" glyph-name="six.tf.case"/>
<glyph d="M232 18q0 160 79.5 299.5t230.5 245.5h-479v147h675v-138q-136 -99 -214 -231.5t-78 -300.5v-40h-214v18z" glyph-name="seven.tf.case"/>
<glyph d="M723 315.5q40 -44.5 40 -118.5q0 -104 -94.5 -162.5t-263.5 -58.5q-173 0 -269 54.5t-96 151.5q0 65 44 109t127 61q-74 25 -111.5 67.5t-37.5 110.5q0 62 44 108t121.5 71t174.5 25q101 0 177.5 -24t119 -68t42.5 -103q0 -57 -36.5 -96t-103.5 -55q82 -28 122 -72.5z M299 592q-36 -23 -36 -64q0 -38 31 -60.5t91 -32.5l81 -14h1q38 18 56 42t18 57q0 46 -35.5 70.5t-103.5 24.5q-67 0 -103 -23zM519 128.5q41 26.5 41 73.5q0 43 -34.5 66.5t-109.5 37.5l-75 15q-97 -35 -97 -113q0 -51 42 -78.5t119 -27.5q73 0 114 26.5z" glyph-name="eight.tf.case"/>
<glyph d="M660.5 640q94.5 -94 94.5 -270q0 -187 -93.5 -290.5t-264.5 -103.5q-134 0 -224 53.5t-115 147.5l200 27q16 -45 53 -68t93 -23q71 0 110 53t44 156q-37 -35 -90 -54.5t-121 -19.5q-139 0 -218 61.5t-79 175.5q0 76 42 132.5t119 86.5t179 30q176 0 270.5 -94zM494 403 q45 29 58 77q-16 61 -57.5 92.5t-105.5 31.5q-65 0 -104.5 -31t-39.5 -88q0 -52 38 -81.5t99 -29.5q67 0 112 29z" glyph-name="nine.tf.case"/>
<glyph d="M596 690.5q83 -43.5 128.5 -128.5t45.5 -206q0 -122 -46 -207.5t-128.5 -129t-193.5 -43.5t-194 43.5t-129 129t-46 206.5t46 206.5t129 129t194 43.5t194 -43.5zM276 536q-42 -65 -42 -180q0 -53 9 -95l290 266q-42 74 -131 74q-84 0 -126 -65zM528 174.5 q42 65.5 42 181.5q0 49 -8 92l-290 -266q42 -73 130 -73q84 0 126 65.5z" glyph-name="zero.tf.case.zero"/>
<glyph d="M208.5 11q-83.5 35 -130 100.5t-46.5 154.5q0 88 47.5 154.5t131 102.5t190.5 36t191 -36t131.5 -102.5t47.5 -154.5q0 -89 -47.5 -154.5t-131.5 -100.5t-191 -35q-109 0 -192.5 35zM525.5 155.5q48.5 38.5 48.5 110.5q0 71 -49 111.5t-124 40.5q-74 0 -121.5 -40 t-47.5 -112t47 -110.5t122 -38.5q76 0 124.5 38.5z" glyph-name="zero.tosf"/>
<glyph d="M722 130v-130h-623v130h230v227q-30 -28 -81.5 -47t-113.5 -20h-26v142h17q76 0 139 28.5t87 74.5h170v-405h201z" glyph-name="one.tosf"/>
<glyph d="M279.5 190.5q79.5 25.5 133.5 49.5q50 23 71 47.5t21 56.5q0 37 -31 61t-88 24q-64 0 -98.5 -26.5t-34.5 -77.5q0 -14 1 -22l-188 20q-2 14 -2 26q0 62 41 110t115 74t169 26q142 0 224.5 -53.5t82.5 -147.5q0 -38 -21.5 -74.5t-68.5 -63.5q-78 -46 -237 -87h363v-133 h-685v120q153 45 232.5 70.5z" glyph-name="two.tosf"/>
<glyph d="M151.5 -111.5q-91.5 62.5 -96.5 172.5l198 16q4 -58 43 -88.5t108 -30.5q67 0 104 24t37 72q0 90 -134 90h-55l2 109h46q58 0 92.5 22.5t34.5 65.5q0 39 -33 62.5t-94 23.5q-68 0 -106 -32.5t-39 -94.5l-198 19q0 67 38.5 121.5t115.5 86.5t187 32q157 0 243.5 -55 t86.5 -153q0 -65 -50 -101.5t-122 -44.5q89 -10 139.5 -51.5t50.5 -112.5q0 -65 -42.5 -113.5t-121 -75t-185.5 -26.5q-158 0 -249.5 62.5z" glyph-name="three.tosf"/>
<glyph d="M453 -3h-427v112l401 426h211v-409h136v-129h-136v-147h-185v147zM453 126v211q0 42 4 69h-4q-8 -19 -18.5 -35.5t-32.5 -40.5l-133 -144q-20 -22 -34 -34t-34 -26h252z" glyph-name="four.tosf"/>
<glyph d="M231.5 -147.5q-71.5 26.5 -114 74t-51.5 109.5l190 19q8 -43 47.5 -68.5t96.5 -25.5q65 0 100.5 33t35.5 91q0 53 -34 85t-98 32q-46 0 -82.5 -19.5t-54.5 -53.5l-173 15l43 391h544v-136h-392l-19 -158q29 35 81.5 56.5t121.5 21.5q82 0 142 -29t91.5 -81.5t31.5 -121.5 q0 -77 -41.5 -136t-119 -92t-182.5 -33q-92 0 -163.5 26.5z" glyph-name="five.tosf"/>
<glyph d="M673.5 414.5q77.5 -62.5 77.5 -180.5q0 -75 -41.5 -132.5t-118.5 -89.5t-179 -32q-170 0 -264.5 94.5t-94.5 264.5q0 179 95 277.5t270 98.5q129 0 214.5 -48t104.5 -134l-188 -25q-28 73 -131 73q-77 0 -120.5 -47.5t-48.5 -136.5q74 80 206 80q141 0 218.5 -62.5z M517.5 147q37.5 33 37.5 86q0 57 -36 87.5t-99 30.5q-59 0 -100 -28.5t-61 -81.5q15 -63 55 -95t103 -32t100.5 33z" glyph-name="six.tosf"/>
<glyph d="M232 -132q0 152 79.5 285.5t230.5 234.5h-479v147h675v-138q-292 -203 -292 -507v-40h-214v18z" glyph-name="seven.tosf"/>
<glyph d="M724 309q39 -45 39 -117q0 -66 -42.5 -113.5t-123 -73t-192.5 -25.5q-172 0 -268.5 52.5t-96.5 145.5q0 63 44 105.5t126 59.5q-74 25 -111 66.5t-37 107.5q0 59 44.5 104t122 69.5t173.5 24.5q101 0 177.5 -23t119 -66t42.5 -99q0 -55 -35.5 -93t-100.5 -53 q80 -27 119 -72zM300.5 573.5q-37.5 -22.5 -37.5 -58.5q0 -35 30.5 -56t91.5 -33l81 -14h2q38 17 55.5 40.5t17.5 55.5q0 40 -36 64t-102 24q-65 0 -102.5 -22.5zM518.5 131.5q41.5 24.5 41.5 66.5t-34 64t-110 37l-74 14q-98 -34 -98 -109q0 -47 42 -72t119 -25 q72 0 113.5 24.5z" glyph-name="eight.tosf"/>
<glyph d="M660 468q95 -91 95 -260q0 -182 -93.5 -282t-264.5 -100q-134 0 -224 52.5t-115 144.5l200 26q32 -86 146 -86q71 0 110 50t44 146q-36 -34 -89.5 -52.5t-121.5 -18.5q-139 0 -218 60t-79 172q0 73 42.5 127t119 83t178.5 29q175 0 270 -91zM491 237q42 23 62 64 q-12 64 -51.5 96t-112.5 32q-64 0 -104 -29t-40 -79t40 -78.5t104 -28.5q60 0 102 23z" glyph-name="nine.tosf"/>
<glyph d="M592 523q84 -36 131.5 -102.5t47.5 -154.5q0 -89 -47.5 -154.5t-131.5 -100.5t-191 -35q-109 0 -192.5 35t-130 100.5t-46.5 154.5q0 88 47.5 154.5t131 102.5t190.5 36t191 -36zM279.5 378q-47.5 -40 -47.5 -112q0 -35 12 -64l284 173q-23 21 -56 32t-71 11 q-74 0 -121.5 -40zM525.5 155.5q48.5 38.5 48.5 110.5q0 36 -14 66l-285 -173q47 -42 126 -42q76 0 124.5 38.5z" glyph-name="zero.tosf.zero"/>
<glyph d="M184 -125.5q-69 31.5 -108.5 93t-39.5 146.5t39.5 146.5t108.5 93t158 31.5t158 -31.5t108.5 -93t39.5 -146.5t-39.5 -146.5t-108.5 -93t-158 -31.5t-158 31.5zM438.5 -5.5q37.5 38.5 37.5 119.5q0 80 -37.5 118.5t-96.5 38.5t-96.5 -38.5t-37.5 -118.5 q0 -81 37.5 -119.5t96.5 -38.5t96.5 38.5z" glyph-name="zero.subs" horiz-adv-x="684"/>
<glyph d="M182 183q-34 -40 -117 -40h-39v135h22q59 0 100 23t58 66h142v-507h-166v323z" glyph-name="one.subs" horiz-adv-x="437"/>
<glyph d="M38 -36q9 4 43 16q113 44 179 73.5t112 66.5t46 78q0 32 -26.5 52t-73.5 20q-49 0 -78.5 -21.5t-29.5 -63.5q0 -7 2 -17l-170 13q-1 9 -1 25q0 57 36 97.5t99 61t141 20.5q127 0 201.5 -42.5t74.5 -128.5q0 -84 -77.5 -136.5t-221.5 -97.5h309v-120h-565v104z" glyph-name="two.subs" horiz-adv-x="651"/>
<glyph d="M107 -108.5q-76 48.5 -77 135.5l170 13q-1 -44 31 -66t86 -22q53 0 83.5 16t30.5 48q0 56 -104 56h-59v87h58q97 0 97 54q0 29 -28.5 45.5t-78.5 16.5q-115 0 -115 -87l-169 13q0 55 33.5 96.5t97 64.5t150.5 23q132 0 207.5 -40t75.5 -116q0 -51 -36.5 -77t-95.5 -32 q70 -7 106 -38t36 -82q0 -73 -79.5 -115t-210.5 -42q-133 0 -209 48.5z" glyph-name="three.subs" horiz-adv-x="643"/>
<glyph d="M545 -38v-102h-163v102h-362v101l345 304h180v-298h117v-107h-117zM180 69h202v188z" glyph-name="four.subs" horiz-adv-x="680"/>
<glyph d="M119.5 -114q-73.5 43 -83.5 115l162 17q5 -30 36 -48t77 -18q52 0 81.5 21t29.5 58q0 36 -28.5 55.5t-81.5 19.5q-40 0 -69.5 -14.5t-41.5 -38.5l-146 13l32 301h465v-106h-335l-12 -110q22 27 64.5 41.5t99.5 14.5q104 0 164.5 -46.5t60.5 -127.5q0 -58 -35 -100.5 t-99.5 -66t-151.5 -23.5q-115 0 -188.5 43z" glyph-name="five.subs" horiz-adv-x="629"/>
<glyph d="M552 161q63 -46 63 -131q0 -87 -77 -137t-210 -50q-143 0 -217.5 66t-74.5 193q0 136 79.5 209.5t226.5 73.5q104 0 174.5 -36t91.5 -101l-169 -18q-11 26 -38.5 40.5t-66.5 14.5q-124 0 -136 -135q63 57 176 57q115 0 178 -46zM412 -27.5q32 21.5 32 56.5 q0 36 -28.5 56.5t-79.5 20.5q-89 0 -131 -62q24 -93 123 -93q52 0 84 21.5z" glyph-name="six.subs" horiz-adv-x="648"/>
<glyph d="M153 -126q0 112 59.5 207t174.5 165h-368v121h524v-115q-212 -140 -212 -359v-33h-178v14z" glyph-name="seven.subs" horiz-adv-x="568"/>
<glyph d="M588 89.5q31 -34.5 31 -89.5q0 -74 -76.5 -115.5t-214.5 -41.5q-137 0 -215 39t-78 107q0 45 34.5 75.5t97.5 41.5q-60 19 -88 50t-28 79q0 69 74 109.5t201 40.5q85 0 147.5 -17t96.5 -49t34 -74q0 -39 -30 -64.5t-86 -36.5q69 -20 100 -54.5zM250 272.5 q-29 -15.5 -29 -40.5q0 -23 24.5 -37t78.5 -21l60 -9q4 0 5 -1q45 20 45 62q0 29 -28.5 45.5t-78.5 16.5q-48 0 -77 -15.5zM414 -39q32 17 32 46q0 25 -25.5 40t-87.5 26l-63 10q-62 -21 -62 -70q0 -32 31.5 -50.5t88.5 -18.5q54 0 86 17z" glyph-name="eight.subs" horiz-adv-x="654"/>
<glyph d="M535 319q77 -66 77 -192q0 -138 -78.5 -211t-226.5 -73q-105 0 -176 39t-91 108l168 17q9 -27 37 -42.5t69 -15.5q61 0 94.5 31t40.5 98q-57 -43 -174 -43q-116 0 -179 44.5t-63 127.5q0 82 75 130t203 48q147 0 224 -66zM445 185q-12 51 -44 74.5t-84 23.5 q-53 0 -83 -20t-30 -56q0 -32 30 -51t79 -19q89 0 132 48z" glyph-name="nine.subs" horiz-adv-x="648"/>
<glyph d="M155.5 12q-57.5 26 -89.5 73.5t-32 110.5q0 65 32 112.5t89.5 73t133.5 25.5q75 0 132.5 -25.5t90 -73t32.5 -111.5t-32.5 -111.5t-90.5 -73.5t-133 -26t-132.5 26zM385 104q36 32 36 93q0 62 -35.5 93t-96.5 31t-97 -31.5t-36 -93.5q0 -61 36 -92.5t96 -31.5q61 0 97 32 z" glyph-name="zero.dnom" horiz-adv-x="577"/>
<glyph d="M155 251q-16 -12 -43.5 -18.5t-58.5 -6.5h-30v99h17q97 0 131 68h101v-393h-117v251z" glyph-name="one.dnom" horiz-adv-x="351"/>
<glyph d="M29 83q122 37 184.5 59.5t105.5 51.5t43 64q0 29 -27 46t-73 17t-75 -19t-29 -55q0 -11 3 -20l-123 12q-3 12 -3 22q0 44 30 77t81.5 51t115.5 18q104 0 165 -36.5t61 -104.5q0 -66 -65.5 -107t-167.5 -67h242v-92h-468v83z" glyph-name="two.dnom" horiz-adv-x="536"/>
<glyph d="M95.5 23q-61.5 37 -67.5 104l119 11q7 -35 35.5 -51t81.5 -16q110 0 110 47q0 23 -22 32.5t-77 9.5h-60v76h62q44 0 65.5 9.5t21.5 30.5q0 47 -99 47q-55 0 -83 -17t-32 -52l-118 13q5 66 66 103t168 37q101 0 161 -31t60 -88q0 -38 -28.5 -60t-76.5 -26q60 -7 88 -29 t28 -62q0 -58 -64 -91.5t-170 -33.5q-107 0 -168.5 37z" glyph-name="three.dnom" horiz-adv-x="533"/>
<glyph d="M435 82v-82h-116v82h-302v74l282 237h136v-231h89v-80h-89zM142 162h177v152z" glyph-name="four.dnom" horiz-adv-x="540"/>
<glyph d="M105.5 17.5q-60.5 31.5 -73.5 87.5l118 16q7 -25 37 -38t77 -13q51 0 78 17t27 49q0 29 -26 45t-75 16q-40 0 -69 -11.5t-40 -28.5l-108 8l29 228h378v-73h-286l-14 -92q18 22 57.5 35t91.5 13q88 0 136 -36.5t48 -103.5q0 -69 -62 -109.5t-168 -40.5q-95 0 -155.5 31.5z " glyph-name="five.dnom" horiz-adv-x="522"/>
<glyph d="M453 236.5q52 -34.5 52 -103.5q0 -43 -28.5 -76.5t-80 -52t-118.5 -18.5q-116 0 -180 54.5t-64 151.5q0 101 64.5 158t181.5 57q88 0 147.5 -25t74.5 -70l-122 -18q-13 20 -38.5 29.5t-65.5 9.5q-57 0 -88 -25t-38 -81q55 44 155 44q96 0 148 -34.5zM354 87.5 q29 17.5 29 45.5q0 57 -101 57q-46 0 -78.5 -15t-46.5 -38q24 -67 121 -67q47 0 76 17.5z" glyph-name="six.dnom" horiz-adv-x="537"/>
<glyph d="M19 393h430v-83q-86 -51 -137.5 -131t-58.5 -178v-1h-132q7 91 57.5 168.5t145.5 134.5h-305v90z" glyph-name="seven.dnom" horiz-adv-x="468"/>
<glyph d="M486 174.5q23 -25.5 23 -63.5q0 -59 -62.5 -92t-172.5 -33q-115 0 -178.5 30.5t-63.5 85.5q0 36 26.5 59.5t75.5 33.5q-47 16 -67.5 39t-20.5 57q0 53 61 84.5t165 31.5q102 0 162.5 -30t60.5 -80q0 -29 -22.5 -50t-62.5 -31q53 -16 76 -41.5zM194 323q-27 -11 -27 -31 q0 -18 21 -29.5t72 -18.5l56 -8l7 -1q27 12 39 24.5t12 27.5q0 23 -26.5 35t-75.5 12q-51 0 -78 -11zM356 78q30 13 30 36q0 14 -8 22.5t-31 15.5t-70 14l-55 9q-67 -19 -67 -59q0 -24 30.5 -37.5t88.5 -13.5q52 0 82 13z" glyph-name="eight.dnom" horiz-adv-x="541"/>
<glyph d="M440 353q64 -54 64 -152q0 -101 -65.5 -158t-180.5 -57q-88 0 -148 30t-74 82l120 17q22 -46 106 -46q57 0 89.5 28t36.5 83q-51 -45 -156 -45q-96 0 -147.5 34t-51.5 99q0 63 61.5 101t163.5 38q118 0 182 -54zM332 227q32 12 46 35q-27 65 -118 65q-50 0 -78 -15.5 t-28 -43.5q0 -26 26 -39.5t75 -13.5q45 0 77 12z" glyph-name="nine.dnom" horiz-adv-x="538"/>
<glyph d="M155.5 329q-57.5 26 -89.5 73.5t-32 110.5q0 65 32 112.5t89.5 73t133.5 25.5q75 0 132.5 -25.5t90 -73t32.5 -111.5t-32.5 -111.5t-90.5 -73.5t-133 -26t-132.5 26zM385 421q36 32 36 93q0 62 -35.5 93t-96.5 31t-97 -31.5t-36 -93.5q0 -61 36 -92.5t96 -31.5 q61 0 97 32z" glyph-name="zero.numr" horiz-adv-x="577"/>
<glyph d="M155 568q-16 -12 -43.5 -18.5t-58.5 -6.5h-30v99h17q97 0 131 68h101v-393h-117v251z" glyph-name="one.numr" horiz-adv-x="351"/>
<glyph d="M29 400q122 37 184.5 59.5t105.5 51.5t43 64q0 29 -27 46t-73 17t-75 -19t-29 -55q0 -11 3 -20l-123 12q-3 12 -3 22q0 44 30 77t81.5 51t115.5 18q104 0 165 -36.5t61 -104.5q0 -66 -65.5 -107t-167.5 -67h242v-92h-468v83z" glyph-name="two.numr" horiz-adv-x="536"/>
<glyph d="M95.5 340q-61.5 37 -67.5 104l119 11q7 -35 35.5 -51t81.5 -16q110 0 110 47q0 23 -22 32.5t-77 9.5h-60v76h62q44 0 65.5 9.5t21.5 30.5q0 47 -99 47q-55 0 -83 -17t-32 -52l-118 13q5 66 66 103t168 37q101 0 161 -31t60 -88q0 -38 -28.5 -60t-76.5 -26q60 -7 88 -29 t28 -62q0 -58 -64 -91.5t-170 -33.5q-107 0 -168.5 37z" glyph-name="three.numr" horiz-adv-x="533"/>
<glyph d="M435 399v-82h-116v82h-302v74l282 237h136v-231h89v-80h-89zM142 479h177v152z" glyph-name="four.numr" horiz-adv-x="540"/>
<glyph d="M105.5 334.5q-60.5 31.5 -73.5 87.5l118 16q7 -25 37 -38t77 -13q51 0 78 17t27 49q0 29 -26 45t-75 16q-40 0 -69 -11.5t-40 -28.5l-108 8l29 228h378v-73h-286l-14 -92q18 22 57.5 35t91.5 13q88 0 136 -36.5t48 -103.5q0 -69 -62 -109.5t-168 -40.5q-95 0 -155.5 31.5 z" glyph-name="five.numr" horiz-adv-x="522"/>
<glyph d="M453 553.5q52 -34.5 52 -103.5q0 -43 -28.5 -76.5t-80 -52t-118.5 -18.5q-116 0 -180 54.5t-64 151.5q0 101 64.5 158t181.5 57q88 0 147.5 -25t74.5 -70l-122 -18q-13 20 -38.5 29.5t-65.5 9.5q-57 0 -88 -25t-38 -81q55 44 155 44q96 0 148 -34.5zM354 404.5 q29 17.5 29 45.5q0 57 -101 57q-46 0 -78.5 -15t-46.5 -38q24 -67 121 -67q47 0 76 17.5z" glyph-name="six.numr" horiz-adv-x="537"/>
<glyph d="M19 710h430v-83q-86 -51 -137.5 -131t-58.5 -178v-1h-132q7 91 57.5 168.5t145.5 134.5h-305v90z" glyph-name="seven.numr" horiz-adv-x="468"/>
<glyph d="M486 491.5q23 -25.5 23 -63.5q0 -59 -62.5 -92t-172.5 -33q-115 0 -178.5 30.5t-63.5 85.5q0 36 26.5 59.5t75.5 33.5q-47 16 -67.5 39t-20.5 57q0 53 61 84.5t165 31.5q102 0 162.5 -30t60.5 -80q0 -29 -22.5 -50t-62.5 -31q53 -16 76 -41.5zM194 640q-27 -11 -27 -31 q0 -18 21 -29.5t72 -18.5l56 -8l7 -1q27 12 39 24.5t12 27.5q0 23 -26.5 35t-75.5 12q-51 0 -78 -11zM356 395q30 13 30 36q0 14 -8 22.5t-31 15.5t-70 14l-55 9q-67 -19 -67 -59q0 -24 30.5 -37.5t88.5 -13.5q52 0 82 13z" glyph-name="eight.numr" horiz-adv-x="541"/>
<glyph d="M440 670q64 -54 64 -152q0 -101 -65.5 -158t-180.5 -57q-88 0 -148 30t-74 82l120 17q22 -46 106 -46q57 0 89.5 28t36.5 83q-51 -45 -156 -45q-96 0 -147.5 34t-51.5 99q0 63 61.5 101t163.5 38q118 0 182 -54zM332 544q32 12 46 35q-27 65 -118 65q-50 0 -78 -15.5 t-28 -43.5q0 -26 26 -39.5t75 -13.5q45 0 77 12z" glyph-name="nine.numr" horiz-adv-x="538"/>
<glyph d="M184 324.5q-69 31.5 -108.5 93t-39.5 146.5t39.5 146.5t108.5 93t158 31.5t158 -31.5t108.5 -93t39.5 -146.5t-39.5 -146.5t-108.5 -93t-158 -31.5t-158 31.5zM438.5 444.5q37.5 38.5 37.5 119.5q0 80 -37.5 118.5t-96.5 38.5t-96.5 -38.5t-37.5 -118.5 q0 -81 37.5 -119.5t96.5 -38.5t96.5 38.5z" glyph-name="zero.sups" horiz-adv-x="684"/>
<glyph d="M182 633q-34 -40 -117 -40h-39v135h22q59 0 100 23t58 66h142v-507h-166v323z" glyph-name="one.sups" horiz-adv-x="437"/>
<glyph d="M38 414q9 4 43 16q113 44 179 73.5t112 66.5t46 78q0 32 -26.5 52t-73.5 20q-49 0 -78.5 -21.5t-29.5 -63.5q0 -7 2 -17l-170 13q-1 9 -1 25q0 57 36 97.5t99 61t141 20.5q127 0 201.5 -42.5t74.5 -128.5q0 -84 -77.5 -136.5t-221.5 -97.5h309v-120h-565v104z" glyph-name="two.sups" horiz-adv-x="651"/>
<glyph d="M107 341.5q-76 48.5 -77 135.5l170 13q-1 -44 31 -66t86 -22q53 0 83.5 16t30.5 48q0 56 -104 56h-59v87h58q97 0 97 54q0 29 -28.5 45.5t-78.5 16.5q-115 0 -115 -87l-169 13q0 55 33.5 96.5t97 64.5t150.5 23q132 0 207.5 -40t75.5 -116q0 -51 -36.5 -77t-95.5 -32 q70 -7 106 -38t36 -82q0 -73 -79.5 -115t-210.5 -42q-133 0 -209 48.5z" glyph-name="three.sups" horiz-adv-x="643"/>
<glyph d="M545 412v-102h-163v102h-362v101l345 304h180v-298h117v-107h-117zM180 519h202v188z" glyph-name="four.sups" horiz-adv-x="680"/>
<glyph d="M119.5 336q-73.5 43 -83.5 115l162 17q5 -30 36 -48t77 -18q52 0 81.5 21t29.5 58q0 36 -28.5 55.5t-81.5 19.5q-40 0 -69.5 -14.5t-41.5 -38.5l-146 13l32 301h465v-106h-335l-12 -110q22 27 64.5 41.5t99.5 14.5q104 0 164.5 -46.5t60.5 -127.5q0 -58 -35 -100.5 t-99.5 -66t-151.5 -23.5q-115 0 -188.5 43z" glyph-name="five.sups" horiz-adv-x="629"/>
<glyph d="M552 611q63 -46 63 -131q0 -87 -77 -137t-210 -50q-143 0 -217.5 66t-74.5 193q0 136 79.5 209.5t226.5 73.5q104 0 174.5 -36t91.5 -101l-169 -18q-11 26 -38.5 40.5t-66.5 14.5q-124 0 -136 -135q63 57 176 57q115 0 178 -46zM412 422.5q32 21.5 32 56.5 q0 36 -28.5 56.5t-79.5 20.5q-89 0 -131 -62q24 -93 123 -93q52 0 84 21.5z" glyph-name="six.sups" horiz-adv-x="648"/>
<glyph d="M153 324q0 112 59.5 207t174.5 165h-368v121h524v-115q-212 -140 -212 -359v-33h-178v14z" glyph-name="seven.sups" horiz-adv-x="568"/>
<glyph d="M588 539.5q31 -34.5 31 -89.5q0 -74 -76.5 -115.5t-214.5 -41.5q-137 0 -215 39t-78 107q0 45 34.5 75.5t97.5 41.5q-60 19 -88 50t-28 79q0 69 74 109.5t201 40.5q85 0 147.5 -17t96.5 -49t34 -74q0 -39 -30 -64.5t-86 -36.5q69 -20 100 -54.5zM250 722.5 q-29 -15.5 -29 -40.5q0 -23 24.5 -37t78.5 -21l60 -9q4 0 5 -1q45 20 45 62q0 29 -28.5 45.5t-78.5 16.5q-48 0 -77 -15.5zM414 411q32 17 32 46q0 25 -25.5 40t-87.5 26l-63 10q-62 -21 -62 -70q0 -32 31.5 -50.5t88.5 -18.5q54 0 86 17z" glyph-name="eight.sups" horiz-adv-x="654"/>
<glyph d="M535 769q77 -66 77 -192q0 -138 -78.5 -211t-226.5 -73q-105 0 -176 39t-91 108l168 17q9 -27 37 -42.5t69 -15.5q61 0 94.5 31t40.5 98q-57 -43 -174 -43q-116 0 -179 44.5t-63 127.5q0 82 75 130t203 48q147 0 224 -66zM445 635q-12 51 -44 74.5t-84 23.5 q-53 0 -83 -20t-30 -56q0 -32 30 -51t79 -19q89 0 132 48z" glyph-name="nine.sups" horiz-adv-x="648"/>
<glyph d="M275 386h-209v164h209v-164zM275 0h-209v164h209v-164z" glyph-name="colon.case" horiz-adv-x="341"/>
<glyph d="M275 386h-209v164h209v-164zM92 -90q46 9 66.5 30t20.5 55v5h-101v180h197v-167q0 -71 -39 -118.5t-124 -58.5z" glyph-name="semicolon.case" horiz-adv-x="341"/>
<glyph d="M95 569v156h219v-156h-219zM287 488l27 -488h-219l27 488h165z" glyph-name="exclamdown.case" horiz-adv-x="409"/>
<glyph d="M522 555h-215v156h215v-156zM507 479q0 -51 -22 -85.5t-77 -55.5l-95 -38q-44 -17 -65 -39t-21 -58q0 -42 43.5 -70t124.5 -28q85 0 135.5 32t50.5 91q0 27 -5 46l198 -17q6 -18 6 -46q0 -71 -47 -124t-134 -81.5t-204 -28.5q-111 0 -193.5 25.5t-127.5 73.5t-45 114 q0 69 36.5 111t104.5 70l91 38q36 15 49.5 33.5t13.5 45.5v22h183v-31z" glyph-name="questiondown.case" horiz-adv-x="802"/>
<glyph d="M275 285h-209v164h209v-164z" glyph-name="periodcentered.case" horiz-adv-x="341"/>
<glyph d="M102.5 276.5q-36.5 35.5 -36.5 91.5q0 59 36.5 95t93.5 36t94 -36t37 -95q0 -56 -37 -91.5t-94 -35.5t-93.5 35.5z" glyph-name="bullet.case" horiz-adv-x="393"/>
<glyph d="M42 -87l465 877h183l-465 -877h-183z" glyph-name="slash.case" horiz-adv-x="732"/>
<glyph d="M42 790h183l465 -877h-183z" glyph-name="backslash.case" horiz-adv-x="732"/>
<glyph d="M116 617h-97l79 -57l-30 -93l79 57l79 -57l-31 93l79 57h-97l-30 93z" glyph-name="asterisk.ss04" horiz-adv-x="292"/>
<glyph d="M305 0h-209v164h209v-164z" glyph-name="period.tf" horiz-adv-x="402"/>
<glyph d="M116 -90q46 9 67 30t21 55v5h-102v180h197v-167q0 -71 -38.5 -118.5t-124.5 -58.5z" glyph-name="comma.tf" horiz-adv-x="402"/>
<glyph d="M305 336h-209v164h209v-164zM305 0h-209v164h209v-164z" glyph-name="colon.tf" horiz-adv-x="402"/>
<glyph d="M305 336h-209v164h209v-164zM123 -90q46 9 66.5 30t20.5 55v5h-101v180h197v-167q0 -71 -39 -118.5t-124 -58.5z" glyph-name="semicolon.tf" horiz-adv-x="402"/>
<glyph d="M77 -117l466 877h183l-465 -877h-184z" glyph-name="slash.tf"/>
<glyph d="M117.5 110.5q-58.5 124.5 -58.5 248.5t59.5 249.5t162.5 213.5l140 -61q-181 -175 -181 -405q0 -223 183 -403l-145 -62q-102 95 -160.5 219.5z" glyph-name="parenleft.case" horiz-adv-x="426"/>
<glyph d="M3 -47q183 179 183 403q0 230 -181 405l140 61q103 -88 162.5 -213.5t59.5 -249.5t-58.5 -249t-160.5 -219z" glyph-name="parenright.case" horiz-adv-x="426"/>
<glyph d="M160 -50.5q-47 36.5 -47 120.5v147q0 31 -6 49.5t-27 30t-65 12.5v107q44 1 65 10.5t26.5 26.5t5.5 50v135q0 78 50 118.5t146 40.5h111v-120h-55q-41 0 -60 -18t-19 -61v-93q0 -56 -22 -92t-80 -50q59 -16 80.5 -54t21.5 -94v-111q0 -41 19 -56t60 -15h55v-120h-108 q-104 0 -151 36.5z" glyph-name="braceleft.case" horiz-adv-x="430"/>
<glyph d="M11 -87v120h55q41 0 60 15t19 56v111q0 56 21.5 94t80.5 54q-58 14 -80 50t-22 92v93q0 43 -19 61t-60 18h-55v120h111q96 0 146 -40.5t50 -118.5v-135q0 -33 5.5 -50t26.5 -26.5t65 -10.5v-107q-44 -1 -65 -12.5t-27 -30t-6 -49.5v-147q0 -84 -47 -120.5t-151 -36.5 h-108z" glyph-name="braceright.case" horiz-adv-x="430"/>
<glyph d="M92 798h333v-120h-161v-644h161v-120h-333v884z" glyph-name="bracketleft.case" horiz-adv-x="436"/>
<glyph d="M11 -86v120h161v644h-161v120h333v-884h-333z" glyph-name="bracketright.case" horiz-adv-x="436"/>
<glyph d="M278 75.5q-58 124.5 -58 248.5t59.5 249.5t162.5 213.5l140 -61q-182 -173 -182 -405q0 -221 183 -403l-144 -61q-103 94 -161 218.5z" glyph-name="parenleft.tf"/>
<glyph d="M220 -82q183 182 183 403q0 231 -181 405l140 61q102 -88 161.5 -213.5t59.5 -249.5t-58 -248.5t-160 -218.5z" glyph-name="parenright.tf"/>
<glyph d="M568 417v-136h-522v136h522z" glyph-name="hyphen.case" horiz-adv-x="614"/>
<glyph d="M744 428v-161h-698v161h698z" glyph-name="endash.case" horiz-adv-x="790"/>
<glyph d="M1023 432v-168h-977v168h977z" glyph-name="emdash.case" horiz-adv-x="1069"/>
<glyph d="M675 -25v-103h-675v103h675z" glyph-name="underscore.case" horiz-adv-x="675"/>
<glyph d="M712 346v-136h-622v136h622z" glyph-name="hyphen.tf"/>
<glyph d="M803 -79v-103h-803v103h803z" glyph-name="underscore.tf"/>
<glyph d="M24 346l247 206h182l-244 -205l241 -210h-184zM343 346l247 206h182l-244 -205l241 -210h-184z" glyph-name="guillemotleft.case" horiz-adv-x="789"/>
<glyph d="M20 137l241 211l-244 204h182l246 -205l-241 -210h-184zM339 137l241 211l-244 204h182l247 -205l-242 -210h-184z" glyph-name="guillemotright.case" horiz-adv-x="789"/>
<glyph d="M24 347l247 205h182l-244 -204l241 -211h-184z" glyph-name="guilsinglleft.case" horiz-adv-x="470"/>
<glyph d="M20 137l241 211l-244 204h182l246 -205l-241 -210h-184z" glyph-name="guilsinglright.case" horiz-adv-x="470"/>
<glyph d="M114 -82.5q-42 91.5 -42 180.5t43.5 181.5t114.5 156.5l120 -46q-65 -65 -96.5 -139.5t-31.5 -154.5q0 -79 32.5 -153.5t97.5 -141.5l-125 -47q-71 72 -113 163.5z" glyph-name="parenleft.subs" horiz-adv-x="348"/>
<glyph d="M-4 -199q65 67 97.5 141.5t32.5 153.5q0 80 -31.5 154.5t-96.5 139.5l120 46q71 -64 114.5 -156t43.5 -182q0 -89 -42 -180.5t-113 -163.5z" glyph-name="parenright.subs" horiz-adv-x="348"/>
<glyph d="M114 367.5q-42 91.5 -42 180.5q0 90 43.5 182t114.5 156l120 -46q-65 -65 -96.5 -139.5t-31.5 -154.5q0 -79 32.5 -153.5t97.5 -141.5l-125 -47q-71 72 -113 163.5z" glyph-name="parenleft.sups" horiz-adv-x="348"/>
<glyph d="M-4 251q65 67 97.5 141.5t32.5 153.5q0 80 -31.5 154.5t-96.5 139.5l120 46q71 -64 114.5 -156t43.5 -182q0 -89 -42 -180.5t-113 -163.5z" glyph-name="parenright.sups" horiz-adv-x="348"/>
<glyph d="M906 201q0 -98 -71 -149.5t-197 -51.5h-124v-93h-72v93h-350v710h350v93h72v-93h117q125 0 191 -45.5t66 -136.5q0 -61 -38 -103.5t-105 -57.5q161 -24 161 -166zM281 410h161v180h-161v-180zM514 590v-180h75q49 0 74.5 24t25.5 69q0 43 -25.5 65t-74.5 22h-75zM442 120 v184h-161v-184h161zM679.5 143.5q27.5 23.5 27.5 70.5q0 44 -28.5 67t-80.5 23h-84v-184h86q52 0 79.5 23.5z" glyph-name="uni0E3F.case" horiz-adv-x="948"/>
<glyph d="M866 313.5q40 -42.5 40 -113.5q0 -95 -70.5 -147.5t-197.5 -52.5h-2v-87h-79v87h-175v-87h-78v87h-212v710h212v85h78v-85h175v85h79v-85q122 -1 187 -47t65 -134q0 -61 -37 -103t-103 -57q78 -13 118 -55.5zM291 582v-164h289q48 0 73.5 21.5t25.5 61.5t-25.5 60.5 t-74.5 20.5h-288zM670.5 150q27.5 22 27.5 64q0 41 -29 63t-82 22h-296v-171h298q54 0 81.5 22z" glyph-name="uni20BF.case" horiz-adv-x="948"/>
<glyph d="M602 207l64 -56l-71 -68l-77 66q-70 -32 -166 -32q-102 0 -180 38l-76 -67l-72 68l69 61q-47 58 -47 136q0 80 48 137l-70 61l72 68l78 -67q74 37 178 37q99 0 172 -34l77 65l72 -68l-67 -58q51 -59 51 -141q0 -85 -55 -146zM470.5 264q43.5 33 43.5 89q0 54 -43.5 86.5 t-118.5 32.5t-119 -32.5t-44 -86.5q0 -56 44 -89t119 -33t118.5 33z" glyph-name="currency.case" horiz-adv-x="696"/>
<glyph d="M803 94.5q-44 -52.5 -127.5 -82t-197.5 -32.5v-85h-73v85q-144 5 -250.5 49t-154.5 120l143 89q76 -111 262 -125v184l-102 10q-126 14 -188 63.5t-62 139.5q0 101 92.5 160.5t259.5 64.5v78h73v-79q245 -11 361 -142l-127 -98q-29 47 -88.5 75t-145.5 35v-175l109 -10 q135 -13 197.5 -61t62.5 -141q0 -70 -44 -122.5zM405 436v170q-164 -4 -164 -83q0 -38 29.5 -57t97.5 -26zM658 202q0 38 -28 56.5t-90 25.5l-62 6v-179q180 5 180 91z" glyph-name="dollar.case" horiz-adv-x="879"/>
<glyph d="M707.5 152.5q57.5 30.5 89.5 88.5l181 -67q-54 -94 -161.5 -146t-254.5 -52q-123 0 -215.5 36.5t-149 101t-78.5 147.5h-114v65h103q-2 24 -2 37q0 18 1 27h-102v65h113q22 81 82 144t155 99t217 36q146 0 254.5 -51t157.5 -139l-191 -61q-60 105 -224 105 q-98 0 -158 -35.5t-85 -97.5h362v-65h-378q-1 -9 -1 -27q0 -13 2 -37h377v-65h-361q26 -65 86.5 -102t155.5 -37q81 0 138.5 30.5z" glyph-name="Euro.case" horiz-adv-x="1010"/>
<glyph d="M833 262q-23 -85 -63.5 -142.5t-111.5 -88.5t-180 -31h-340v274l-115 -23v69l115 23v73l-115 -23v69l115 23v225h200v-184l317 64v-69l-317 -64v-73l317 64v-69l-317 -64v-172h107q83 0 132 39t66 103z" glyph-name="uni20BA.case" horiz-adv-x="839"/>
<glyph d="M329 246v-71h283v-71h-283v-104h-199v104h-124v71h124v71h-123v128h123v336h471q135 0 212.5 -60.5t77.5 -166.5q0 -72 -35 -125.5t-100 -82.5t-153 -29h-274zM329 374h227q59 0 91.5 26.5t32.5 74.5q0 47 -32.5 73.5t-90.5 26.5h-228v-201z" glyph-name="uni20BD.case" horiz-adv-x="907"/>
<glyph d="M619 599q27 -36 33 -88h204v-70h-205q-12 -83 -81.5 -135.5t-208.5 -55.5h-23l297 -250h-246l-310 271v78h206q72 0 109.5 23.5t46.5 68.5h-362v70h362q-20 88 -142 88h-220v111h777v-111h-237z" glyph-name="uni20B9.case" horiz-adv-x="911"/>
<glyph d="M846 193q-17 -100 -88 -157t-179 -57q-35 0 -65 4t-69 11q-49 9 -83.5 13t-78.5 4q-110 0 -238 -19l-32 93q146 40 146 169q0 35 -6 65h-109v92h87q-9 41 -9 76q0 76 41 132t117.5 85.5t181.5 29.5q148 0 235 -49.5t110 -146.5l-186 -34q-12 48 -52 74t-104 26 q-152 0 -152 -117q0 -38 10 -76h248v-92h-226q3 -21 3 -45q0 -49 -24.5 -85t-71.5 -55q55 11 92 11q43 0 100 -11q62 -10 98 -10q49 0 79 23.5t38 67.5z" glyph-name="sterling.case" horiz-adv-x="853"/>
<glyph d="M726.5 313.5q41.5 -42.5 41.5 -112.5q0 -99 -70.5 -150t-197.5 -51h-72v-90h-73v90h-296v710h296v89h73v-89h69q122 0 187.5 -45.5t65.5 -136.5q0 -62 -38 -104t-106 -57q79 -11 120.5 -53.5zM241 590v-180h114v180h-114zM428 590v-180h31q100 0 100 95q0 85 -97 85h-34z M355 119v185h-114v-185h114zM577 215q0 43 -29 66t-80 23h-40v-185h37q112 0 112 96z" glyph-name="uni0E3F.tf.case"/>
<glyph d="M697 53q-67 -51 -189 -53v-90h-80v90h-109v-90h-80v90h-184v710h184v91h80v-91h109v91h80v-91q115 -3 176.5 -48.5t61.5 -133.5q0 -62 -38 -104t-105 -57q79 -11 120 -53.5t41 -112.5q0 -97 -67 -148zM239 589v-179h216q99 0 99 95q0 84 -96 84h-219zM543.5 144 q28.5 24 28.5 71q0 43 -29 66t-79 23h-225v-184h222q54 0 82.5 24z" glyph-name="uni20BF.tf.case"/>
<glyph d="M656 207l64 -56l-72 -68l-76 66q-72 -32 -166 -32q-104 0 -180 38l-77 -67l-72 68l70 61q-47 58 -47 136q0 80 48 137l-71 61l72 68l79 -67q74 37 178 37q98 0 172 -34l76 65l72 -68l-66 -58q51 -59 51 -141q0 -85 -55 -146zM524.5 264q43.5 33 43.5 89q0 54 -43.5 86.5 t-118.5 32.5t-119 -32.5t-44 -86.5q0 -56 44 -89t119 -33t118.5 33z" glyph-name="currency.tf.case"/>
<glyph d="M699.5 45q-84.5 -60 -240.5 -65v-85h-71v85q-132 6 -228 50.5t-141 122.5l147 86q34 -56 88.5 -87t133.5 -38v185l-86 13q-118 19 -174 70.5t-56 140.5q0 97 81 151.5t235 58.5v80h71v-81q214 -10 315 -135l-130 -94q-47 84 -185 98v-171l96 -14q122 -17 175.5 -65.5 t53.5 -140.5q0 -105 -84.5 -165zM388 440v164q-69 -2 -101.5 -21t-32.5 -57q0 -37 23.5 -54.5t86.5 -27.5zM572 133.5q35 20.5 35 65.5q0 37 -21.5 55t-74.5 26l-52 8v-177q78 2 113 22.5z" glyph-name="dollar.tf.case"/>
<glyph d="M604 236l173 -66q-39 -92 -125 -143t-202 -51q-146 0 -238 76.5t-117 209.5h-70v64h62q-1 12 -1 36v6q0 15 1 22h-62v64h69q17 84 65.5 147.5t125 98t174.5 34.5q116 0 202 -49t122 -138l-182 -59q-21 52 -55.5 78t-88.5 26q-65 0 -105 -36t-55 -102h213v-64h-221v-21v-8 q0 -24 1 -35h220v-64h-211q15 -68 55 -105.5t103 -37.5q102 0 147 117z" glyph-name="Euro.tf.case"/>
<glyph d="M773 263q-28 -129 -106 -196t-231 -67h-313v271l-91 -20v70l91 20v72l-91 -20v70l91 20v227h200v-183l278 62v-70l-278 -62v-72l278 62v-70l-278 -62v-172h87q76 0 121 39.5t58 103.5z" glyph-name="uni20BA.tf.case"/>
<glyph d="M326 248v-75h186v-69h-186v-104h-199v104h-95v69h95v75h-95v121h95v341h365q90 0 155 -27.5t99.5 -78.5t34.5 -120q0 -71 -34.5 -124.5t-99.5 -82.5t-152 -29h-169zM326 369h134q58 0 90 28.5t32 79.5q0 50 -31.5 77t-89.5 27h-135v-212z" glyph-name="uni20BD.tf.case"/>
<glyph d="M573 599q26 -36 33 -89h156v-71h-157q-11 -82 -73.5 -136t-195.5 -56h-15l304 -247h-247l-315 267v79h184q73 0 107.5 24.5t42.5 68.5h-334v71h334q-17 89 -137 89h-197v111h699v-111h-189z" glyph-name="uni20B9.tf.case"/>
<glyph d="M786 193q-15 -100 -82.5 -157t-168.5 -57q-30 0 -55 4t-59 11q-42 9 -71 13t-67 4q-108 0 -235 -19l-33 93q145 40 145 170q0 25 -6 65h-107v91h84q-9 43 -9 77q0 76 38 131.5t108.5 85t166.5 29.5q136 0 216 -49.5t101 -146.5l-186 -33q-9 49 -42 75.5t-86 26.5 q-125 0 -125 -119q0 -39 10 -77h190v-91h-169q4 -19 4 -46q0 -49 -24.5 -84.5t-71.5 -55.5q44 8 90 8q31 0 79 -10l30 -5t47 -4q42 0 69 24t33 68z" glyph-name="sterling.tf.case"/>
<glyph d="M735 390l-10 -68h64v-61h-73l-40 -261h-205l-29 261h-79l-30 -261h-204l-40 261h-74v61h65l-10 68h-55v62h45l-39 258h149l24 -258h84l38 258h173l37 -258h85l24 258h149l-39 -258h44v-62h-54zM385 452h35l-9 82q-6 56 -7 82h-4q-2 -36 -4 -57l-2 -25zM206 322h53l10 68 h-70zM435 322l-8 68h-49l-8 -68h65zM606 390h-71l10 -68h54zM251 261h-40l8 -86q1 -14 5 -55q0 -7 2 -27h2q5 35 10 82zM594 261h-40l12 -86q7 -50 10 -82h3q1 30 5 59l2 23z" glyph-name="uni20A9.tf.case"/>
<glyph d="M519 306h215v-69h-233v-61h233v-70h-233v-106h-199v106h-233v70h233v61h-233v69h215l-291 404h218l156 -247q19 -29 34 -65h2q13 34 33 65l156 247h218z" glyph-name="yen.tf.case"/>
<glyph d="M1250 389l-23 -66h142v-63h-164l-89 -260h-220l-89 260h-214l-89 -260h-221l-89 260h-164v63h142l-23 66h-119v63h98l-89 258h187l73 -258h208l90 258h205l91 -258h208l73 258h186l-89 -258h98v-63h-119zM659 452h81l-4 13q-14 43 -21.5 71.5t-12.5 64.5h-5 q-4 -34 -11.5 -62.5t-22.5 -73.5zM336 323h125l24 66h-168zM785 323l-23 66h-125l-23 -66h171zM1083 389h-168l23 -66h126zM439 260h-85l4 -15q14 -50 20.5 -79t10.5 -59h5q4 26 12 53.5t27 81.5zM1046 260h-85l6 -18q19 -54 27 -81.5t12 -53.5h4q9 58 32 138z" glyph-name="uni20A9.case" horiz-adv-x="1399"/>
<glyph d="M586 310h264v-72h-289v-60h289v-72h-289v-106h-199v106h-282v72h282v60h-282v72h257l-346 400h225l180 -217q31 -38 67 -92h3q37 55 68 92l184 217h214z" glyph-name="yen.case" horiz-adv-x="923"/>
<glyph d="M726.5 307q41.5 -42 41.5 -111q0 -97 -70.5 -146.5t-197.5 -49.5h-72v-107h-73v107h-296v695h296v89h73v-89h69q123 0 188 -44t65 -134q0 -60 -38 -101.5t-106 -55.5q79 -11 120.5 -53zM241 576v-174h114v174h-114zM428 576v-174h31q100 0 100 92q0 82 -97 82h-34z M355 119v178h-114v-178h114zM548.5 142q28.5 23 28.5 69q0 41 -29 63.5t-80 22.5h-40v-178h37q55 0 83.5 23z" glyph-name="uni0E3F.tf"/>
<glyph d="M697 52q-67 -50 -189 -52v-107h-80v107h-109v-107h-80v107h-184v695h184v90h80v-90h109v90h80v-90q116 -3 177 -47t61 -131q0 -60 -38 -101.5t-105 -55.5q79 -11 120 -53t41 -111q0 -94 -67 -144zM239 575v-173h216q99 0 99 92q0 81 -96 81h-219zM543.5 143 q28.5 23 28.5 68q0 41 -29 63.5t-79 22.5h-225v-177h222q54 0 82.5 23z" glyph-name="uni20BF.tf"/>
<glyph d="M656 157l64 -56l-72 -68l-76 66q-72 -32 -166 -32q-104 0 -180 38l-77 -67l-72 68l70 61q-47 58 -47 136q0 80 48 137l-71 61l72 68l79 -67q74 37 178 37q98 0 172 -34l76 65l72 -68l-66 -58q51 -59 51 -141q0 -85 -55 -146zM524.5 214q43.5 33 43.5 89q0 54 -43.5 86.5 t-118.5 32.5t-119 -32.5t-44 -86.5q0 -56 44 -89t119 -33t118.5 33z" glyph-name="currency.tf"/>
<glyph d="M773 258q-28 -128 -105.5 -193t-231.5 -65h-313v265l-91 -20v69l91 20v70l-91 -20v68l91 20v223h199v-180l279 60v-68l-279 -60v-70l279 60v-68l-279 -61v-165h88q75 0 120.5 38.5t58.5 99.5z" glyph-name="uni20BA.tf"/>
<glyph d="M326 239v-71h186v-68h-186v-100h-199v100h-95v68h95v71h-95v122h95v334h365q136 0 212.5 -60t76.5 -164q0 -69 -34.5 -121.5t-99 -81.5t-152.5 -29h-169zM326 361h134q59 0 90.5 27.5t31.5 76.5q0 48 -31.5 74.5t-89.5 26.5h-135v-205z" glyph-name="uni20BD.tf"/>
<glyph d="M574 584q28 -40 32 -87h156v-69h-157q-11 -80 -73.5 -133t-195.5 -55h-15l304 -240h-247l-315 259v79h184q73 0 107.5 23.5t42.5 66.5h-334v69h334q-19 87 -137 87h-197v111h699v-111h-188z" glyph-name="uni20B9.tf"/>
<glyph d="M735 381l-10 -66h64v-60h-73l-40 -255h-205l-29 255h-79l-30 -255h-204l-40 255h-74v60h65l-10 66h-55v60h45l-39 254h149l24 -254h84l38 254h173l38 -254h84l24 254h149l-39 -254h44v-60h-54zM385 441h35l-9 78q-6 53 -7 81h-4q-2 -36 -4 -57l-2 -24zM206 315h53l10 66 h-69zM435 315l-8 66h-49l-8 -66h65zM605 381h-70l10 -66h54zM250 255h-39l8 -81q1 -14 5 -55q0 -7 2 -27h2q4 30 10 82zM594 255h-40l12 -81q7 -52 10 -82h3q1 30 5 59l2 23z" glyph-name="uni20A9.tf"/>
<glyph d="M663 320h-245v-195h-128v195h-244v117h244v185h128v-185h245v-117z" glyph-name="plus.case" horiz-adv-x="709"/>
<glyph d="M46 438h617v-119h-617v119z" glyph-name="minus.case" horiz-adv-x="709"/>
<glyph d="M489 375l208 -178l-84 -78l-212 182l-212 -181l-84 77l208 178l-208 179l85 77l211 -181l211 181l86 -77z" glyph-name="multiply.case"/>
<glyph d="M298 516.5q-22 21.5 -22 55.5t22 56t55 22q34 0 56.5 -21.5t22.5 -56.5q0 -34 -22.5 -55.5t-56.5 -21.5q-33 0 -55 21.5zM46 437h617v-118h-617v118zM298 124.5q-22 21.5 -22 55.5t22 56t55 22q34 0 56.5 -21.5t22.5 -56.5q0 -34 -22.5 -55.5t-56.5 -21.5q-33 0 -55 21.5 z" glyph-name="divide.case" horiz-adv-x="709"/>
<glyph d="M46 529h598v-108h-598v108zM46 337h598v-108h-598v108z" glyph-name="equal.case" horiz-adv-x="691"/>
<glyph d="M467 421l-43 -84h275v-108h-331l-60 -116h-91l60 116h-176v108h232l43 84h-275v108h331l58 112h91l-58 -112h176v-108h-232z" glyph-name="notequal.case"/>
<glyph d="M139 243l422 134l-422 134v125l565 -205v-110l-565 -205v127z" glyph-name="greater.case"/>
<glyph d="M99 321v110l565 205v-125l-421 -134l421 -134v-127z" glyph-name="less.case"/>
<glyph d="M126 317l421 134l-421 134v125l565 -205v-110l-565 -205v127zM686 50h-563v104h563v-104z" glyph-name="greaterequal.case"/>
<glyph d="M113 395v110l564 205v-125l-421 -134l421 -134v-127zM681 154v-104h-564v104h564z" glyph-name="lessequal.case"/>
<glyph d="M710 459v-117h-246v-152h-127v152h-244v117h244v153h127v-153h246zM93 157h617v-107h-617v107z" glyph-name="plusminus.case"/>
<glyph d="M481 402.5q-35 8.5 -89 26.5q-48 15 -77.5 22.5t-56.5 7.5q-44 0 -85.5 -14t-69.5 -36v110q26 22 68.5 36t83.5 14q42 0 79 -9t89 -27q44 -15 71 -22t54 -7q44 0 85 14t68 36v-111q-24 -21 -66.5 -35t-83.5 -14q-35 0 -70 8.5zM481 207.5q-35 8.5 -89 26.5 q-48 15 -77.5 22.5t-56.5 7.5q-44 0 -85.5 -14t-69.5 -36v111q26 21 68.5 35t83.5 14q42 0 79 -9t89 -27q44 -15 71 -22t54 -7q44 0 85 14t68 36v-110q-24 -22 -66.5 -36t-83.5 -14q-35 0 -70 8.5z" glyph-name="approxequal.case"/>
<glyph d="M448.5 278q-28.5 10 -61.5 28q-28 15 -46 22t-40 7q-35 0 -56 -17t-26 -50l-115 28q12 72 61.5 109t122.5 37q40 0 69 -10t66 -29q27 -15 44.5 -21.5t38.5 -6.5q65 0 78 71l114 -21q-11 -80 -62 -118.5t-121 -38.5q-38 0 -66.5 10z" glyph-name="asciitilde.case"/>
<glyph d="M685 437v-265h-118v154h-451v111h569z" glyph-name="logicalnot.case"/>
<glyph d="M731 503q51 -46 51 -124q0 -51 -24 -90t-66.5 -60.5t-95.5 -21.5q-109 0 -189 85q-40 -41 -85.5 -63t-101.5 -22q-82 0 -133 46t-51 124q0 51 24 90t66 60.5t95 21.5q110 0 190 -85q40 41 85.5 63t101.5 22q82 0 133 -46zM292.5 330.5q24.5 16.5 49.5 48.5 q-48 64 -108 64q-34 0 -55.5 -17.5t-21.5 -47.5t22.5 -47t56.5 -17q32 0 56.5 16.5zM639.5 330.5q21.5 17.5 21.5 47.5t-22.5 47t-56.5 17q-32 0 -56.5 -16.5t-49.5 -48.5q48 -64 108 -64q34 0 55.5 17.5z" glyph-name="infinity.case" horiz-adv-x="818"/>
<glyph d="M642 356q0 -71 -38 -125t-107 -83.5t-161 -29.5q-110 0 -190 43l-75 -60l-47 45l69 55q-62 62 -62 153q0 71 37.5 125t106.5 83.5t161 29.5q113 0 190 -43l75 60l47 -45l-69 -55q63 -61 63 -153zM196 284l228 183q-38 16 -88 16q-75 0 -119 -34.5t-44 -92.5q0 -43 23 -72 zM455 261.5q44 34.5 44 92.5q0 43 -23 72l-227 -183q38 -16 87 -16q75 0 119 34.5z" glyph-name="emptyset.case" horiz-adv-x="672"/>
<glyph d="M710 320h-245v-195h-128v195h-244v117h244v185h128v-185h245v-117z" glyph-name="plus.tf.case"/>
<glyph d="M93 438h617v-119h-617v119z" glyph-name="minus.tf.case"/>
<glyph d="M320 516.5q-22 21.5 -22 55.5t22 56t55 22q34 0 56.5 -21.5t22.5 -56.5q0 -34 -22.5 -55.5t-56.5 -21.5q-33 0 -55 21.5zM68 437h617v-118h-617v118zM320 124.5q-22 21.5 -22 55.5t22 56t55 22q34 0 56.5 -21.5t22.5 -56.5q0 -34 -22.5 -55.5t-56.5 -21.5q-33 0 -55 21.5 z" glyph-name="divide.tf.case"/>
<glyph d="M100 529h598v-108h-598v108zM100 337h598v-108h-598v108z" glyph-name="equal.tf.case"/>
<glyph d="M708 356q0 -71 -38 -125t-107 -83.5t-161 -29.5q-113 0 -190 43l-75 -60l-47 45l69 55q-63 61 -63 153q0 71 38 125t107 83.5t161 29.5q113 0 190 -43l75 60l47 -45l-69 -55q63 -61 63 -153zM262 284l228 183q-38 16 -88 16q-75 0 -119 -34.5t-44 -92.5q0 -43 23 -72z M521 261.5q44 34.5 44 92.5q0 43 -23 72l-227 -183q38 -16 87 -16q75 0 119 34.5z" glyph-name="emptyset.tf.case"/>
<glyph d="M710 270h-245v-195h-128v195h-244v117h244v185h128v-185h245v-117z" glyph-name="plus.tf"/>
<glyph d="M93 388h617v-119h-617v119z" glyph-name="minus.tf"/>
</font>
</defs>
</svg>
